<svg width="24" height="24" viewBox="0 0 24 24" fill="none" xmlns="http://www.w3.org/2000/svg">
<g clip-path="url(#clip0_1977_264)">
<path d="M10.0321 11.628C9.68832 11.6283 9.34886 11.7043 9.03781 11.8506C8.72676 11.9969 8.45176 12.2099 8.23238 12.4746C8.013 12.7392 7.85461 13.0489 7.76849 13.3817C7.68236 13.7145 7.67061 14.0622 7.73407 14.4C7.81828 14.8606 8.03842 15.2855 8.36615 15.62C8.69388 15.9545 9.11421 16.1832 9.57303 16.2768C10.0319 16.3704 10.5082 16.3245 10.9407 16.1451C11.3733 15.9656 11.7422 15.6609 12.0001 15.27C12.2581 14.8848 12.396 14.4316 12.3961 13.968C12.3888 13.3476 12.1415 12.7541 11.7061 12.312C11.4862 12.0929 11.225 11.9196 10.9376 11.8022C10.6503 11.6848 10.3425 11.6256 10.0321 11.628Z" fill="black"/>
<path d="M12 0C2.4 0 0 2.4 0 12C0 21.6 2.4 24 12 24C21.6 24 24 21.6 24 12C24 2.4 21.6 0 12 0ZM13.278 17.214C12.5303 17.971 11.5429 18.4447 10.4846 18.5541C9.42624 18.6636 8.36276 18.4019 7.476 17.814C6.72291 17.3056 6.13481 16.5882 5.784 15.75C5.43907 14.9106 5.34933 13.9881 5.526 13.098C5.70008 12.2065 6.13679 11.3874 6.78 10.746C7.25816 10.2638 7.8371 9.89347 8.4753 9.66145C9.11349 9.42944 9.79512 9.34154 10.4713 9.40405C11.1475 9.46657 11.8014 9.67795 12.3863 10.023C12.9711 10.3681 13.4723 10.8383 13.854 11.4C14.4415 12.2858 14.7029 13.3483 14.5934 14.4056C14.484 15.4629 14.0105 16.4493 13.254 17.196L13.278 17.214ZM18.378 18.378H16.128V7.878H5.628V5.628H18.378V18.378Z" fill="black"/>
</g>
<defs>
<clipPath id="clip0_1977_264">
<rect width="24" height="24" fill="white"/>
</clipPath>
</defs>
</svg>
