<svg width="42" height="42" viewBox="0 0 42 42" fill="none" xmlns="http://www.w3.org/2000/svg">
<g clip-path="url(#clip0_2013_891)">
<path d="M76.2177 10.5526C76.2177 12.0661 74.9075 13.2853 73.281 13.2853C71.6546 13.2853 70.3443 12.0661 70.3443 10.5526C70.3443 9.03904 71.6094 7.81982 73.281 7.81982C74.9527 7.86186 76.2177 9.08108 76.2177 10.5526ZM64.1096 16.0601C64.1096 16.3123 64.1096 16.7327 64.1096 16.7327C64.1096 16.7327 62.709 15.0511 59.7272 15.0511C54.8026 15.0511 50.9623 18.5405 50.9623 23.3754C50.9623 28.1682 54.7574 31.6997 59.7272 31.6997C62.7542 31.6997 64.1096 29.976 64.1096 29.976V30.6907C64.1096 31.027 64.3807 31.2793 64.7421 31.2793H68.4016V15.4715C68.4016 15.4715 65.0583 15.4715 64.7421 15.4715C64.3807 15.4715 64.1096 15.7658 64.1096 16.0601ZM64.1096 26.1922C63.4319 27.1171 62.0765 27.9159 60.45 27.9159C57.5586 27.9159 55.3448 26.2342 55.3448 23.3754C55.3448 20.5165 57.5586 18.8348 60.45 18.8348C62.0313 18.8348 63.4771 19.6757 64.1096 20.5586V26.1922ZM71.1124 15.4715H75.4496V31.2793H71.1124V15.4715ZM135.9 15.0511C132.918 15.0511 131.517 16.7327 131.517 16.7327V7.86186H127.18V31.2793C127.18 31.2793 130.523 31.2793 130.84 31.2793C131.201 31.2793 131.472 30.985 131.472 30.6907V29.976C131.472 29.976 132.873 31.6997 135.855 31.6997C140.779 31.6997 144.619 28.1682 144.619 23.3754C144.619 18.5826 140.779 15.0511 135.9 15.0511ZM135.177 27.8739C133.505 27.8739 132.195 27.0751 131.517 26.1501V20.5165C132.195 19.6757 133.641 18.7928 135.177 18.7928C138.068 18.7928 140.282 20.4745 140.282 23.3333C140.282 26.1922 138.068 27.8739 135.177 27.8739ZM124.921 21.9039V31.3213H120.584V22.3664C120.584 19.7598 119.68 18.7087 117.241 18.7087C115.93 18.7087 114.575 19.3393 113.717 20.2643V31.2793H109.379V15.4715H112.813C113.175 15.4715 113.446 15.7658 113.446 16.0601V16.7327C114.711 15.5135 116.382 15.0511 118.054 15.0511C119.951 15.0511 121.533 15.5556 122.798 16.5646C124.334 17.7417 124.921 19.2553 124.921 21.9039ZM98.8526 15.0511C95.8708 15.0511 94.4702 16.7327 94.4702 16.7327V7.86186H90.133V31.2793C90.133 31.2793 93.4763 31.2793 93.7925 31.2793C94.154 31.2793 94.425 30.985 94.425 30.6907V29.976C94.425 29.976 95.8256 31.6997 98.8074 31.6997C103.732 31.6997 107.572 28.1682 107.572 23.3754C107.617 18.5826 103.777 15.0511 98.8526 15.0511ZM98.1297 27.8739C96.4581 27.8739 95.1479 27.0751 94.4702 26.1501V20.5165C95.1479 19.6757 96.5936 18.7928 98.1297 18.7928C101.021 18.7928 103.235 20.4745 103.235 23.3333C103.235 26.1922 101.021 27.8739 98.1297 27.8739ZM86.3831 15.0511C87.6933 15.0511 88.371 15.2613 88.371 15.2613V19.003C88.371 19.003 84.7566 17.8679 82.4976 20.2643V31.3213H78.1604V15.4715C78.1604 15.4715 81.5037 15.4715 81.82 15.4715C82.1814 15.4715 82.4525 15.7658 82.4525 16.0601V16.7327C83.2657 15.8498 85.0277 15.0511 86.3831 15.0511ZM41.3391 29.8498C41.1132 29.3453 40.8873 28.7988 40.6614 28.3363C40.3 27.5796 39.9385 26.8649 39.6223 26.1922L39.5771 26.1501C36.4597 19.8438 33.1164 13.4535 29.5924 7.14715L29.4569 6.89489C29.0955 6.26426 28.734 5.59159 28.3726 4.91892C27.9208 4.16216 27.469 3.36336 26.7461 2.60661C25.3004 0.924925 23.2221 0 21.0083 0C18.7494 0 16.7163 0.924925 15.2254 2.52252C14.5477 3.27928 14.0507 4.07808 13.5989 4.83483C13.2375 5.50751 12.876 6.18018 12.5146 6.81081L12.379 7.06306C8.90022 13.3694 5.51176 19.7598 2.39437 26.0661L2.34919 26.1501C2.03294 26.8228 1.6715 27.5375 1.31006 28.2943C1.08417 28.7568 0.858269 29.2613 0.632372 29.8078C0.0450382 31.3634 -0.13568 32.8348 0.0902177 34.3483C0.587192 37.5015 2.84617 40.1502 5.96355 41.3273C7.13822 41.7898 8.35807 42 9.62309 42C9.98453 42 10.4363 41.958 10.7978 41.9159C12.2887 41.7477 13.8248 41.2853 15.3157 40.4865C17.1681 39.5195 18.9301 38.1321 20.918 36.1141C22.9059 38.1321 24.7131 39.5195 26.5202 40.4865C28.0112 41.2853 29.5473 41.7477 31.0382 41.9159C31.3996 41.958 31.8514 42 32.2128 42C33.4779 42 34.7429 41.7898 35.8724 41.3273C39.035 40.1502 41.2487 37.4595 41.7457 34.3483C42.1072 32.8769 41.9264 31.4054 41.3391 29.8498ZM20.9632 32.036C18.5235 29.1772 16.9422 26.4865 16.4 24.2162C16.1741 23.2492 16.1289 22.4084 16.2645 21.6516C16.3548 20.979 16.6259 20.3904 16.9874 19.8859C17.8458 18.7507 19.2915 18.036 20.9632 18.036C22.6348 18.036 24.1257 18.7087 24.9389 19.8859C25.3004 20.3904 25.5715 20.979 25.6618 21.6516C25.7974 22.4084 25.7522 23.2913 25.5263 24.2162C24.9841 26.4444 23.4028 29.1351 20.9632 32.036ZM38.9898 34.012C38.6735 36.1982 37.0922 38.0901 34.8784 38.9309C33.7941 39.3513 32.6195 39.4775 31.4448 39.3513C30.3153 39.2252 29.1858 38.8889 28.0112 38.2583C26.3847 37.4174 24.7582 36.1141 22.8607 34.1802C25.8425 30.7748 27.6497 27.6637 28.3274 24.8889C28.6437 23.5856 28.6888 22.4084 28.5533 21.3153C28.3726 20.2643 27.966 19.2973 27.3335 18.4565C25.9329 16.5646 23.5836 15.4715 20.9632 15.4715C18.3427 15.4715 15.9934 16.6066 14.5928 18.4565C13.9603 19.2973 13.5537 20.2643 13.373 21.3153C13.1923 22.4084 13.2375 23.6276 13.5989 24.8889C14.2766 27.6637 16.1289 30.8168 19.0656 34.2222C17.2133 36.1562 15.5416 37.4595 13.9151 38.3003C12.7405 38.9309 11.611 39.2673 10.4815 39.3934C9.26166 39.5195 8.08699 39.3513 7.04786 38.973C4.83407 38.1321 3.25278 36.2402 2.93653 34.0541C2.80099 33.003 2.89135 31.9519 3.34314 30.7748C3.47868 30.3544 3.70458 29.9339 3.93048 29.4294C4.24673 28.7568 4.60817 28.042 4.9696 27.3273L5.01478 27.2432C8.13217 20.979 11.4755 14.5886 14.9543 8.36637L15.0898 8.11411C15.4513 7.48348 15.8127 6.81081 16.1741 6.18018C16.5356 5.50751 16.9422 4.87688 17.4391 4.33033C18.3879 3.32132 19.6529 2.77477 21.0535 2.77477C22.4541 2.77477 23.7191 3.32132 24.6679 4.33033C25.1648 4.87688 25.5715 5.50751 25.9329 6.18018C26.2943 6.81081 26.6558 7.48348 27.0172 8.11411L27.1527 8.36637C30.5864 14.6306 33.9297 21.021 37.0471 27.2853V27.3273C37.4085 28 37.7248 28.7568 38.0862 29.4294C38.3121 29.9339 38.538 30.3544 38.6735 30.7748C39.035 31.8679 39.1705 32.9189 38.9898 34.012Z" fill="white"/>
<path d="M76.2177 10.5526C76.2177 12.0661 74.9075 13.2853 73.281 13.2853C71.6546 13.2853 70.3443 12.0661 70.3443 10.5526C70.3443 9.03904 71.6094 7.81982 73.281 7.81982C74.9527 7.86186 76.2177 9.08108 76.2177 10.5526ZM64.1096 16.0601C64.1096 16.3123 64.1096 16.7327 64.1096 16.7327C64.1096 16.7327 62.709 15.0511 59.7272 15.0511C54.8026 15.0511 50.9623 18.5405 50.9623 23.3754C50.9623 28.1682 54.7574 31.6997 59.7272 31.6997C62.7542 31.6997 64.1096 29.976 64.1096 29.976V30.6907C64.1096 31.027 64.3807 31.2793 64.7421 31.2793H68.4016V15.4715C68.4016 15.4715 65.0583 15.4715 64.7421 15.4715C64.3807 15.4715 64.1096 15.7658 64.1096 16.0601ZM64.1096 26.1922C63.4319 27.1171 62.0765 27.9159 60.45 27.9159C57.5586 27.9159 55.3448 26.2342 55.3448 23.3754C55.3448 20.5165 57.5586 18.8348 60.45 18.8348C62.0313 18.8348 63.4771 19.6757 64.1096 20.5586V26.1922ZM71.1124 15.4715H75.4496V31.2793H71.1124V15.4715ZM135.9 15.0511C132.918 15.0511 131.517 16.7327 131.517 16.7327V7.86186H127.18V31.2793C127.18 31.2793 130.523 31.2793 130.84 31.2793C131.201 31.2793 131.472 30.985 131.472 30.6907V29.976C131.472 29.976 132.873 31.6997 135.855 31.6997C140.779 31.6997 144.619 28.1682 144.619 23.3754C144.619 18.5826 140.779 15.0511 135.9 15.0511ZM135.177 27.8739C133.505 27.8739 132.195 27.0751 131.517 26.1501V20.5165C132.195 19.6757 133.641 18.7928 135.177 18.7928C138.068 18.7928 140.282 20.4745 140.282 23.3333C140.282 26.1922 138.068 27.8739 135.177 27.8739ZM124.921 21.9039V31.3213H120.584V22.3664C120.584 19.7598 119.68 18.7087 117.241 18.7087C115.93 18.7087 114.575 19.3393 113.717 20.2643V31.2793H109.379V15.4715H112.813C113.175 15.4715 113.446 15.7658 113.446 16.0601V16.7327C114.711 15.5135 116.382 15.0511 118.054 15.0511C119.951 15.0511 121.533 15.5556 122.798 16.5646C124.334 17.7417 124.921 19.2553 124.921 21.9039ZM98.8526 15.0511C95.8708 15.0511 94.4702 16.7327 94.4702 16.7327V7.86186H90.133V31.2793C90.133 31.2793 93.4763 31.2793 93.7925 31.2793C94.154 31.2793 94.425 30.985 94.425 30.6907V29.976C94.425 29.976 95.8256 31.6997 98.8074 31.6997C103.732 31.6997 107.572 28.1682 107.572 23.3754C107.617 18.5826 103.777 15.0511 98.8526 15.0511ZM98.1297 27.8739C96.4581 27.8739 95.1479 27.0751 94.4702 26.1501V20.5165C95.1479 19.6757 96.5936 18.7928 98.1297 18.7928C101.021 18.7928 103.235 20.4745 103.235 23.3333C103.235 26.1922 101.021 27.8739 98.1297 27.8739ZM86.3831 15.0511C87.6933 15.0511 88.371 15.2613 88.371 15.2613V19.003C88.371 19.003 84.7566 17.8679 82.4976 20.2643V31.3213H78.1604V15.4715C78.1604 15.4715 81.5037 15.4715 81.82 15.4715C82.1814 15.4715 82.4525 15.7658 82.4525 16.0601V16.7327C83.2657 15.8498 85.0277 15.0511 86.3831 15.0511ZM41.3391 29.8498C41.1132 29.3453 40.8873 28.7988 40.6614 28.3363C40.3 27.5796 39.9385 26.8649 39.6223 26.1922L39.5771 26.1501C36.4597 19.8438 33.1164 13.4535 29.5924 7.14715L29.4569 6.89489C29.0955 6.26426 28.734 5.59159 28.3726 4.91892C27.9208 4.16216 27.469 3.36336 26.7461 2.60661C25.3004 0.924925 23.2221 0 21.0083 0C18.7494 0 16.7163 0.924925 15.2254 2.52252C14.5477 3.27928 14.0507 4.07808 13.5989 4.83483C13.2375 5.50751 12.876 6.18018 12.5146 6.81081L12.379 7.06306C8.90022 13.3694 5.51176 19.7598 2.39437 26.0661L2.34919 26.1501C2.03294 26.8228 1.6715 27.5375 1.31006 28.2943C1.08417 28.7568 0.858269 29.2613 0.632372 29.8078C0.0450382 31.3634 -0.13568 32.8348 0.0902177 34.3483C0.587192 37.5015 2.84617 40.1502 5.96355 41.3273C7.13822 41.7898 8.35807 42 9.62309 42C9.98453 42 10.4363 41.958 10.7978 41.9159C12.2887 41.7477 13.8248 41.2853 15.3157 40.4865C17.1681 39.5195 18.9301 38.1321 20.918 36.1141C22.9059 38.1321 24.7131 39.5195 26.5202 40.4865C28.0112 41.2853 29.5473 41.7477 31.0382 41.9159C31.3996 41.958 31.8514 42 32.2128 42C33.4779 42 34.7429 41.7898 35.8724 41.3273C39.035 40.1502 41.2487 37.4595 41.7457 34.3483C42.1072 32.8769 41.9264 31.4054 41.3391 29.8498ZM20.9632 32.036C18.5235 29.1772 16.9422 26.4865 16.4 24.2162C16.1741 23.2492 16.1289 22.4084 16.2645 21.6516C16.3548 20.979 16.6259 20.3904 16.9874 19.8859C17.8458 18.7507 19.2915 18.036 20.9632 18.036C22.6348 18.036 24.1257 18.7087 24.9389 19.8859C25.3004 20.3904 25.5715 20.979 25.6618 21.6516C25.7974 22.4084 25.7522 23.2913 25.5263 24.2162C24.9841 26.4444 23.4028 29.1351 20.9632 32.036ZM38.9898 34.012C38.6735 36.1982 37.0922 38.0901 34.8784 38.9309C33.7941 39.3513 32.6195 39.4775 31.4448 39.3513C30.3153 39.2252 29.1858 38.8889 28.0112 38.2583C26.3847 37.4174 24.7582 36.1141 22.8607 34.1802C25.8425 30.7748 27.6497 27.6637 28.3274 24.8889C28.6437 23.5856 28.6888 22.4084 28.5533 21.3153C28.3726 20.2643 27.966 19.2973 27.3335 18.4565C25.9329 16.5646 23.5836 15.4715 20.9632 15.4715C18.3427 15.4715 15.9934 16.6066 14.5928 18.4565C13.9603 19.2973 13.5537 20.2643 13.373 21.3153C13.1923 22.4084 13.2375 23.6276 13.5989 24.8889C14.2766 27.6637 16.1289 30.8168 19.0656 34.2222C17.2133 36.1562 15.5416 37.4595 13.9151 38.3003C12.7405 38.9309 11.611 39.2673 10.4815 39.3934C9.26166 39.5195 8.08699 39.3513 7.04786 38.973C4.83407 38.1321 3.25278 36.2402 2.93653 34.0541C2.80099 33.003 2.89135 31.9519 3.34314 30.7748C3.47868 30.3544 3.70458 29.9339 3.93048 29.4294C4.24673 28.7568 4.60817 28.042 4.9696 27.3273L5.01478 27.2432C8.13217 20.979 11.4755 14.5886 14.9543 8.36637L15.0898 8.11411C15.4513 7.48348 15.8127 6.81081 16.1741 6.18018C16.5356 5.50751 16.9422 4.87688 17.4391 4.33033C18.3879 3.32132 19.6529 2.77477 21.0535 2.77477C22.4541 2.77477 23.7191 3.32132 24.6679 4.33033C25.1648 4.87688 25.5715 5.50751 25.9329 6.18018C26.2943 6.81081 26.6558 7.48348 27.0172 8.11411L27.1527 8.36637C30.5864 14.6306 33.9297 21.021 37.0471 27.2853V27.3273C37.4085 28 37.7248 28.7568 38.0862 29.4294C38.3121 29.9339 38.538 30.3544 38.6735 30.7748C39.035 31.8679 39.1705 32.9189 38.9898 34.012Z" fill="white" fill-opacity="0.2"/>
</g>
<defs>
<clipPath id="clip0_2013_891">
<rect width="42" height="42" fill="white"/>
</clipPath>
</defs>
</svg>
