<svg width="24" height="24" viewBox="0 0 24 24" fill="none" xmlns="http://www.w3.org/2000/svg">
<g clip-path="url(#clip0_1977_1415)">
<path d="M43.5532 6.03003C43.5532 6.8949 42.8045 7.59159 41.8751 7.59159C40.9457 7.59159 40.197 6.8949 40.197 6.03003C40.197 5.16517 40.9199 4.46847 41.8751 4.46847C42.8304 4.49249 43.5532 5.18919 43.5532 6.03003ZM36.6343 9.17718C36.6343 9.32132 36.6343 9.56156 36.6343 9.56156C36.6343 9.56156 35.834 8.6006 34.1301 8.6006C31.316 8.6006 29.1216 10.5946 29.1216 13.3574C29.1216 16.0961 31.2902 18.1141 34.1301 18.1141C35.8598 18.1141 36.6343 17.1291 36.6343 17.1291V17.5375C36.6343 17.7297 36.7892 17.8739 36.9958 17.8739H39.0869V8.84084C39.0869 8.84084 37.1765 8.84084 36.9958 8.84084C36.7892 8.84084 36.6343 9.00901 36.6343 9.17718ZM36.6343 14.967C36.2471 15.4955 35.4726 15.952 34.5432 15.952C32.8909 15.952 31.6258 14.991 31.6258 13.3574C31.6258 11.7237 32.8909 10.7628 34.5432 10.7628C35.4467 10.7628 36.2729 11.2432 36.6343 11.7477V14.967ZM40.6359 8.84084H43.1144V17.8739H40.6359V8.84084ZM77.6573 8.6006C75.9534 8.6006 75.1531 9.56156 75.1531 9.56156V4.49249H72.6747V17.8739C72.6747 17.8739 74.5851 17.8739 74.7658 17.8739C74.9724 17.8739 75.1273 17.7057 75.1273 17.5375V17.1291C75.1273 17.1291 75.9276 18.1141 77.6315 18.1141C80.4455 18.1141 82.64 16.0961 82.64 13.3574C82.64 10.6186 80.4455 8.6006 77.6573 8.6006ZM77.2442 15.9279C76.289 15.9279 75.5403 15.4715 75.1531 14.9429V11.7237C75.5403 11.2432 76.3665 10.7387 77.2442 10.7387C78.8965 10.7387 80.1615 11.6997 80.1615 13.3333C80.1615 14.967 78.8965 15.9279 77.2442 15.9279ZM71.3838 12.5165V17.8979H68.9054V12.7808C68.9054 11.2913 68.3891 10.6907 66.9949 10.6907C66.2463 10.6907 65.4718 11.0511 64.9812 11.5796V17.8739H62.5028V8.84084H64.4649C64.6714 8.84084 64.8263 9.00901 64.8263 9.17718V9.56156C65.5492 8.86486 66.5044 8.6006 67.4596 8.6006C68.544 8.6006 69.4475 8.88889 70.1704 9.46547C71.0482 10.1381 71.3838 11.003 71.3838 12.5165ZM56.4875 8.6006C54.7836 8.6006 53.9833 9.56156 53.9833 9.56156V4.49249H51.5048V17.8739C51.5048 17.8739 53.4153 17.8739 53.596 17.8739C53.8025 17.8739 53.9574 17.7057 53.9574 17.5375V17.1291C53.9574 17.1291 54.7578 18.1141 56.4617 18.1141C59.2757 18.1141 61.4701 16.0961 61.4701 13.3574C61.496 10.6186 59.3015 8.6006 56.4875 8.6006ZM56.0744 15.9279C55.1192 15.9279 54.3705 15.4715 53.9833 14.9429V11.7237C54.3705 11.2432 55.1966 10.7387 56.0744 10.7387C57.7267 10.7387 58.9917 11.6997 58.9917 13.3333C58.9917 14.967 57.7267 15.9279 56.0744 15.9279ZM49.362 8.6006C50.1107 8.6006 50.498 8.72072 50.498 8.72072V10.8589C50.498 10.8589 48.4326 10.2102 47.1418 11.5796V17.8979H44.6634V8.84084C44.6634 8.84084 46.5738 8.84084 46.7545 8.84084C46.9611 8.84084 47.116 9.00901 47.116 9.17718V9.56156C47.5807 9.05706 48.5875 8.6006 49.362 8.6006ZM23.6226 17.0571C23.4935 16.7688 23.3645 16.4565 23.2354 16.1922C23.0288 15.7598 22.8223 15.3514 22.6416 14.967L22.6158 14.9429C20.8344 11.3393 18.924 7.68769 16.9102 4.08408L16.8328 3.93994C16.6263 3.57958 16.4197 3.1952 16.2132 2.81081C15.955 2.37838 15.6968 1.92192 15.2838 1.48949C14.4576 0.528528 13.2701 0 12.005 0C10.7142 0 9.55244 0.528528 8.70048 1.44144C8.31323 1.87387 8.02924 2.33033 7.77107 2.76276C7.56454 3.14715 7.358 3.53153 7.15147 3.89189L7.07402 4.03604C5.08612 7.63964 3.14986 11.2913 1.36849 14.8949L1.34267 14.9429C1.16196 15.3273 0.955422 15.7357 0.748887 16.1682C0.619803 16.4324 0.490719 16.7207 0.361634 17.033C0.0260151 17.9219 -0.0772523 18.7628 0.051832 19.6276C0.335817 21.4294 1.62666 22.9429 3.40802 23.6156C4.07926 23.8799 4.77632 24 5.49919 24C5.70572 24 5.96389 23.976 6.17043 23.952C7.02238 23.8559 7.90016 23.5916 8.75211 23.1351C9.81061 22.5826 10.8175 21.7898 11.9534 20.6366C13.0893 21.7898 14.122 22.5826 15.1547 23.1351C16.0067 23.5916 16.8844 23.8559 17.7364 23.952C17.9429 23.976 18.2011 24 18.4076 24C19.1305 24 19.8534 23.8799 20.4988 23.6156C22.306 22.9429 23.571 21.4054 23.855 19.6276C24.0615 18.7868 23.9582 17.9459 23.6226 17.0571ZM11.9792 18.3063C10.5851 16.6727 9.68152 15.1351 9.37172 13.8378C9.24263 13.2853 9.21682 12.8048 9.29427 12.3724C9.3459 11.988 9.5008 11.6517 9.70734 11.3634C10.1979 10.7147 11.024 10.3063 11.9792 10.3063C12.9344 10.3063 13.7864 10.6907 14.2511 11.3634C14.4576 11.6517 14.6125 11.988 14.6642 12.3724C14.7416 12.8048 14.7158 13.3093 14.5867 13.8378C14.2769 15.1111 13.3733 16.6486 11.9792 18.3063ZM22.2801 19.4354C22.0994 20.6847 21.1958 21.7658 19.9308 22.2462C19.3112 22.4865 18.64 22.5586 17.9687 22.4865C17.3233 22.4144 16.6779 22.2222 16.0067 21.8619C15.0772 21.3814 14.1478 20.6366 13.0635 19.5315C14.7674 17.5856 15.8001 15.8078 16.1874 14.2222C16.3681 13.4775 16.3939 12.8048 16.3165 12.1802C16.2132 11.5796 15.9808 11.027 15.6194 10.5465C14.8191 9.46547 13.4766 8.84084 11.9792 8.84084C10.4818 8.84084 9.13937 9.48949 8.33904 10.5465C7.97761 11.027 7.74526 11.5796 7.64199 12.1802C7.53872 12.8048 7.56454 13.5015 7.77107 14.2222C8.15833 15.8078 9.21682 17.6096 10.8949 19.5556C9.83642 20.6607 8.8812 21.4054 7.95179 21.8859C7.28055 22.2462 6.63513 22.4384 5.98971 22.5105C5.29265 22.5826 4.62142 22.4865 4.02763 22.2703C2.7626 21.7898 1.85901 20.7087 1.67829 19.4595C1.60084 18.8589 1.65248 18.2583 1.91065 17.5856C1.9881 17.3453 2.11718 17.1051 2.24626 16.8168C2.42698 16.4324 2.63352 16.024 2.84005 15.6156L2.86587 15.5676C4.64723 11.988 6.55768 8.33634 8.54558 4.78078L8.62303 4.63664C8.82957 4.27628 9.0361 3.89189 9.24263 3.53153C9.44917 3.14715 9.68152 2.78679 9.96551 2.47447C10.5077 1.8979 11.2305 1.58559 12.0309 1.58559C12.8312 1.58559 13.554 1.8979 14.0962 2.47447C14.3802 2.78679 14.6125 3.14715 14.8191 3.53153C15.0256 3.89189 15.2321 4.27628 15.4387 4.63664L15.5161 4.78078C17.4782 8.36036 19.3887 12.012 21.17 15.5916V15.6156C21.3766 16 21.5573 16.4324 21.7638 16.8168C21.8929 17.1051 22.022 17.3453 22.0994 17.5856C22.306 18.2102 22.3834 18.8108 22.2801 19.4354Z" fill="#FF5A5F"/>
</g>
<defs>
<clipPath id="clip0_1977_1415">
<rect width="24" height="24" fill="white"/>
</clipPath>
</defs>
</svg>
