<svg width="24" height="24" viewBox="0 0 24 24" fill="none" xmlns="http://www.w3.org/2000/svg">
<g clip-path="url(#clip0_1977_591)">
<path d="M10.7254 0.302518L1.77044 4.72841C1.27245 4.97457 1.27761 5.8196 1.77872 6.05684L10.771 10.3162C11.5611 10.6905 12.441 10.6905 13.2311 10.3162L22.2235 6.05668C22.7245 5.8196 22.7299 4.97473 22.2317 4.72857L13.2769 0.302356C12.46 -0.101436 11.5422 -0.101436 10.7253 0.302356" fill="#FCB400"/>
<path d="M12.7988 12.6421V23.2827C12.7988 23.7886 13.2261 24.1353 13.6199 23.9488L23.6401 19.3032C23.7519 19.2503 23.8477 19.1585 23.9153 19.0397C23.9828 18.9209 24.0189 18.7806 24.0189 18.637V7.9966C24.0189 7.49049 23.5916 7.14395 23.1978 7.33044L13.1776 11.9761C13.0659 12.029 12.97 12.1208 12.9025 12.2396C12.835 12.3584 12.7988 12.4986 12.7988 12.6422" fill="#18BFFF"/>
<path d="M10.459 13.191L7.48519 14.9061L7.18326 15.0804L0.905815 18.6731C0.508028 18.9024 0 18.556 0 18.028V8.0411C0 7.85008 0.0820013 7.68516 0.19197 7.5611C0.237084 7.50744 0.288266 7.46159 0.344025 7.42489C0.493908 7.31737 0.707872 7.28867 0.889795 7.37462L10.409 11.8798C10.8929 12.1091 10.9309 12.9189 10.459 13.1912" fill="#F82B60"/>
<path d="M10.4589 13.191L7.48512 14.9061L0.191895 7.56094C0.237018 7.50734 0.288199 7.46154 0.34395 7.42489C0.493833 7.31737 0.707796 7.28867 0.88972 7.37462L10.4089 11.8798C10.8928 12.1091 10.9308 12.9189 10.4589 13.1912" fill="black" fill-opacity="0.25"/>
</g>
<defs>
<clipPath id="clip0_1977_591">
<rect width="24" height="24" fill="white"/>
</clipPath>
</defs>
</svg>
