<svg width="24" height="25" viewBox="0 0 24 25" fill="none" xmlns="http://www.w3.org/2000/svg">
<path d="M13.5999 20.5H10.3999" stroke="#555555" stroke-width="1.5" stroke-linecap="round" stroke-linejoin="round"/>
<path d="M12 5.5V5.5C9.239 5.5 7 7.739 7 10.5V10.5V10.532V13.004C7 13.328 6.817 13.623 6.528 13.768L6.025 14.019C5.397 14.334 5 14.976 5 15.678V15.678C5 16.702 5.83 17.532 6.854 17.532H17.146C18.17 17.532 19 16.702 19 15.678V15.678C19 14.976 18.603 14.334 17.975 14.02L17.472 13.769C17.183 13.623 17 13.328 17 13.004V10.532V10.5V10.5" stroke="#555555" stroke-width="1.5" stroke-linecap="round" stroke-linejoin="round"/>
<path d="M13.139 5.6418C12.772 5.5558 12.394 5.4998 12 5.4998" stroke="#555555" stroke-width="1.5" stroke-linecap="round" stroke-linejoin="round"/>
<path d="M16.8582 9.36084C16.9442 9.72784 17.0002 10.1058 17.0002 10.4998" stroke="#555555" stroke-width="1.5" stroke-linecap="round" stroke-linejoin="round"/>
<path fill-rule="evenodd" clip-rule="evenodd" d="M18.1213 4.37868C19.2929 5.55025 19.2929 7.44975 18.1213 8.62132C16.9497 9.79289 15.0502 9.79289 13.8787 8.62132C12.7071 7.44975 12.7071 5.55025 13.8787 4.37868C15.0502 3.20711 16.9497 3.20711 18.1213 4.37868Z" fill="#FF0202"/>
<path d="M18.1213 4.37868C19.2929 5.55025 19.2929 7.44975 18.1213 8.62132C16.9497 9.79289 15.0502 9.79289 13.8787 8.62132C12.7071 7.44975 12.7071 5.55025 13.8787 4.37868C15.0502 3.20711 16.9497 3.20711 18.1213 4.37868" stroke="#555555" stroke-width="1.5" stroke-linecap="round" stroke-linejoin="round"/>
</svg>
