<svg width="9" height="12" viewBox="0 0 9 12" fill="none" xmlns="http://www.w3.org/2000/svg">
<g clip-path="url(#clip0_552_5889)">
<path d="M7.875 1.5H6C6 0.672656 5.32734 0 4.5 0C3.67266 0 3 0.672656 3 1.5H1.125C0.503906 1.5 0 2.00391 0 2.625V10.875C0 11.4961 0.503906 12 1.125 12H7.875C8.49609 12 9 11.4961 9 10.875V2.625C9 2.00391 8.49609 1.5 7.875 1.5ZM4.5 0.9375C4.81172 0.9375 5.0625 1.18828 5.0625 1.5C5.0625 1.81172 4.81172 2.0625 4.5 2.0625C4.18828 2.0625 3.9375 1.81172 3.9375 1.5C3.9375 1.18828 4.18828 0.9375 4.5 0.9375ZM7.34063 6.37031L3.98906 9.69375C3.87891 9.80391 3.70078 9.80156 3.59062 9.69141L1.65469 7.73906C1.54453 7.62891 1.54687 7.45078 1.65703 7.34063L2.32266 6.67969C2.43281 6.56953 2.61094 6.57188 2.72109 6.68203L3.79922 7.76953L6.28359 5.30391C6.39375 5.19375 6.57188 5.19609 6.68203 5.30625L7.34297 5.97188C7.45312 6.08437 7.45078 6.26016 7.34063 6.37031Z" fill="#005382"/>
</g>
<defs>
<clipPath id="clip0_552_5889">
<rect width="9" height="12" fill="white"/>
</clipPath>
</defs>
</svg>
