<svg width="24" height="24" viewBox="0 0 24 24" fill="none" xmlns="http://www.w3.org/2000/svg">
<g clip-path="url(#clip0_1977_763)">
<g clip-path="url(#clip1_1977_763)">
<path d="M20.3328 2.00999C18.7791 1.071 17.1177 0.388577 15.3808 0C15.1675 0.498142 14.9183 1.16815 14.7465 1.70115C12.9001 1.34249 11.0707 1.34249 9.25831 1.70115C9.08652 1.16815 8.83165 0.498142 8.61643 0C6.87766 0.388577 5.2144 1.07351 3.66065 2.01497C0.526708 8.13203 -0.322851 14.0972 0.101929 19.9776C2.18052 21.9826 4.19493 23.2005 6.17534 23.9975C6.66432 23.1283 7.10042 22.2042 7.47611 21.2304C6.76059 20.8792 6.07528 20.4459 5.42775 19.9427C5.59954 19.7784 5.76757 19.6065 5.92992 19.4296C9.87942 21.8157 14.1707 21.8157 18.073 19.4296C18.2372 19.6065 18.4052 19.7784 18.5752 19.9427C17.9257 20.4483 17.2385 20.8817 16.523 21.2329C16.8987 22.2042 17.3329 23.1308 17.8238 24C19.8061 23.203 21.8224 21.9851 23.901 19.9776C24.3994 13.1607 23.0495 7.25033 20.3328 2.00999ZM8.01417 16.3612C6.82857 16.3612 5.85628 14.9315 5.85628 13.1906C5.85628 11.4496 6.80781 10.0175 8.01417 10.0175C9.22057 10.0175 10.1928 11.4471 10.1721 13.1906C10.1739 14.9315 9.22057 16.3612 8.01417 16.3612ZM15.9887 16.3612C14.8031 16.3612 13.8308 14.9315 13.8308 13.1906C13.8308 11.4496 14.7823 10.0175 15.9887 10.0175C17.1951 10.0175 18.1674 11.4471 18.1466 13.1906C18.1466 14.9315 17.1951 16.3612 15.9887 16.3612Z" fill="#5865F2"/>
</g>
</g>
<defs>
<clipPath id="clip0_1977_763">
<rect width="24" height="24" fill="white"/>
</clipPath>
<clipPath id="clip1_1977_763">
<rect width="96" height="24" fill="white"/>
</clipPath>
</defs>
</svg>
