<svg width="24" height="24" viewBox="0 0 24 24" fill="none" xmlns="http://www.w3.org/2000/svg">
<g clip-path="url(#clip0_1977_407)">
<path d="M1.03274 6.11923L11.6374 9.58182C12.2095 9.76503 12.4746 10.6261 12.1537 11.2856C10.6607 14.4185 7.75832 15.9574 4.95367 15.0414C2.14902 14.1253 0.153672 10.9742 -0.0416767 7.29175C-0.0835372 6.52228 0.460649 5.93602 1.03274 6.11923Z" fill="#58CC02"/>
<path d="M22.87 6.11923L12.2653 9.58182C11.6932 9.76503 11.4281 10.6261 11.749 11.2856C13.242 14.4185 16.1444 15.9574 18.949 15.0414C21.7537 14.1253 23.763 10.9742 23.9583 7.29175C23.9723 6.52228 23.442 5.93602 22.87 6.11923Z" fill="#58CC02"/>
<path d="M3.78135 20.5741C4.13019 20.0794 4.73019 20.0428 5.10693 20.5191L6.1953 21.8565C6.57205 22.3145 6.59995 23.1023 6.23716 23.597C5.88833 24.0916 5.28833 24.1283 4.91158 23.6519L3.82321 22.3145C3.44647 21.8565 3.43251 21.0687 3.78135 20.5741Z" fill="#E09000"/>
<path d="M20.1767 20.5741C19.8279 20.0794 19.2279 20.0428 18.8511 20.5191L17.7627 21.8565C17.386 22.3145 17.3581 23.1023 17.7209 23.597C18.0697 24.0916 18.6697 24.1283 19.0465 23.6519L20.1348 22.3145C20.5116 21.8565 20.5255 21.0687 20.1767 20.5741Z" fill="#E09000"/>
<path d="M8.10708 0.256489C10.0048 1.31908 11.3024 1.83206 12.0141 1.83206C12.7117 1.83206 13.9955 1.31908 15.8513 0.274809C17.0931 -0.421374 18.5303 0.348092 19.0606 1.97863C19.1862 2.38168 19.2559 2.80305 19.2559 3.24275V13.1725C19.2559 18.4489 15.9908 22.7359 11.9722 22.7359C7.95359 22.7359 4.68848 18.4489 4.68848 13.1725V3.22443C4.68848 1.44733 5.7908 0 7.14429 0C7.47917 0.0183206 7.8001 0.0916031 8.10708 0.256489Z" fill="#58CC02"/>
<path d="M16.7723 3.66424C16.7444 3.35279 16.6607 3.05966 16.549 2.76653C16.4653 2.565 16.256 2.54668 16.1444 2.71156L15.7258 3.31614H15.7118C15.7118 2.87645 15.6281 2.41843 15.4607 2.01538C15.3769 1.81385 15.1816 1.79553 15.056 1.96042L13.0467 4.89172C12.3909 5.47798 11.456 5.44133 10.8142 4.78179L8.83276 1.96042C8.72113 1.79553 8.56765 1.81385 8.46997 2.01538C8.28858 2.45508 8.20486 2.93141 8.21881 3.40775L7.74439 2.71156C7.61881 2.54668 7.42346 2.565 7.33974 2.76653C7.2002 3.0963 7.11648 3.44439 7.10253 3.8108C6.25137 4.41538 5.65137 5.5879 5.65137 6.96195V9.27034C5.65137 11.249 6.86532 12.8429 8.3723 12.8429H8.5816C9.71183 12.8429 10.6886 11.9268 11.0932 10.6444C11.9304 10.6444 12.5304 10.6261 12.9072 10.6444C13.3258 11.9085 14.2886 12.7879 15.4049 12.7879H15.6002C17.1072 12.7879 18.3211 11.194 18.3211 9.21538V6.88866C18.3351 5.45966 17.6932 4.23217 16.7723 3.66424ZM11.4421 16.2139C11.47 16.0856 11.4002 15.9757 11.3025 15.9757H9.47462C9.363 15.9757 9.29323 16.1039 9.33509 16.2139C9.47462 16.7635 9.89323 17.1482 10.3816 17.1482C10.87 17.1482 11.3025 16.7635 11.4421 16.2139ZM14.4979 15.9757H12.67C12.5723 15.9757 12.5025 16.1039 12.5304 16.2139C12.67 16.7635 13.0886 17.1482 13.5769 17.1482C14.0653 17.1482 14.4979 16.7635 14.6374 16.2139C14.6653 16.0856 14.5956 15.9757 14.4979 15.9757ZM12.8932 18.0093H11.0653C10.9676 18.0093 10.8979 18.1192 10.9258 18.2474C11.0653 18.7971 11.4839 19.1818 11.9723 19.1818C12.4607 19.1818 12.8932 18.7971 13.0328 18.2474C13.0607 18.1192 12.9909 18.0093 12.8932 18.0093Z" fill="#89E219"/>
<path d="M12.0003 8.70215C12.5724 8.70215 13.0329 9.30673 13.0329 10.0579V12.3113C13.0329 13.0625 12.5724 13.667 12.0003 13.667C11.4282 13.667 10.9678 13.0625 10.9678 12.3113V10.0579C10.9817 9.30673 11.4422 8.70215 12.0003 8.70215Z" fill="#E09000"/>
<path d="M12.0004 9.2334C12.4469 9.2334 12.7958 9.70973 12.7958 10.2777V11.78C12.7958 12.3662 12.433 12.8242 12.0004 12.8242C11.5679 12.8242 11.2051 12.3479 11.2051 11.78V10.2777C11.2051 9.69141 11.5679 9.2334 12.0004 9.2334Z" fill="#B66E28"/>
<path d="M10.5771 9.85655C10.7027 8.99548 11.3027 8.33594 12.0423 8.33594C12.712 8.33594 13.312 8.99548 13.4237 9.85655V9.96647L12.0004 10.2779L10.5771 9.96647V9.85655Z" fill="#FFC200"/>
<path d="M12.2932 9.19682C12.2653 9.19682 12.2513 9.19682 12.2234 9.1785C12.056 9.10521 11.9025 9.10521 11.7351 9.1785C11.6234 9.23346 11.5118 9.16018 11.47 9.01361C11.4281 8.86705 11.4839 8.72048 11.5955 8.66552C11.8467 8.53727 12.1118 8.53727 12.363 8.66552C12.4746 8.72048 12.5304 8.86705 12.4886 9.01361C12.4607 9.12353 12.3769 9.19682 12.2932 9.19682Z" fill="#FFDE00"/>
<path d="M8.41397 4.72656C7.31164 4.72656 6.40466 5.89908 6.41862 7.34641V8.53725C7.54885 8.83038 8.81862 9.38 10.1861 10.1311C10.3256 9.76473 10.4093 9.36168 10.4093 8.92198V7.34641C10.4093 5.89908 9.51629 4.72656 8.41397 4.72656Z" fill="white"/>
<path d="M17.4839 8.55557V7.34641C17.4839 5.89908 16.5908 4.72656 15.4885 4.72656C14.3862 4.72656 13.4932 5.89908 13.4932 7.34641V8.92198C13.4932 9.38 13.5769 9.80137 13.7304 10.1678C15.0978 9.41664 16.3676 8.86702 17.4839 8.55557Z" fill="white"/>
<path d="M14.5399 9.74656C15.0841 9.47175 15.6143 9.23358 16.1166 9.03206C16.1306 8.9771 16.1306 8.90381 16.1306 8.83053V7.47481C16.1306 6.77862 15.698 6.229 15.1817 6.229C15.0004 6.229 14.8329 6.28397 14.6934 6.39389C14.791 6.54045 14.8608 6.72366 14.8608 6.94351C14.8608 7.3832 14.5957 7.73129 14.2608 7.73129C14.2469 7.73129 14.2469 7.73129 14.2329 7.73129V8.83053C14.2329 9.19694 14.3445 9.52671 14.5399 9.74656Z" fill="#122431"/>
<path d="M9.39107 9.70992C9.55851 9.49007 9.67014 9.17862 9.67014 8.83053V7.47481C9.67014 6.77862 9.23758 6.229 8.7213 6.229C8.58176 6.229 8.44223 6.26565 8.31665 6.35725C8.44223 6.50381 8.52595 6.70534 8.52595 6.94351C8.52595 7.3832 8.26083 7.73129 7.92595 7.73129C7.87014 7.73129 7.82827 7.71297 7.77246 7.69465V8.83053C7.77246 8.88549 7.77246 8.92213 7.78642 8.9771C8.30269 9.17862 8.83293 9.43511 9.39107 9.70992Z" fill="#122431"/>
</g>
<defs>
<clipPath id="clip0_1977_407">
<rect width="24" height="24" fill="white"/>
</clipPath>
</defs>
</svg>
