<?xml version="1.0" standalone="no"?>
<!DOCTYPE svg PUBLIC "-//W3C//DTD SVG 20010904//EN"
 "http://www.w3.org/TR/2001/REC-SVG-20010904/DTD/svg10.dtd">
<svg version="1.0" xmlns="http://www.w3.org/2000/svg"
 width="24.000000pt" height="24.000000pt" viewBox="0 0 24.000000 24.000000"
 preserveAspectRatio="xMidYMid meet">

<g transform="translate(0.000000,24.000000) scale(0.100000,-0.100000)"
fill="#000000" stroke="none">
<path d="M32 188 c-16 -16 -16 -120 0 -136 16 -16 160 -16 176 0 16 16 16 120
0 136 -16 16 -160 16 -176 0z m168 -17 c0 -14 -55 -51 -75 -51 -21 0 -85 38
-85 51 0 5 36 9 80 9 44 0 80 -4 80 -9z m-130 -46 c10 -13 9 -19 -6 -38 l-19
-22 23 19 c31 27 72 27 102 2 l25 -21 -19 22 c-15 19 -16 25 -6 38 21 25 31
17 28 -22 l-3 -38 -75 0 -75 0 -3 38 c-3 39 7 47 28 22z"/>
</g>
</svg>
