<svg width="24" height="24" viewBox="0 0 24 24" fill="none" xmlns="http://www.w3.org/2000/svg">
<g clip-path="url(#clip0_1977_1041)">
<path d="M12.25 12C12.25 10.9391 12.6846 9.92172 13.4582 9.17157C14.2318 8.42143 15.281 8 16.375 8C17.469 8 18.5182 8.42143 19.2918 9.17157C20.0654 9.92172 20.5 10.9391 20.5 12C20.5 13.0609 20.0654 14.0783 19.2918 14.8284C18.5182 15.5786 17.469 16 16.375 16C15.281 16 14.2318 15.5786 13.4582 14.8284C12.6846 14.0783 12.25 13.0609 12.25 12Z" fill="#1ABCFE"/>
<path d="M4 20C4 18.9391 4.4346 17.9217 5.20818 17.1716C5.98177 16.4214 7.03098 16 8.125 16H12.25V20C12.25 21.0609 11.8154 22.0783 11.0418 22.8284C10.2682 23.5786 9.21902 24 8.125 24C7.03098 24 5.98177 23.5786 5.20818 22.8284C4.4346 22.0783 4 21.0609 4 20V20Z" fill="#0ACF83"/>
<path d="M12.25 0V8H16.375C17.469 8 18.5182 7.57857 19.2918 6.82843C20.0654 6.07828 20.5 5.06087 20.5 4C20.5 2.93913 20.0654 1.92172 19.2918 1.17157C18.5182 0.421427 17.469 0 16.375 0L12.25 0Z" fill="#FF7262"/>
<path d="M4 4C4 5.06087 4.4346 6.07828 5.20818 6.82843C5.98177 7.57857 7.03098 8 8.125 8H12.25V0H8.125C7.03098 0 5.98177 0.421427 5.20818 1.17157C4.4346 1.92172 4 2.93913 4 4H4Z" fill="#F24E1E"/>
<path d="M4 12C4 13.0609 4.4346 14.0783 5.20818 14.8284C5.98177 15.5786 7.03098 16 8.125 16H12.25V8H8.125C7.03098 8 5.98177 8.42143 5.20818 9.17157C4.4346 9.92172 4 10.9391 4 12H4Z" fill="#A259FF"/>
</g>
<defs>
<clipPath id="clip0_1977_1041">
<rect width="16.5" height="24" fill="white" transform="translate(4)"/>
</clipPath>
</defs>
</svg>
