<svg width="24" height="24" viewBox="0 0 24 24" fill="none" xmlns="http://www.w3.org/2000/svg">
<path fill-rule="evenodd" clip-rule="evenodd" d="M12.0001 0C5.3735 0 0 5.50847 0 12.3038C0 17.74 3.43839 22.3519 8.2064 23.9789C8.80613 24.0927 9.0263 23.7119 9.0263 23.387C9.0263 23.0936 9.01518 22.1244 9.01001 21.0963C5.67157 21.8405 4.96712 19.6446 4.96712 19.6446C4.42125 18.2224 3.63473 17.8443 3.63473 17.8443C2.54596 17.0806 3.7168 17.0963 3.7168 17.0963C4.92181 17.1829 5.55632 18.3644 5.55632 18.3644C6.62661 20.2452 8.36359 19.7014 9.04836 19.387C9.15607 18.5918 9.46706 18.0488 9.81024 17.7418C7.14485 17.4307 4.34295 16.3757 4.34295 11.6612C4.34295 10.3179 4.81172 9.22032 5.57937 8.35868C5.45477 8.04858 5.04403 6.79737 5.69562 5.10261C5.69562 5.10261 6.70331 4.77193 8.9965 6.3638C9.95371 6.09118 10.9803 5.95448 12.0001 5.94979C13.0199 5.95448 14.0473 6.09118 15.0063 6.3638C17.2967 4.77193 18.303 5.10261 18.303 5.10261C18.9562 6.79737 18.5452 8.04858 18.4206 8.35868C19.1901 9.22032 19.6557 10.3179 19.6557 11.6612C19.6557 16.3869 16.8484 17.4274 14.1762 17.732C14.6067 18.1138 14.9902 18.8626 14.9902 20.0105C14.9902 21.6568 14.9763 22.9817 14.9763 23.387C14.9763 23.7144 15.1923 24.098 15.8006 23.9772C20.566 22.3485 24 17.7381 24 12.3038C24 5.50847 18.6273 0 12.0001 0Z" fill="#1B1817"/>
<path d="M4.54501 17.6653C4.51858 17.7267 4.42479 17.7448 4.33934 17.7028C4.2523 17.6627 4.20342 17.5794 4.23163 17.518C4.25747 17.4553 4.35146 17.4378 4.4383 17.4795C4.52554 17.5199 4.57522 17.604 4.54501 17.6653Z" fill="#1B1817"/>
<path d="M5.03132 18.2213C4.97409 18.2757 4.86221 18.2505 4.7863 18.1645C4.70781 18.0787 4.6931 17.964 4.75113 17.9088C4.81015 17.8546 4.91865 17.8801 4.99734 17.9656C5.07583 18.0524 5.09113 18.1663 5.03132 18.2213Z" fill="#1B1817"/>
<path d="M5.50417 18.9301C5.43064 18.9825 5.31042 18.9334 5.2361 18.824C5.16257 18.7146 5.16257 18.5834 5.23769 18.5308C5.31221 18.4782 5.43064 18.5257 5.50596 18.6341C5.57928 18.7453 5.57928 18.8766 5.50417 18.9301Z" fill="#1B1817"/>
<path d="M6.15244 19.6144C6.08667 19.6888 5.94657 19.6688 5.84403 19.5673C5.73911 19.4681 5.7099 19.3273 5.77588 19.2529C5.84245 19.1784 5.98333 19.1994 6.08667 19.3C6.19079 19.399 6.22259 19.5408 6.15244 19.6144Z" fill="#1B1817"/>
<path d="M7.04688 20.0119C7.01787 20.1083 6.88294 20.1521 6.74702 20.1111C6.6113 20.069 6.52247 19.9561 6.54989 19.8587C6.57811 19.7617 6.71363 19.7161 6.85055 19.7599C6.98607 19.8019 7.0751 19.9139 7.04688 20.0119Z" fill="#1B1817"/>
<path d="M8.02885 20.0859C8.03223 20.1874 7.91697 20.2715 7.7743 20.2733C7.63082 20.2766 7.51477 20.1945 7.51318 20.0947C7.51318 19.9922 7.62585 19.9088 7.76933 19.9064C7.91201 19.9035 8.02885 19.985 8.02885 20.0859Z" fill="#1B1817"/>
<path d="M8.94279 19.9263C8.95988 20.0254 8.86072 20.127 8.71903 20.1541C8.57973 20.1802 8.45077 20.1191 8.43308 20.0209C8.41579 19.9194 8.51674 19.8177 8.65584 19.7915C8.79773 19.7662 8.9247 19.8257 8.94279 19.9263Z" fill="#1B1817"/>
</svg>
