<svg width="24" height="24" viewBox="0 0 24 24" fill="none" xmlns="http://www.w3.org/2000/svg">
<g clip-path="url(#clip0_1977_670)">
<path d="M24 12.2758C24 11.46 23.9326 10.6399 23.7886 9.8374H12.2407V14.4584H18.8537C18.5792 15.9487 17.6975 17.2671 16.4064 18.1049V21.1033H20.3517C22.6685 19.0132 24 15.9267 24 12.2758Z" fill="#4285F4"/>
<path d="M12.2409 23.9998C15.5428 23.9998 18.3275 22.9372 20.3563 21.1029L16.4111 18.1046C15.3134 18.8365 13.8964 19.251 12.2454 19.251C9.05137 19.251 6.34322 17.1389 5.37152 14.2993H1.30029V17.3903C3.37864 21.4424 7.61182 23.9998 12.2409 23.9998Z" fill="#34A853"/>
<path d="M5.36663 14.2992C4.85379 12.8089 4.85379 11.1951 5.36663 9.70471V6.61377H1.2999C-0.436556 10.0045 -0.436556 13.9994 1.2999 17.3902L5.36663 14.2992Z" fill="#FBBC04"/>
<path d="M12.2409 4.74868C13.9863 4.72223 15.6733 5.36599 16.9374 6.54769L20.4328 3.12164C18.2195 1.08453 15.2819 -0.0354426 12.2409 -0.000167897C7.61182 -0.000167897 3.37864 2.55725 1.30029 6.61383L5.36702 9.70477C6.33422 6.86075 9.04687 4.74868 12.2409 4.74868Z" fill="#EA4335"/>
</g>
<defs>
<clipPath id="clip0_1977_670">
<rect width="24" height="24" fill="white"/>
</clipPath>
</defs>
</svg>
