<svg width="24" height="24" viewBox="0 0 24 24" fill="none" xmlns="http://www.w3.org/2000/svg">
<path fill-rule="evenodd" clip-rule="evenodd" d="M16.5571 15.3868C16.5598 15.3828 16.5632 15.3794 16.5659 15.3754C15.7517 14.4587 15.2567 13.252 15.2567 11.93C15.2567 10.6066 15.7524 9.39988 16.5672 8.48255C16.5639 8.47782 16.5605 8.47378 16.5571 8.46973L19.7165 5.30966C19.7273 5.29954 19.7381 5.28875 19.7489 5.27795L19.8103 5.21657L19.8049 5.21185C19.9121 5.07223 19.9762 4.89821 19.9762 4.70867C19.9762 4.25135 19.6052 3.88037 19.1472 3.88037C18.9354 3.88037 18.7418 3.96064 18.5955 4.09217L18.3702 4.31138L15.3841 7.29743C15.3801 7.29474 15.3767 7.29136 15.3727 7.28866C14.456 8.10212 13.2507 8.59721 11.9286 8.59721C10.6066 8.59721 9.40124 8.10212 8.48458 7.28866C8.47986 7.29204 8.47513 7.29608 8.47041 7.29946L5.32247 4.1522C5.31168 4.14141 5.51134 4.34039 5.49987 4.32959L5.43849 4.26821L5.43377 4.27361C5.29482 4.16636 4.91035 3.89251 4.72149 3.89251C4.26349 3.89251 3.89251 4.26349 3.89251 4.72081C3.89251 4.93328 3.97345 5.12686 4.10498 5.27323L4.31138 5.48638L7.29811 8.47243C7.29542 8.47648 7.29204 8.47985 7.28934 8.48389C8.1028 9.40055 8.59722 10.6066 8.59722 11.9279C8.59722 13.25 8.1028 14.4553 7.28934 15.372C7.29204 15.376 7.29542 15.3801 7.29811 15.3834L4.0834 18.5982L4.08677 18.6009C3.95861 18.7472 3.88037 18.9381 3.88037 19.1472C3.88037 19.6052 4.25135 19.9762 4.70867 19.9762C4.9461 19.9762 5.15924 19.8757 5.31033 19.7165L8.47041 16.5564C8.47513 16.5598 8.47986 16.5638 8.48458 16.5679C9.40124 15.7544 10.6066 15.2593 11.9286 15.2593C13.2507 15.2593 14.456 15.7544 15.3727 16.5679C15.3767 16.5645 15.3801 16.5618 15.3841 16.5584L18.3763 19.5506L18.5989 19.7664C18.7445 19.8952 18.9354 19.9735 19.1445 19.9735C19.6025 19.9735 19.9735 19.6025 19.9735 19.1445C19.9735 18.9078 19.8737 18.6946 19.7138 18.5435L16.5571 15.3868Z" fill="#F9D10D"/>
<path fill-rule="evenodd" clip-rule="evenodd" d="M10.4912 2.37126C10.4912 0.983848 11.2115 0 11.9283 0C12.6445 0 13.3655 0.983848 13.3655 2.37126C13.3655 3.75867 12.6445 4.74252 11.9283 4.74252C11.2115 4.74252 10.4912 3.75867 10.4912 2.37126Z" fill="#F9D10D"/>
<path fill-rule="evenodd" clip-rule="evenodd" d="M13.3655 21.6286C13.3655 23.016 12.6452 23.9998 11.9283 23.9998C11.2122 23.9998 10.4912 23.016 10.4912 21.6286C10.4912 20.2412 11.2122 19.2573 11.9283 19.2573C12.6452 19.2573 13.3655 20.2412 13.3655 21.6286Z" fill="#F9D10D"/>
<path fill-rule="evenodd" clip-rule="evenodd" d="M21.6286 10.4912C23.016 10.4912 23.9998 11.2115 23.9998 11.9283C23.9998 12.6445 23.016 13.3655 21.6286 13.3655C20.2412 13.3655 19.2573 12.6445 19.2573 11.9283C19.2573 11.2115 20.2412 10.4912 21.6286 10.4912Z" fill="#F9D10D"/>
<path fill-rule="evenodd" clip-rule="evenodd" d="M2.37126 13.3655C0.98385 13.3655 0 12.6452 0 11.9283C0 11.2122 0.98385 10.4912 2.37126 10.4912C3.75867 10.4912 4.74252 11.2122 4.74252 11.9283C4.74252 12.6452 3.75867 13.3655 2.37126 13.3655Z" fill="#F9D10D"/>
</svg>
