<svg width="24" height="24" viewBox="0 0 24 24" fill="none" xmlns="http://www.w3.org/2000/svg">
<g clip-path="url(#clip0_1977_956)">
<path d="M22.8224 22.4509C22.8739 22.4515 22.925 22.4397 22.9724 22.4162C23.0199 22.3927 23.0627 22.358 23.0982 22.3143C23.1338 22.2706 23.1613 22.2188 23.179 22.1621C23.1968 22.1054 23.2044 22.045 23.2014 21.9847C23.2014 21.6541 23.0313 21.4961 22.6824 21.4961H22.1187V23.2272H22.3307V22.4726H22.5913L22.5972 22.4818L23.0016 23.2272H23.2284L22.7933 22.4557L22.8224 22.4509ZM22.5772 22.2775H22.3313V21.6923H22.643C22.804 21.6923 22.9875 21.7231 22.9875 21.9704C22.9875 22.2548 22.8018 22.2775 22.5759 22.2775" fill="#0A66C2"/>
<path d="M17.2907 20.2814H14.2838V14.7581C14.2838 13.441 14.2638 11.7456 12.7199 11.7456C11.1538 11.7456 10.9142 13.1806 10.9142 14.6622V20.2811H7.90731V8.92291H10.7939V10.4751H10.8343C11.1232 9.89577 11.5407 9.41916 12.0422 9.09607C12.5437 8.77297 13.1106 8.61549 13.6824 8.64039C16.73 8.64039 17.2919 10.9917 17.2919 14.0505L17.2907 20.2814ZM4.51454 7.37033C4.16942 7.3704 3.83203 7.25043 3.54504 7.0256C3.25806 6.80076 3.03437 6.48115 2.90224 6.10719C2.77012 5.73323 2.73549 5.32171 2.80276 4.92467C2.87003 4.52763 3.03616 4.16291 3.28015 3.87662C3.52414 3.59033 3.83503 3.39533 4.17351 3.31629C4.51198 3.23724 4.86283 3.2777 5.18169 3.43254C5.50056 3.58739 5.77312 3.84966 5.96491 4.1862C6.1567 4.52274 6.2591 4.91844 6.25916 5.32324C6.25921 5.59202 6.21411 5.85817 6.12645 6.10651C6.0388 6.35485 5.91032 6.58051 5.74831 6.7706C5.58631 6.96069 5.39396 7.11149 5.18227 7.21439C4.97058 7.31729 4.74369 7.37028 4.51454 7.37033ZM6.01798 20.2814H3.00796V8.92291H6.01798V20.2814ZM18.7897 0.00162171H1.49701C1.10451 -0.00357365 0.726294 0.174219 0.445499 0.49593C0.164704 0.817642 0.00430192 1.25695 -0.000488281 1.71732V22.085C0.00413798 22.5456 0.164446 22.9852 0.445231 23.3072C0.726017 23.6293 1.10432 23.8074 1.49701 23.8025H18.7897C19.1832 23.8083 19.5626 23.6307 19.8445 23.3086C20.1264 22.9866 20.2877 22.5465 20.2932 22.085V1.71586C20.2876 1.25457 20.1261 0.814759 19.8442 0.493056C19.5623 0.171352 19.183 -0.00593224 18.7897 0.000151565" fill="#0A66C2"/>
</g>
<defs>
<clipPath id="clip0_1977_956">
<rect width="24" height="24" fill="white"/>
</clipPath>
</defs>
</svg>
