<svg width="197" height="54" viewBox="0 0 197 54" fill="none" xmlns="http://www.w3.org/2000/svg">
<path d="M17.536 13.0051H14.5825V19.0795H17.536V13.0051Z" fill="#005382"/>
<path d="M25.7108 13.0051H22.7573V19.0795H25.7108V13.0051Z" fill="#005382"/>
<path d="M20.1468 0C9.04497 0 0 9.17839 0 20.444V42.7879C0 48.9693 4.95759 54 11.0491 54C17.1406 54 22.0982 48.9693 22.0982 42.7879V40.8077C32.2771 39.7909 40.2673 31.0674 40.2673 20.4708C40.2936 9.17839 31.2487 0 20.1468 0ZM22.1246 36.7671V30.7998C26.924 29.8632 30.5367 25.5818 30.5367 20.444H9.75697C9.75697 25.5818 13.3697 29.8632 18.1691 30.7998V42.7879C18.1691 46.775 14.9783 50.0129 11.0491 50.0129C7.11995 50.0129 3.92916 46.775 3.92916 42.7879V20.444C3.92916 11.3726 11.2073 3.98711 20.1468 3.98711C29.0863 3.98711 36.3645 11.3726 36.3645 20.444C36.3381 28.8464 30.1147 35.777 22.1246 36.7671Z" fill="#005382"/>
<path d="M79.0383 26.579C79.0383 32.8344 73.9229 37.9499 67.6674 37.9499C65.0367 37.9499 62.5228 37.0145 60.5058 35.3775V45.0822C60.5058 45.6669 60.0381 46.1346 59.4243 46.1346H57.3489C56.7643 46.1346 56.2673 45.6961 56.2673 45.0822V16.202C56.2673 15.6466 56.735 15.1497 57.3489 15.1497H59.4243C60.0089 15.1497 60.5058 15.6174 60.5058 16.202V17.722C62.4936 16.0851 65.0367 15.1497 67.6674 15.1497C73.9229 15.2081 79.0383 20.2943 79.0383 26.579ZM74.7998 26.579C74.7998 22.6036 71.6136 19.3882 67.6382 19.3882C63.6628 19.3882 60.4766 22.6036 60.4766 26.579C60.4766 30.5544 63.6628 33.7406 67.6382 33.7406C71.6136 33.7406 74.7998 30.5544 74.7998 26.579Z" fill="#005382"/>
<path d="M103.651 16.4651V37.1022C103.651 37.6576 103.183 38.1545 102.569 38.1545H100.494C99.9093 38.1545 99.4124 37.6868 99.4124 37.1022V35.6114C97.4247 37.2484 94.8816 38.1253 92.2508 38.1253C85.9953 38.1253 80.8799 33.0391 80.8799 26.7544C80.8799 20.499 85.9953 15.4128 92.2508 15.4128C94.8816 15.4128 97.3955 16.2897 99.4124 17.9266V16.4359C99.4124 15.8512 99.8801 15.3835 100.494 15.3835H102.569C103.183 15.4128 103.651 15.8805 103.651 16.4651ZM99.4124 26.7544C99.4124 22.8375 96.2262 19.5928 92.2508 19.5928C88.2754 19.5928 85.0892 22.8082 85.0892 26.7544C85.0892 30.7298 88.2754 33.9453 92.2508 33.9453C96.2262 33.9453 99.4124 30.7298 99.4124 26.7544Z" fill="#005382"/>
<path d="M113.619 37.1021C113.619 37.6575 113.151 38.1544 112.566 38.1544H111.485C109.03 38.1837 106.954 36.3129 106.954 33.7698V9.77107V8.71875C106.954 8.13413 107.422 7.63721 108.006 7.63721H110.111C110.696 7.63721 111.163 8.1049 111.163 8.71875V9.77107V33.7698C111.163 33.9159 111.339 33.9452 111.456 33.9452H112.508C113.093 33.9452 113.59 34.3836 113.59 34.9975L113.619 37.1021Z" fill="#005382"/>
<path d="M139.722 26.579C139.722 32.8344 134.606 37.9499 128.351 37.9499C125.72 37.9499 123.206 37.0145 121.189 35.3775V45.0822C121.189 45.6669 120.722 46.1346 120.108 46.1346H118.032C117.448 46.1346 116.951 45.6961 116.951 45.0822V16.202C116.951 15.6466 117.419 15.1497 118.032 15.1497H120.108C120.692 15.1497 121.189 15.6174 121.189 16.202V17.722C123.177 16.0851 125.72 15.1497 128.351 15.1497C134.606 15.2081 139.722 20.2943 139.722 26.579ZM135.483 26.579C135.483 22.6036 132.297 19.3882 128.322 19.3882C124.346 19.3882 121.16 22.6036 121.16 26.579C121.16 30.5544 124.346 33.7406 128.322 33.7406C132.297 33.7406 135.483 30.5544 135.483 26.579Z" fill="#005382"/>
<path d="M149.31 37.1021C149.31 37.6575 148.842 38.1544 148.258 38.1544H147.176C144.721 38.1837 142.645 36.3129 142.645 33.7698V9.77107V8.71875C142.645 8.13413 143.113 7.63721 143.698 7.63721H145.802C146.387 7.63721 146.855 8.1049 146.855 8.71875V9.77107V33.7698C146.855 33.9159 147.03 33.9452 147.147 33.9452H148.199C148.784 33.9452 149.281 34.3836 149.281 34.9975L149.31 37.1021Z" fill="#005382"/>
<path d="M171.291 16.3188V37.1313C171.291 37.6867 170.824 38.1837 170.239 38.1837H168.135C167.55 38.1837 167.082 37.716 167.082 37.1313V36.0498C166.381 36.576 165.591 36.9852 164.831 37.3067C162.318 38.3883 159.628 38.5052 157.085 37.4529C155.302 36.7221 153.782 35.4944 152.788 33.8282C151.736 32.1328 151.531 30.4667 151.531 28.479C151.531 24.6497 151.531 21.1712 151.531 17.3712V16.3188C151.531 15.7342 151.999 15.2373 152.584 15.2373H154.688C155.273 15.2373 155.741 15.705 155.741 16.3188V17.3712C155.741 21.2004 155.741 24.6789 155.741 28.479C155.741 29.5897 155.77 30.6713 156.384 31.6359C156.939 32.5128 157.728 33.1559 158.693 33.5652C160.213 34.1498 161.733 34.0329 163.224 33.4482C164.919 32.7467 166.176 31.4021 166.819 29.7067L167.141 28.8882V16.3188C167.141 15.7342 167.579 15.2373 168.193 15.2373H170.298C170.824 15.2373 171.291 15.7342 171.291 16.3188Z" fill="#005382"/>
<path d="M196.138 37.3068C195.7 40.493 194.063 43.153 191.256 44.8192C188.07 46.7192 184.036 46.8069 180.616 45.4038C178.132 44.4099 176.086 42.6268 174.799 40.2591C174.624 39.9376 174.653 39.5576 174.829 39.2068C175.004 38.9145 175.355 38.6806 175.706 38.6806H178.19C178.57 38.6806 178.862 38.8268 179.038 39.1191C179.856 40.2007 180.938 41.0191 182.195 41.516C184.387 42.393 187.047 42.3637 189.123 41.136C190.73 40.2006 191.607 38.7391 191.929 36.8975C192.016 36.4591 192.046 36.0206 192.046 35.5237C190.058 37.1606 187.515 38.096 184.855 38.096C178.599 38.096 173.513 33.0098 173.513 26.7251C173.513 20.4697 178.599 15.3835 184.855 15.3835C187.515 15.3835 190.058 16.2604 192.046 17.8973V16.4066C192.046 15.8219 192.484 15.3542 193.098 15.3542H195.203C195.758 15.3542 196.255 15.7927 196.255 16.4066V34.179C196.255 35.2606 196.284 36.2252 196.138 37.3068ZM192.075 26.7544C192.075 22.8374 188.859 19.5928 184.884 19.5928C180.909 19.5928 177.722 22.8082 177.722 26.7544C177.722 30.7298 180.909 33.9452 184.884 33.9452C188.859 33.9452 192.075 30.7298 192.075 26.7544Z" fill="#005382"/>
</svg>
