<svg width="19" height="24" viewBox="0 0 19 24" fill="none" xmlns="http://www.w3.org/2000/svg">
<path d="M7.89631 5.77979H6.56641V8.47949H7.89631V5.77979Z" fill="#005382"/>
<path d="M11.5775 5.77979H10.2476V8.47949H11.5775V5.77979Z" fill="#005382"/>
<path d="M9.07185 0C4.07283 0 0 4.07929 0 9.08622V19.0168C0 21.7641 2.23234 24 4.97527 24C7.71819 24 9.95053 21.7641 9.95053 19.0168V18.1368C14.534 17.6848 18.1318 13.8077 18.1318 9.09812C18.1437 4.07929 14.0709 0 9.07185 0ZM9.96241 16.3409V13.6888C12.1235 13.2725 13.7503 11.3697 13.7503 9.08622H4.39343C4.39343 11.3697 6.02019 13.2725 8.18128 13.6888V19.0168C8.18128 20.7889 6.74451 22.2279 4.97527 22.2279C3.20602 22.2279 1.76925 20.7889 1.76925 19.0168V9.08622C1.76925 5.05451 5.04651 1.77205 9.07185 1.77205C13.0972 1.77205 16.3744 5.05451 16.3744 9.08622C16.3626 12.8206 13.5603 15.9009 9.96241 16.3409Z" fill="#005382"/>
</svg>
