<svg width="36" height="18" viewBox="0 0 36 18" fill="none" xmlns="http://www.w3.org/2000/svg">
<path fill-rule="evenodd" clip-rule="evenodd" d="M29.4724 17.1024L32.0536 0.449667C32.0932 0.191174 32.3141 0.000863082 32.5707 0H35.4767C35.7976 0 36.044 0.291721 35.9934 0.614513L33.4479 16.9673C33.3815 17.3989 33.0155 17.716 32.5843 17.716H29.9891C29.6682 17.716 29.4217 17.4252 29.4724 17.1024ZM9.70384 0.000864254H3.4131C2.98367 0.000864254 2.61765 0.318046 2.55041 0.748724L0.00662051 17.1024C-0.0440255 17.4252 0.202395 17.716 0.523721 17.716H3.75145C4.05149 17.716 4.30813 17.4942 4.35494 17.1922L5.07675 12.5565C5.14315 12.1246 5.51001 11.8078 5.93944 11.8078H7.92953C12.0736 11.8078 14.4641 9.77483 15.0893 5.7464C15.3715 3.98399 15.1004 2.59917 14.2867 1.62906C13.3933 0.564453 11.8088 0.000864254 9.70384 0.000864254ZM10.4295 5.97382C10.0865 8.26228 8.36193 8.26228 6.69359 8.26228H5.74536L6.41227 3.9883C6.45185 3.73024 6.67061 3.53993 6.92895 3.53993H7.36391C8.49897 3.53993 9.57148 3.53993 10.1248 4.1963C10.455 4.58814 10.5555 5.16986 10.4295 5.97382ZM28.5033 5.90046H25.4935C25.2347 5.90046 25.0151 6.09077 24.9764 6.34926L24.8432 7.20328L24.6316 6.89386C23.9796 5.93412 22.5266 5.61348 21.0754 5.61348C17.7468 5.61348 14.9051 8.1695 14.3514 11.7552C14.0645 13.5435 14.4718 15.2537 15.4724 16.4465C16.3921 17.543 17.7038 18 19.2661 18C21.9478 18 23.4349 16.2514 23.4349 16.2514L23.3008 17.1002C23.2502 17.4248 23.4966 17.7156 23.8196 17.7156H26.5315C26.9609 17.7156 27.327 17.3984 27.3942 16.9669L29.023 6.51411C29.0727 6.19261 28.8263 5.90046 28.5033 5.90046ZM24.3052 11.8445C24.0162 13.5892 22.6488 14.7604 20.9068 14.7604C20.0339 14.7604 19.3334 14.476 18.8844 13.937C18.4392 13.4019 18.272 12.6398 18.412 11.7914C18.6848 10.0614 20.0718 8.8522 21.787 8.8522C22.6424 8.8522 23.3374 9.14003 23.7958 9.68377C24.2563 10.2331 24.4384 10.9995 24.3052 11.8445Z" fill="#179BD7"/>
</svg>
