<svg width="46" height="22" viewBox="0 0 46 22" fill="none" xmlns="http://www.w3.org/2000/svg">
<path fill-rule="evenodd" clip-rule="evenodd" d="M9.90368 0H3.4844C3.04512 0 2.67152 0.319388 2.60302 0.753061L0.00673399 17.2205C-0.0448694 17.5455 0.206678 17.8384 0.536149 17.8384H3.60077C4.04005 17.8384 4.41366 17.519 4.48216 17.0845L5.18241 12.643C5.24995 12.208 5.62447 11.8891 6.06284 11.8891H8.09496C12.3236 11.8891 14.7639 9.84195 15.4015 5.78549C15.6886 4.01082 15.4137 2.61638 14.5827 1.63952C13.6706 0.567509 12.0521 0 9.90368 0ZM10.6443 6.0145C10.2933 8.31888 8.53333 8.31888 6.83159 8.31888H5.86289L6.54247 4.01517C6.58282 3.75531 6.80809 3.56368 7.07092 3.56368H7.5149C8.6741 3.56368 9.76773 3.56368 10.3328 4.22462C10.6695 4.61918 10.7729 5.20495 10.6443 6.0145ZM29.0925 5.94063H26.0184C25.7565 5.94063 25.5302 6.13226 25.4898 6.39255L25.3539 7.25251L25.1388 6.94094C24.4734 5.97452 22.9896 5.65166 21.5084 5.65166C18.1111 5.65166 15.21 8.22545 14.6449 11.8361C14.3512 13.6368 14.7687 15.3589 15.7899 16.56C16.7268 17.6641 18.0673 18.1243 19.6618 18.1243C22.3988 18.1243 23.917 16.3636 23.917 16.3636L23.7797 17.2183C23.728 17.5451 23.9795 17.838 24.307 17.838H27.0761C27.5166 17.838 27.888 17.5186 27.9575 17.084L29.619 6.55855C29.6715 6.23481 29.4209 5.94063 29.0925 5.94063ZM24.8074 11.926C24.5107 13.6829 23.1168 14.8622 21.3394 14.8622C20.4468 14.8622 19.7331 14.5759 19.2753 14.0331C18.8209 13.4943 18.648 12.7269 18.7927 11.8726C19.0698 10.1305 20.4872 8.91289 22.2377 8.91289C23.1103 8.91289 23.8201 9.20273 24.2875 9.75025C24.7557 10.3034 24.9416 11.0752 24.8074 11.926ZM42.3752 5.94019H45.4644C45.897 5.94019 46.1494 6.42558 45.9036 6.7806L35.6294 21.6167C35.463 21.857 35.1889 22 34.8961 22H31.8108C31.3764 22 31.1228 21.5107 31.3743 21.1548L34.5734 16.6373L31.171 6.64806C31.0533 6.30086 31.3095 5.94019 31.6787 5.94019H34.7141C35.1086 5.94019 35.4565 6.19918 35.5703 6.5768L37.376 12.61L41.6367 6.33171C41.8035 6.08663 42.0807 5.94019 42.3752 5.94019Z" fill="#253B80"/>
</svg>
