<svg width="24" height="24" viewBox="0 0 24 24" fill="none" xmlns="http://www.w3.org/2000/svg">
<g clip-path="url(#clip0_1977_823)">
<path d="M6.81817 23.1865L7.30894 20.5444L6.21574 20.523H0.995605L4.62333 1.0276C4.63459 0.968743 4.67119 0.913867 4.72468 0.874896C4.77816 0.835926 4.84666 0.814453 4.91798 0.814453H13.7199C16.6419 0.814453 18.6585 1.32981 19.7113 2.34701C20.2049 2.8242 20.5193 3.32285 20.6713 3.87162C20.8308 4.44742 20.8336 5.13536 20.6779 5.97441L20.6666 6.03565V6.57328L21.1602 6.81028C21.5759 6.99717 21.9062 7.21111 22.1595 7.45607C22.5818 7.86406 22.8549 8.3826 22.9703 8.99737C23.0895 9.62964 23.05 10.382 22.8549 11.2338C22.6297 12.2136 22.2656 13.067 21.7739 13.7652C21.3216 14.4086 20.7454 14.9423 20.0613 15.3559C19.4082 15.7487 18.6322 16.047 17.7548 16.2379C16.9047 16.4255 15.9353 16.5202 14.8722 16.5202H14.1872C13.6973 16.5202 13.2216 16.6697 12.8481 16.9377C12.4737 17.2113 12.226 17.5851 12.15 17.9939L12.0984 18.2317L11.2313 22.8882L11.1919 23.0592C11.1816 23.1133 11.1637 23.1403 11.1375 23.1586C11.114 23.1753 11.0802 23.1865 11.0474 23.1865H6.81817Z" fill="#253B80"/>
<path d="M21.6272 6.09766C21.6009 6.24002 21.5709 6.38556 21.5371 6.53508C20.3763 11.5861 16.4052 13.331 11.3333 13.331H8.75092C8.13066 13.331 7.60799 13.7127 7.51134 14.2313L6.18918 21.3381L5.81477 23.3526C5.7519 23.693 6.06156 24 6.46694 24H11.0471C11.5895 24 12.0502 23.666 12.1356 23.2127L12.1807 23.0154L13.043 18.3772L13.0984 18.1227C13.1828 17.6678 13.6445 17.3338 14.1869 17.3338H14.8719C19.3094 17.3338 22.7833 15.8068 23.7986 11.388C24.2227 9.54213 24.0031 8.00083 22.8808 6.91682C22.5412 6.58995 22.1198 6.31875 21.6272 6.09766Z" fill="#179BD7"/>
<path d="M20.4133 5.6871C20.236 5.64336 20.053 5.60359 19.8653 5.5678C19.6767 5.53281 19.4834 5.50179 19.2845 5.47475C18.5882 5.37932 17.8253 5.33398 17.008 5.33398H10.1091C9.93927 5.33398 9.77787 5.36659 9.63337 5.42544C9.31526 5.55508 9.07879 5.81037 9.02155 6.12293L7.55395 14.0012L7.51172 14.2311C7.60837 13.7126 8.13104 13.3308 8.7513 13.3308H11.3337C16.4056 13.3308 20.3767 11.5851 21.5375 6.5349C21.5722 6.38538 21.6013 6.23984 21.6276 6.09748C21.3339 5.96546 21.0158 5.85253 20.6733 5.75629C20.5888 5.73243 20.5015 5.70937 20.4133 5.6871Z" fill="#222D65"/>
<path d="M9.02145 6.12307C9.07869 5.81052 9.31516 5.55522 9.63326 5.42638C9.77871 5.36753 9.93917 5.33492 10.109 5.33492H17.0079C17.8252 5.33492 18.5881 5.38026 19.2844 5.47569C19.4833 5.50273 19.6766 5.53375 19.8652 5.56874C20.0529 5.60453 20.2359 5.6443 20.4132 5.68804C20.5014 5.71031 20.5887 5.73337 20.6741 5.75644C21.0166 5.85267 21.3347 5.9664 21.6284 6.09762C21.9737 4.23104 21.6256 2.96014 20.4348 1.80932C19.122 0.5424 16.7527 0 13.7208 0H4.91891C4.29959 0 3.77129 0.381748 3.67557 0.901084L0.00937318 20.5969C-0.0628811 20.9866 0.291822 21.3381 0.755375 21.3381H6.18946L7.55384 14.0014L9.02145 6.12307Z" fill="#253B80"/>
</g>
<defs>
<clipPath id="clip0_1977_823">
<rect width="24" height="24" fill="white"/>
</clipPath>
</defs>
</svg>
