<svg width="140" height="127" viewBox="0 0 140 127" fill="none" xmlns="http://www.w3.org/2000/svg">
<path d="M136.351 102.247L4.36491 101.858C2.14686 101.858 0.549479 100.437 0.570881 98.2173L1.11567 21.4388L0.337402 4.63474C0.337402 2.46999 2.09238 1.49271 4.25596 1.49271L126.5 1.35645L136.349 2.27139V102.247H136.351Z" fill="white"/>
<path d="M89.5711 126.201H39.377C38.4762 126.201 37.7466 125.471 37.7466 124.57V123.246C37.7466 122.345 38.4762 121.615 39.377 121.615H58.2421C61.1023 121.615 63.4215 119.294 63.4215 116.432V98.8477H92.797V122.973C92.797 124.757 91.3533 126.201 89.5711 126.201Z" fill="white"/>
<path d="M30.4736 126.846C31.1876 126.846 31.9017 126.844 32.6157 126.842C34.3863 126.84 36.1568 126.836 37.9274 126.832C40.4879 126.828 43.0464 126.824 45.6069 126.818C48.718 126.812 51.8291 126.809 54.9402 126.803C58.3257 126.797 61.7111 126.791 65.0965 126.785C68.5131 126.779 71.9277 126.773 75.3443 126.768C78.5372 126.762 81.728 126.756 84.9209 126.752C87.635 126.748 90.3492 126.742 93.0634 126.738C95.0461 126.735 97.0287 126.733 99.0094 126.729C100.007 126.729 101.004 126.725 102.002 126.725C102.066 126.725 102.128 126.725 102.192 126.725C102.724 126.725 102.724 125.899 102.192 125.899C101.478 125.899 100.764 125.901 100.05 125.903C98.2797 125.905 96.5092 125.909 94.7386 125.913C92.1781 125.917 89.6196 125.921 87.0591 125.927C83.948 125.933 80.8369 125.936 77.7258 125.942C74.3404 125.948 70.9549 125.954 67.5695 125.96C64.1529 125.966 60.7383 125.971 57.3217 125.977C54.1289 125.983 50.938 125.989 47.7452 125.993C45.031 125.997 42.3168 126.003 39.6026 126.006C37.62 126.01 35.6373 126.012 33.6567 126.016C32.6585 126.016 31.6624 126.02 30.6642 126.02C30.6 126.02 30.5378 126.02 30.4736 126.02C29.9424 126.02 29.9424 126.846 30.4736 126.846Z" fill="#181755"/>
<path d="M1.03988 85.5284H135.512C136.076 85.5284 136.076 84.6523 135.512 84.6523H1.03988C0.475639 84.6523 0.475639 85.5284 1.03988 85.5284Z" fill="#181755"/>
<path d="M131.963 5.19115L4.37451 4.52539C4.37451 4.52539 4.91735 73.8305 4.97961 80.5856C4.98934 81.7439 5.7248 81.5882 6.8241 81.9541C7.92339 82.3201 131.965 81.6797 131.965 81.6797V5.19115H131.963Z" fill="#181755"/>
<path d="M135.681 10.2256C135.802 7.49046 136.615 3.82286 133.817 2.16426C136.388 1.86057 139.567 2.49909 139.561 5.75594C139.561 5.82603 139.4 99.3892 139.4 99.3892C139.396 101.044 138.055 102.383 136.401 102.383H134.096C133.93 102.383 133.763 102.37 133.6 102.372C133.417 102.374 133.247 102.414 133.07 102.333C133.21 102.142 133.629 102.093 133.831 101.961C134.166 101.741 134.493 101.474 134.781 101.196C135.39 100.61 135.512 99.8934 135.512 99.1011C135.512 98.7701 135.512 98.4372 135.512 98.1063C135.512 97.6585 135.512 97.2108 135.512 96.7611C135.512 96.2043 135.512 95.6476 135.512 95.0908C135.512 94.4328 135.512 93.7768 135.512 93.1188C135.512 92.3693 135.512 91.6179 135.512 90.8684C135.512 90.0332 135.512 89.1981 135.512 88.3629C135.512 87.4499 135.512 86.5389 135.512 85.6259C135.512 84.6447 135.512 83.6616 135.512 82.6805C135.512 81.637 135.512 80.5936 135.512 79.5502C135.512 78.4522 135.512 77.3562 135.512 76.2583C135.512 75.1603 135.512 73.9728 135.512 72.8301C135.512 71.6874 135.512 70.4687 135.514 69.287C135.516 68.1054 135.514 66.8653 135.516 65.6545C135.518 64.4436 135.516 63.188 135.518 61.9538C135.52 60.7196 135.52 59.4581 135.522 58.2102C135.522 56.9566 135.524 55.7009 135.526 54.4472C135.528 53.1935 135.528 51.9399 135.53 50.6881C135.532 49.4364 135.532 48.2002 135.534 46.9563C135.534 45.7298 135.537 44.5015 135.539 43.275C135.541 42.0486 135.543 40.8689 135.545 39.6678C135.547 38.4666 135.549 37.3278 135.551 36.1578C135.553 34.9878 135.555 33.8977 135.557 32.7686C135.559 31.6862 135.561 30.6058 135.565 29.5234C135.567 28.4975 135.57 27.4716 135.572 26.4476C135.574 25.4859 135.578 24.5242 135.58 23.5626C135.582 22.6729 135.586 21.7833 135.59 20.8936C135.594 20.0838 135.596 19.272 135.6 18.4622C135.604 17.7399 135.606 17.0157 135.609 16.2935C135.613 15.6667 135.617 15.0379 135.621 14.411C135.625 13.8854 135.629 13.3617 135.633 12.8381C135.637 12.4234 135.641 12.0107 135.646 11.5961C135.65 11.3002 135.654 11.0062 135.66 10.7103C135.664 10.5507 135.666 10.3891 135.674 10.2295L135.681 10.2256Z" fill="#181755"/>
<path d="M132.588 2.26178C133.541 2.26762 134.495 2.27538 135.448 2.28122C136.016 2.28511 136.559 2.3124 137.088 2.55379C137.872 2.91199 138.501 3.58942 138.839 4.37784C139.123 5.04167 139.121 5.69578 139.119 6.38882C139.115 8.29076 139.114 10.1947 139.11 12.0966C139.104 15.5481 139.098 18.9997 139.092 22.4512C139.084 26.9539 139.077 31.4567 139.069 35.9594C139.059 41.0112 139.051 46.0629 139.042 51.1147C139.032 56.1664 139.024 61.3447 139.014 66.4587C139.006 71.1152 138.999 75.7699 138.991 80.4264C138.985 84.1057 138.977 87.7869 138.971 91.4662C138.968 93.6855 138.964 95.9047 138.96 98.124C138.96 98.5289 138.964 98.9338 138.958 99.3388C138.944 100.298 138.469 101.178 137.611 101.642C136.734 102.115 135.537 101.947 134.574 101.947H131.961C131.397 101.947 131.397 102.823 131.961 102.823H134.769C135.802 102.823 136.915 102.942 137.876 102.487C139.242 101.838 139.833 100.489 139.835 99.0526C139.839 97.3375 139.841 95.6225 139.845 93.9074C139.851 90.5338 139.857 87.1601 139.863 83.7864C139.87 79.2798 139.878 74.775 139.886 70.2684L139.913 54.9341C139.923 49.7266 139.931 44.5211 139.94 39.3136C139.948 34.587 139.956 29.8604 139.966 25.1338C139.972 21.3552 139.979 17.5766 139.985 13.7961C139.989 11.5379 139.993 9.27969 139.997 7.0215C139.997 6.61269 140.003 6.20582 139.999 5.79701C139.989 4.7925 139.67 3.83278 139.051 3.03852C138.123 1.84713 136.847 1.41688 135.388 1.40715C134.456 1.40131 133.522 1.39355 132.59 1.38771C132.025 1.38381 132.025 2.25984 132.59 2.26373L132.588 2.26178Z" fill="#181755"/>
<path d="M1.56903 24.8007C1.48147 20.6834 1.30636 16.5719 1.13515 12.4585C1.03786 10.1283 0.97171 7.79615 0.919178 5.46203C0.886101 4.02146 0.660406 2.26747 2.42317 1.85671C3.11388 1.69708 3.84545 1.71848 4.54977 1.69901C5.40392 1.67371 6.25806 1.64842 7.11221 1.62506C20.6423 1.23961 34.1763 1.00208 47.7122 0.91448C61.0594 0.828825 74.4086 0.89115 87.7539 1.09166C101.331 1.29412 114.906 1.64063 128.476 2.10784C129.286 2.1351 130.095 2.16429 130.903 2.19349C131.698 2.22074 132.547 2.18373 133.327 2.36672C134.864 2.72687 135.177 4.20638 135.191 5.5866C135.207 7.16929 135.191 8.75394 135.191 10.3366C135.191 14.0977 135.193 17.8607 135.195 21.6217C135.199 30.5805 135.205 39.5413 135.212 48.5001C135.22 57.4589 135.226 66.4352 135.234 75.4018C135.24 82.1102 135.245 88.8166 135.251 95.525C135.251 96.6229 135.315 97.7423 135.251 98.8402C135.179 100.055 134.428 101.157 133.315 101.655C132.681 101.939 132.021 101.936 131.344 101.934C129.63 101.926 127.916 101.92 126.202 101.912C121.065 101.891 115.929 101.871 110.792 101.85C104.093 101.823 97.3946 101.797 90.6937 101.77C83.2302 101.741 75.7647 101.712 68.3012 101.682C60.9369 101.653 53.5726 101.626 46.2063 101.597C39.8031 101.572 33.4019 101.548 26.9988 101.523C22.3584 101.505 17.718 101.488 13.0756 101.468C11.0638 101.461 9.05203 101.461 7.04022 101.445C5.99734 101.437 4.94669 101.424 3.90771 101.32C2.94072 101.225 1.82196 101.056 1.43672 100.036C0.913341 98.6495 1.14487 96.876 1.15071 95.4315C1.1546 94.3531 1.1546 93.2746 1.15849 92.1942C1.18184 86.0445 1.23632 79.8928 1.28302 73.7432C1.34139 65.9135 1.39976 58.0838 1.44061 50.2541C1.47174 44.0616 1.5126 37.8671 1.46007 31.6746C1.4484 30.2574 1.45813 28.8324 1.36863 27.4152C1.3336 26.8545 0.458058 26.8506 0.49308 27.4152C0.763526 31.7077 0.609819 36.0567 0.602036 40.3531C0.588417 47.992 0.537829 55.6309 0.483351 63.2698C0.430818 70.6498 0.372449 78.0298 0.321862 85.4079C0.304351 87.9542 0.28684 90.5005 0.279057 93.0488C0.275166 94.4523 0.259601 95.8559 0.27322 97.2595C0.282949 98.4431 0.216796 99.9226 0.928907 100.945C1.61961 101.932 2.91931 102.107 4.03028 102.206C5.03424 102.296 6.04599 102.311 7.05189 102.319C7.70952 102.325 8.36716 102.325 9.02479 102.327C12.5659 102.34 16.107 102.354 19.6481 102.368C25.4267 102.389 31.2072 102.412 36.9858 102.434C44.1497 102.461 51.3136 102.488 58.4776 102.518C66.1006 102.547 73.7218 102.576 81.3449 102.607C88.5691 102.634 95.7933 102.664 103.018 102.693C108.983 102.716 114.948 102.74 120.912 102.765C123.124 102.775 125.334 102.782 127.546 102.792C128.428 102.796 129.309 102.8 130.191 102.804C131.158 102.808 132.22 102.921 133.154 102.642C135.183 102.039 136.129 100.205 136.127 98.2037C136.127 97.0493 136.125 95.8948 136.123 94.7404C136.121 91.6568 136.117 88.5752 136.115 85.4916C136.107 77.0837 136.1 68.6739 136.094 60.266C136.086 50.8809 136.08 41.4977 136.074 32.1126C136.068 24.1388 136.065 16.1631 136.065 8.18939C136.065 6.41593 136.409 4.15189 135.31 2.63734C134.551 1.59001 133.292 1.40895 132.086 1.35834C130.344 1.28631 128.601 1.23376 126.86 1.17536C120.001 0.943698 113.141 0.74512 106.28 0.577702C92.6433 0.248707 79.0042 0.0540501 65.3632 0.00927563C51.7495 -0.0335522 38.1338 0.0715535 24.5219 0.332414C17.5935 0.464791 10.663 0.601087 3.73844 0.846374C2.65081 0.885308 1.41338 0.988494 0.65846 1.87814C-0.211248 2.90406 0.0202845 4.47505 0.0494694 5.71122C0.102002 8.02781 0.1701 10.3424 0.267383 12.6571C0.440546 16.7043 0.607873 20.7477 0.693482 24.7988C0.705156 25.3614 1.5807 25.3633 1.56903 24.7988V24.8007Z" fill="#181755"/>
<path d="M131.963 81.217H5.9699C5.56715 81.217 5.12354 81.1644 4.72274 81.217C4.67215 81.2228 4.61767 81.217 4.56708 81.217L5.03015 81.6804C5.01069 79.5662 5.00875 77.4521 5.00097 75.3379C4.98929 71.5165 4.98151 67.6951 4.97178 63.8737C4.96205 59.04 4.95232 54.2044 4.94259 49.3707C4.93287 44.2703 4.92314 39.1718 4.91341 34.0714C4.90368 29.4577 4.8959 24.8439 4.88423 20.2302C4.87644 16.7904 4.86866 13.3505 4.85504 9.91067C4.85115 8.86917 4.84726 7.82771 4.84142 6.78427C4.83948 6.35405 4.81029 5.91016 4.84531 5.48188C4.85309 5.37871 4.86282 5.26972 4.88812 5.16849C4.90757 5.09646 5.06128 4.76746 5.06128 4.77719C5.06128 4.77135 4.85893 4.80058 4.86477 4.79863C4.87255 4.79668 4.88034 4.79863 4.88617 4.79863C4.91147 4.79084 4.95038 4.79473 4.97567 4.79668C5.91153 4.84146 6.86296 4.79279 7.80077 4.79668C9.84954 4.80252 11.9003 4.81418 13.949 4.82391C16.8948 4.83949 19.8385 4.85701 22.7843 4.87453C26.4538 4.89789 30.1252 4.92127 33.7948 4.94463C37.9818 4.97189 42.1689 5.00108 46.3559 5.03028C50.8407 5.06143 55.3254 5.09257 59.8101 5.12372C64.4369 5.15681 69.0656 5.18991 73.6924 5.223C78.2238 5.2561 82.7553 5.28919 87.2887 5.32229C91.5691 5.35343 95.8515 5.38458 100.132 5.41767C103.943 5.44493 107.757 5.47412 111.569 5.50332C114.701 5.52668 117.834 5.55006 120.968 5.57342C123.254 5.59094 125.54 5.60846 127.824 5.62598C129.046 5.63572 130.268 5.64348 131.492 5.65322C131.648 5.65322 131.805 5.65517 131.961 5.65712L131.498 5.19377V78.5831C131.498 79.5681 131.441 80.5707 131.498 81.5538C131.5 81.5966 131.498 81.6395 131.498 81.6823C131.498 82.278 132.424 82.2799 132.424 81.6823V8.29298C132.424 7.30794 132.48 6.30538 132.424 5.32229C132.422 5.27946 132.424 5.2366 132.424 5.19377C132.424 4.94265 132.212 4.73242 131.961 4.73048C131.311 4.72464 130.661 4.72073 130.011 4.71489C128.196 4.70126 126.381 4.68764 124.566 4.67401C121.799 4.6526 119.034 4.63312 116.267 4.6117C112.724 4.58445 109.183 4.55916 105.64 4.53191C101.533 4.50076 97.4236 4.47156 93.3144 4.44042C88.8413 4.40732 84.3663 4.37423 79.8932 4.34308C75.2548 4.30999 70.6144 4.27689 65.9759 4.2438C61.392 4.2107 56.808 4.17955 52.224 4.14646C47.8541 4.11531 43.4822 4.08612 39.1122 4.05692C35.1762 4.02966 31.2401 4.00433 27.3021 3.97902C24.0003 3.95761 20.6985 3.93818 17.3967 3.91871C14.9297 3.90508 12.4626 3.89142 9.99547 3.87974C8.56735 3.8739 7.13924 3.86615 5.71113 3.86809C5.44847 3.86809 5.16829 3.84279 4.90563 3.87394C3.72656 4.01216 3.90556 5.80504 3.9114 6.70443C3.92696 9.25073 3.9328 11.797 3.94058 14.3433C3.95226 18.4782 3.96004 22.613 3.96977 26.7459C3.97949 31.7256 3.98922 36.7034 3.99895 41.6831C4.00868 46.7426 4.01841 51.8002 4.02814 56.8597C4.03592 61.3041 4.04565 65.7484 4.05732 70.1928C4.0651 73.2569 4.07289 76.3191 4.08651 79.3832C4.0904 80.1483 4.09234 80.9153 4.10013 81.6804C4.10207 81.9315 4.31026 82.1436 4.56319 82.1436H131.959C132.554 82.1436 132.556 81.217 131.959 81.217H131.963Z" fill="#181755"/>
<path d="M60.4232 74.7687C64.19 74.7726 67.9568 74.7746 71.7256 74.7765C75.7803 74.7765 79.8351 74.7765 83.8918 74.7804C85.9211 74.7804 87.9485 74.7804 89.9778 74.7824C90.5226 74.7824 90.5226 73.9355 89.9778 73.9355C86.1876 73.9336 82.3975 73.9316 78.6073 73.9316C74.5584 73.9316 70.5095 73.9316 66.4606 73.9277C64.4488 73.9277 62.435 73.9258 60.4232 73.9238C59.8785 73.9238 59.8785 74.7707 60.4232 74.7707V74.7687Z" fill="#181755"/>
<path d="M94.6821 74.7868C95.7425 74.7868 96.8029 74.7907 97.8652 74.7965C98.159 74.7965 98.4373 74.7751 98.6707 74.5746C98.9237 74.3585 99.0346 74.0295 99.1455 73.7278C99.3848 73.0834 99.5716 72.4196 99.7078 71.7441C99.9374 70.6091 100.089 69.4158 99.9354 68.2614C99.809 67.3095 99.5696 66.3088 99.0754 65.4756C98.877 65.1408 98.6455 64.7807 98.2349 64.7417C98.1221 64.73 98.0092 64.7281 97.8944 64.7222C97.4216 64.7047 96.9469 64.6969 96.4722 64.6892C94.688 64.66 92.9058 64.6502 91.1216 64.6385C88.5631 64.623 86.0045 64.6152 83.446 64.6094C80.5217 64.6035 77.5973 64.5996 74.673 64.5996C71.774 64.5996 68.8769 64.6035 65.9779 64.6113C63.4971 64.6171 61.0184 64.6269 58.5377 64.6444C56.8858 64.6561 55.2339 64.6658 53.5801 64.6969C53.191 64.7047 52.8019 64.7086 52.4127 64.732C52.3135 64.7378 52.2007 64.7378 52.1053 64.7651C51.7921 64.8565 51.5625 65.2615 51.4088 65.5224C51.1558 65.9487 50.973 66.4198 50.8251 66.8909C50.5274 67.8312 50.3854 68.7928 50.4243 69.7779C50.4632 70.7629 50.6033 71.8492 50.9438 72.8225C51.1383 73.3793 51.3913 73.9263 51.7668 74.3858C51.8524 74.4889 51.9477 74.5999 52.0645 74.668C52.224 74.7615 52.4419 74.7381 52.6209 74.74C53.5938 74.7517 54.5646 74.7517 55.5375 74.7556C56.0822 74.7556 56.0822 73.9107 55.5375 73.9088C54.5549 73.9068 53.5704 73.9069 52.5878 73.8932C52.5061 73.8932 52.4205 73.8835 52.3388 73.8874C52.2863 73.8913 52.2376 73.8543 52.403 73.8991C52.4536 73.9127 52.5314 73.9458 52.545 73.9769C52.5295 73.9438 52.4633 73.8991 52.44 73.8718C52.4186 73.8484 52.3991 73.8232 52.3797 73.7998C52.3602 73.7784 52.3135 73.7122 52.3913 73.8173C52.3738 73.7939 52.3563 73.7725 52.3408 73.7492C51.9886 73.2391 51.7999 72.7758 51.6325 72.1899C51.3465 71.1912 51.2298 70.1225 51.2629 69.0849C51.2901 68.2127 51.5255 67.2997 51.8641 66.4977C52.0139 66.1395 52.2065 65.8144 52.4478 65.534C52.4925 65.4815 52.6015 65.4348 52.4302 65.536C52.4633 65.5165 52.296 65.5885 52.333 65.5769C52.3349 65.5769 52.3388 65.5769 52.3408 65.5749C52.4108 65.5535 52.2084 65.5808 52.2649 65.5847C52.5373 65.6022 52.8311 65.5554 53.1035 65.5496C54.5335 65.5145 55.9636 65.5048 57.3936 65.4951C59.6778 65.4776 61.962 65.4678 64.2443 65.46C67.013 65.4503 69.7816 65.4464 72.5484 65.4445C75.4318 65.4425 78.3153 65.4445 81.1987 65.4484C83.8273 65.4522 86.4578 65.4601 89.0864 65.4717C91.0963 65.4815 93.1062 65.4931 95.116 65.5146C96.1239 65.5262 97.1415 65.5107 98.1474 65.5769C98.1824 65.5788 98.2252 65.5905 98.2583 65.5866C98.2836 65.5846 98.1123 65.5574 98.1785 65.5769C98.1804 65.5769 98.1843 65.5769 98.1863 65.5788C98.2232 65.5905 98.0559 65.5184 98.089 65.5379C98.0053 65.4892 97.9917 65.4445 98.0715 65.536C98.6299 66.1648 98.875 67.1089 99.0307 67.9382C99.2214 68.9466 99.1513 69.9726 98.9859 70.981C98.877 71.6467 98.7213 72.3066 98.5151 72.9491C98.4275 73.2236 98.3439 73.5117 98.2155 73.7725C98.1688 73.8679 98.1474 73.9205 98.052 73.9419C97.9567 73.9633 97.8341 73.9419 97.7388 73.9419C96.7192 73.9361 95.6997 73.9341 94.6802 73.9322C94.1354 73.9322 94.1354 74.779 94.6802 74.779L94.6821 74.7868Z" fill="#181755"/>
<path d="M95.9314 74.5823C96.6902 73.4143 97.0697 72.036 97.237 70.6635C97.4043 69.2911 97.3459 67.9362 96.9977 66.6358C96.8342 66.0284 96.5969 65.421 96.2311 64.9051C96.1027 64.7221 95.8692 64.6365 95.6649 64.7572C95.4839 64.8624 95.3867 65.1407 95.517 65.3237C96.1357 66.1997 96.3731 67.321 96.4568 68.3742C96.5618 69.6766 96.447 71.0042 96.0774 72.2598C95.8789 72.9334 95.6007 73.5778 95.2174 74.1676C94.9255 74.6154 95.6435 75.032 95.9314 74.5862V74.5823Z" fill="#181755"/>
<path d="M88.3082 65.1778C89.2966 68.0161 89.2382 71.1367 88.1525 73.938C88.0708 74.1522 88.244 74.4033 88.4483 74.4597C88.6876 74.5259 88.886 74.378 88.9697 74.1638C90.104 71.2379 90.1566 67.9168 89.1254 64.952C88.9464 64.44 88.1292 64.66 88.3082 65.1778Z" fill="#181755"/>
<path d="M54.8821 74.1637C54.1933 73.1028 53.8256 71.8452 53.6816 70.5954C53.5376 69.3456 53.5746 68.0666 53.8995 66.8557C54.0454 66.3107 54.2536 65.7851 54.5824 65.3217C54.7108 65.1388 54.6155 64.8604 54.4346 64.7553C54.2264 64.6346 53.9987 64.7202 53.8684 64.9032C53.1777 65.8785 52.9228 67.1361 52.8197 68.3061C52.699 69.696 52.8294 71.1366 53.2244 72.4759C53.4423 73.2137 53.7477 73.934 54.168 74.5823C54.4579 75.0281 55.1739 74.6134 54.8821 74.1637Z" fill="#181755"/>
<path d="M60.8824 7.37205C60.8279 6.68291 60.7754 5.9918 60.7209 5.30266C60.7034 5.07489 60.3474 5.07489 60.3649 5.30266C60.4194 5.9918 60.4719 6.68291 60.5264 7.37205C60.5439 7.59981 60.8999 7.59981 60.8824 7.37205Z" fill="#181755"/>
<path d="M108.843 40.1061C109.11 40.1061 109.327 39.6136 109.327 39.0062C109.327 38.3987 109.11 37.9062 108.843 37.9062C108.575 37.9062 108.358 38.3987 108.358 39.0062C108.358 39.6136 108.575 40.1061 108.843 40.1061Z" fill="#181755"/>
<path d="M108.843 42.4773C109.056 42.4773 109.228 42.1278 109.228 41.6967C109.228 41.2655 109.056 40.916 108.843 40.916C108.63 40.916 108.458 41.2655 108.458 41.6967C108.458 42.1278 108.63 42.4773 108.843 42.4773Z" fill="#181755"/>
<path d="M107.407 41.3093C107.65 41.3093 107.847 40.9589 107.847 40.5267C107.847 40.0945 107.65 39.7441 107.407 39.7441C107.164 39.7441 106.967 40.0945 106.967 40.5267C106.967 40.9589 107.164 41.3093 107.407 41.3093Z" fill="#181755"/>
<path d="M88.6351 13.9589C88.4386 15.2223 85.7847 21.3603 75.2665 21.3603C63.3299 21.3603 62.7734 13.9258 62.7734 13.9258C62.7734 13.9258 66.3379 15.4578 75.2665 15.4578C84.7769 15.4578 88.6351 13.9589 88.6351 13.9589Z" fill="#181755"/>
<path d="M88.2267 13.8464C88.1975 14.0293 88.1431 14.2104 88.0808 14.3856C88.0613 14.4421 88.0399 14.5004 88.0166 14.5569C88.0049 14.5861 87.9932 14.6133 87.9816 14.6425C87.9524 14.7185 88.0244 14.5433 87.9913 14.6192C87.9816 14.6387 87.9738 14.66 87.966 14.6795C87.9037 14.8177 87.8395 14.954 87.7695 15.0864C87.5983 15.4154 87.4037 15.7327 87.1916 16.0364C87.1333 16.1201 87.0729 16.2019 87.0107 16.2836C86.9951 16.3051 86.9776 16.3284 86.9601 16.3498C87.0126 16.2797 86.9757 16.3284 86.964 16.344C86.9212 16.3985 86.8784 16.451 86.8356 16.5036C86.6916 16.6808 86.5398 16.852 86.3842 17.0175C84.6156 18.8961 82.1602 20.0018 79.6094 20.5275C77.6929 20.9226 75.7123 21.0064 73.7627 20.8954C72.1147 20.802 70.4687 20.5372 68.9083 19.9863C68.311 19.7741 67.7603 19.5307 67.1961 19.2173C66.9451 19.0772 66.7 18.9272 66.4626 18.7676C66.2252 18.608 66.0501 18.4776 65.8731 18.3355C65.5034 18.0337 65.1551 17.7028 64.8419 17.3446C64.7757 17.2687 64.7096 17.1908 64.6473 17.1129C64.6123 17.0701 64.5792 17.0273 64.5461 16.9844C64.6123 17.0681 64.5033 16.928 64.4858 16.9046C64.3671 16.745 64.2562 16.5815 64.1512 16.4141C63.9644 16.1182 63.799 15.8086 63.655 15.4894C63.6394 15.4563 63.6258 15.4232 63.6122 15.3901C63.5733 15.3044 63.6453 15.4738 63.6044 15.3726C63.5772 15.3025 63.548 15.2344 63.5227 15.1643C63.476 15.0378 63.4313 14.9092 63.3923 14.7807C63.332 14.5861 63.2814 14.3895 63.2406 14.189C63.227 14.1228 63.2172 14.0585 63.2056 13.9924C63.1958 13.9398 63.2036 13.8385 63.2095 14.0215C63.2095 14.0079 63.1978 13.9807 63.2036 13.967C63.2075 13.9573 63.1997 13.9359 63.1997 13.9262C62.9876 14.0488 62.7756 14.1695 62.5635 14.2921C63.1803 14.5569 63.8399 14.7223 64.4916 14.8742C66.4879 15.3414 68.5386 15.5809 70.5796 15.7249C73.7685 15.9507 76.9828 15.9371 80.1717 15.7347C82.2905 15.6003 84.4132 15.3765 86.4951 14.956C87.2422 14.8041 88.0108 14.6484 88.7268 14.3778C88.7345 14.3739 88.7443 14.372 88.752 14.3681C88.9661 14.2863 89.112 14.0839 89.0478 13.8464C88.9914 13.6419 88.7423 13.4667 88.5263 13.5505C87.9679 13.7665 87.3667 13.8989 86.783 14.0293C84.9424 14.4381 83.0921 14.662 81.2146 14.8139C78.0762 15.065 74.9087 15.1098 71.7645 14.9501C69.5834 14.8392 67.3946 14.6289 65.2543 14.1773C64.4605 14.0099 63.6803 13.8035 62.9176 13.531C62.8417 13.5037 62.976 13.5563 62.9877 13.5601C62.723 13.4472 62.3242 13.5699 62.3514 13.9262C62.4176 14.7827 62.7581 15.6431 63.1589 16.3907C64.1356 18.2089 65.8011 19.5658 67.6689 20.397C69.1457 21.0531 70.7177 21.421 72.3171 21.6157C74.3406 21.8629 76.4146 21.8513 78.4342 21.5807C81.3449 21.1913 84.2342 20.1693 86.4309 18.1642C87.5438 17.148 88.5925 15.7989 88.9914 14.3155C89.0128 14.2357 89.0322 14.1559 89.0439 14.0741C89.0789 13.8483 88.9855 13.6186 88.7482 13.5524C88.5478 13.4979 88.2637 13.6205 88.2267 13.8483V13.8464Z" fill="#181755"/>
<path d="M96.0716 81.5125C96.0755 79.044 96.3168 76.5834 96.4452 74.1208C96.4724 73.6069 95.6728 73.6069 95.6455 74.1208C95.5171 76.5853 95.2759 79.044 95.272 81.5125C95.272 82.0264 96.0716 82.0284 96.0716 81.5125Z" fill="#181755"/>
<path d="M88.567 81.5128C88.6429 79.0054 88.8472 76.5039 88.925 73.9965C88.9406 73.4807 88.1409 73.4826 88.1253 73.9965C88.0475 76.5039 87.8412 79.0054 87.7673 81.5128C87.7517 82.0287 88.5514 82.0267 88.567 81.5128Z" fill="#181755"/>
<path d="M55.0357 81.5125C55.0318 79.044 54.7906 76.5834 54.6622 74.1208C54.6349 73.6088 53.8353 73.6049 53.8625 74.1208C53.9909 76.5853 54.2322 79.044 54.2361 81.5125C54.2361 82.0264 55.0357 82.0284 55.0357 81.5125Z" fill="#181755"/>
<path d="M62.5383 81.5121C62.4663 79.1293 62.2542 76.7543 62.1803 74.3735C62.1647 73.8596 61.365 73.8576 61.3806 74.3735C61.4565 76.7563 61.6666 79.1313 61.7386 81.5121C61.7542 82.026 62.5538 82.028 62.5383 81.5121Z" fill="#181755"/>
<path d="M64.6338 64.4535C64.7544 64.9091 65.1533 65.1972 65.4043 65.8941C65.3848 65.0414 66.2175 64.5314 66.595 64.4847C67.0503 64.4282 67.5503 64.4847 68.0095 64.4847H82.8043C83.2615 64.4847 83.9191 64.3601 84.3297 64.5606C84.7285 64.7553 85.0632 65.4035 85.1021 66.0946C85.322 65.2264 85.3492 64.5586 85.3453 64.2822C85.3414 63.8968 85.4854 63.1044 85.2558 62.7715C84.964 62.3491 84.3472 62.7365 83.888 62.758C83.1117 62.7949 82.3237 62.758 81.5454 62.758C79.2768 62.758 77.0082 62.758 74.7395 62.758C71.2977 62.758 67.8558 62.758 64.4139 62.758C64.4022 62.758 64.3906 62.758 64.377 62.758C64.4236 63.3517 64.4917 63.9104 64.6338 64.4535Z" fill="#181755" stroke="#181755" stroke-width="0.5" stroke-miterlimit="10"/>
<path d="M80.0706 30.4931C77.8039 30.5476 75.5372 30.5242 73.2705 30.5437C72.2413 30.5534 71.212 30.5592 70.1828 30.6118C69.566 30.6429 68.8558 30.678 68.3305 31.0479C67.7351 31.4684 67.5581 32.177 67.4861 32.8661C67.4297 33.4073 67.4491 33.9543 67.4569 34.4974C67.4647 35.1768 67.4725 35.8543 67.4783 36.5337C67.4997 38.9554 67.5016 41.3752 67.4958 43.7969C67.49 45.9656 67.4783 48.1323 67.4744 50.3009C67.4744 50.8421 67.3946 51.4631 67.5697 51.9829C67.7818 52.6058 68.2799 52.8881 68.9084 52.9484C69.5601 53.0107 70.2275 52.9991 70.8832 53.0127C71.5759 53.0283 72.2705 53.036 72.9631 53.038C74.3873 53.0438 75.8116 53.0244 77.2338 52.9796C77.9245 52.9582 78.6172 52.9309 79.3079 52.8978C79.8955 52.8686 80.487 52.855 81.0687 52.7752C81.5882 52.7032 82.0805 52.5611 82.419 52.1328C82.7575 51.7045 82.8548 51.173 82.8762 50.6474C82.9015 50.0264 82.8412 49.3976 82.8198 48.7766C82.7965 48.0739 82.7809 47.373 82.7692 46.6703C82.7264 43.8651 82.7751 41.0598 82.7673 38.2546C82.7634 36.8218 82.7439 35.391 82.6914 33.9601C82.6525 32.8992 82.7692 31.41 81.705 30.7831C81.2146 30.495 80.6212 30.4833 80.0706 30.495C79.5569 30.5067 79.555 31.3068 80.0706 31.2951C80.5239 31.2854 81.0921 31.2484 81.4481 31.5832C81.7886 31.9025 81.8217 32.4514 81.845 32.8875C81.919 34.2327 81.9443 35.5798 81.9579 36.9269C81.9871 39.5725 81.9443 42.2201 81.954 44.8657C81.9598 46.2011 81.9773 47.5385 82.024 48.874C82.0435 49.4638 82.1019 50.0595 82.0766 50.6494C82.061 51.0309 81.9968 51.5176 81.6719 51.7687C81.3567 52.0121 80.8275 52.014 80.4481 52.0393C79.8177 52.0802 79.1873 52.1075 78.5569 52.1347C77.2163 52.1912 75.8738 52.2243 74.5313 52.2379C73.1907 52.2496 71.8482 52.2379 70.5077 52.2067C70.1944 52.1989 69.8831 52.1912 69.5699 52.1795C69.2955 52.1698 69.0017 52.1873 68.7332 52.1172C68.2138 51.9829 68.2741 51.3872 68.2741 50.9608C68.2741 48.9226 68.2857 46.8844 68.2916 44.8462C68.2994 42.6328 68.3013 40.4194 68.2877 38.2059C68.2799 36.9231 68.2682 35.6402 68.2527 34.3573C68.2468 33.8434 68.2293 33.3255 68.2896 32.8135C68.3071 32.6714 68.3344 32.5235 68.3714 32.3814C68.3889 32.3132 68.4103 32.2451 68.4336 32.177C68.4667 32.0816 68.4453 32.1302 68.5017 32.0271C68.6107 31.8285 68.6963 31.7526 68.9006 31.6377C68.994 31.5852 68.8928 31.6319 68.9959 31.5949C69.0543 31.5754 69.1126 31.556 69.171 31.5404C69.2878 31.5092 69.494 31.4723 69.5485 31.4645C70.3754 31.3574 71.2276 31.3749 72.0584 31.3613C74.2433 31.3263 76.4303 31.3418 78.6152 31.3204C79.0978 31.3146 79.5822 31.3087 80.0648 31.297C80.5784 31.2854 80.5804 30.4833 80.0648 30.4969L80.0706 30.4931Z" fill="#181755"/>
<path d="M82.2163 48.8157C78.5351 48.9189 74.852 48.9753 71.1689 48.9987C70.1454 49.0045 69.122 49.0084 68.0986 49.0104C67.4118 49.0104 67.4118 50.0791 68.0986 50.0772C71.7817 50.0752 75.4649 50.0363 79.148 49.9584C80.1714 49.937 81.1948 49.9117 82.2163 49.8825C82.9012 49.863 82.9051 48.7962 82.2163 48.8157Z" fill="#181755"/>
<path d="M74.7178 40.4699C74.7003 41.1649 74.6925 41.8599 74.6905 42.5549C74.6905 43.0376 74.6905 43.5204 74.71 44.0032C74.7314 44.5463 74.782 45.1089 74.638 45.6404C74.566 45.9012 74.4415 46.1543 74.2236 46.3237C73.9882 46.5086 73.6691 46.5514 73.3772 46.5592C73.0854 46.567 72.7799 46.5378 72.49 46.4775C72.1126 46.3996 71.9102 46.1913 71.8226 45.8176C71.7156 45.362 71.7857 44.8267 71.7818 44.3595C71.7779 43.8183 71.7721 43.279 71.7682 42.7378C71.7584 41.671 71.7448 40.6062 71.7409 39.5394C71.737 38.8269 71.7195 38.1105 71.7623 37.398C71.7643 37.3591 71.7662 37.3182 71.7701 37.2792C71.776 37.2208 71.7662 37.2792 71.7779 37.2306C71.8363 36.9658 71.9588 36.7011 72.132 36.4928C72.4492 36.1073 72.9239 35.9263 73.4006 35.8367C73.9921 35.7238 74.6166 35.7219 75.2159 35.7316C75.9416 35.7413 76.679 35.8367 77.3075 36.228C78.3367 36.8685 78.6967 38.1708 78.4301 39.3116C78.3114 39.8158 78.0799 40.3025 77.7199 40.6782C77.2919 41.124 76.6654 41.3927 76.0759 41.5426C75.7354 41.6282 75.391 41.6672 75.0408 41.673C74.8131 41.6769 74.8112 42.0332 75.0408 42.0293C76.3249 42.004 77.7394 41.5114 78.4068 40.3453C78.9866 39.3311 79.043 38.0073 78.4807 36.9736C78.1577 36.3779 77.6343 35.936 77.0117 35.681C76.2549 35.3695 75.4163 35.3617 74.6108 35.3831C73.5504 35.4104 72.2779 35.5039 71.6806 36.5259C71.3246 37.1352 71.3868 37.8341 71.3849 38.5135C71.379 39.6348 71.3927 40.758 71.4043 41.8794C71.416 43.0007 71.4296 44.192 71.4316 45.3503C71.4316 45.9363 71.5853 46.5768 72.2098 46.7753C72.7877 46.9603 73.5698 47.0089 74.138 46.7773C75.2995 46.3042 75.0855 44.7449 75.0583 43.7462C75.031 42.7476 75.0486 41.7041 75.07 40.684C75.07 40.612 75.0738 40.54 75.0738 40.468C75.0797 40.2383 74.7236 40.2383 74.7178 40.468V40.4699Z" fill="#181755"/>
<path d="M73.3287 39.471C73.3053 39.4126 73.2859 39.3522 73.2684 39.2899C73.2567 39.2491 73.2489 39.2023 73.2703 39.1673C73.2878 39.1381 73.3209 39.1244 73.352 39.1128C74.0719 38.8402 75.1265 38.9629 75.8892 38.9259C75.932 38.9239 75.9767 38.922 76.0137 38.9454C76.0468 38.9648 76.0662 39.0018 76.0798 39.0388C76.1907 39.325 76.0507 39.6618 75.8211 39.8662C75.0584 40.5475 73.7412 40.4949 73.3287 39.4729V39.471Z" fill="#181755"/>
<path d="M73.6479 39.3839C73.6343 39.3469 73.6207 39.3099 73.6071 39.2729C73.6012 39.2573 73.5973 39.2417 73.5934 39.2262C73.5837 39.1853 73.5818 39.195 73.5896 39.2554L73.5039 39.4014C73.5039 39.4014 73.4845 39.413 73.4767 39.4189C73.502 39.4092 73.5273 39.4014 73.5526 39.3936C73.6051 39.378 73.6577 39.3644 73.7102 39.3508C73.79 39.3313 73.8814 39.3138 73.9573 39.3041C74.1869 39.2729 74.4204 39.2651 74.6519 39.2612C74.8834 39.2573 75.1033 39.2612 75.329 39.2631C75.436 39.2631 75.543 39.2631 75.65 39.2631C75.7298 39.2631 75.8776 39.2437 75.9263 39.2631L75.7804 39.1775C75.759 39.16 75.7901 39.1814 75.7862 39.2048C75.794 39.16 75.7862 39.3079 75.7901 39.2768C75.7843 39.3371 75.759 39.4092 75.7239 39.4695C75.6558 39.5883 75.5449 39.6759 75.4652 39.7284C75.4087 39.7654 75.3504 39.8005 75.2901 39.8316C75.2609 39.8472 75.2297 39.8628 75.1986 39.8764C75.2453 39.855 75.148 39.8958 75.1364 39.8997C75.0683 39.9231 74.9982 39.9445 74.9282 39.9601C74.8951 39.9679 74.864 39.9737 74.8309 39.9796C74.7608 39.9912 74.8659 39.9796 74.7881 39.9835C74.7219 39.9874 74.6577 39.9912 74.5916 39.9893C74.5585 39.9893 74.5274 39.9854 74.4943 39.9835C74.4165 39.9796 74.5235 39.9932 74.4534 39.9796C74.3834 39.9659 74.3172 39.9523 74.2511 39.9309C74.22 39.9212 74.1908 39.9114 74.1616 39.8997C74.1402 39.8919 74.1421 39.8919 74.1674 39.9017C74.148 39.8919 74.1285 39.8842 74.111 39.8744C73.9767 39.8044 73.9456 39.7829 73.8444 39.6778C73.8211 39.6545 73.7997 39.6291 73.7783 39.6038C73.8114 39.6447 73.7549 39.5707 73.7491 39.5629C73.7258 39.5298 73.7063 39.4948 73.6868 39.4578C73.681 39.4461 73.6382 39.3605 73.6499 39.3897C73.5818 39.2242 73.43 39.1074 73.2432 39.1581C73.0876 39.2009 72.9436 39.3994 73.0117 39.5649C73.2199 40.0613 73.5954 40.437 74.1207 40.585C74.611 40.7232 75.1422 40.6453 75.5936 40.4215C76.1189 40.1626 76.6248 39.5785 76.401 38.9536C76.3251 38.7434 76.1637 38.6052 75.9341 38.5974C75.7979 38.5935 75.6597 38.6071 75.5235 38.6071C75.2103 38.6071 74.897 38.5993 74.5838 38.6071C74.2336 38.6149 73.8775 38.6383 73.5351 38.7181C73.3755 38.7551 73.1829 38.7999 73.0603 38.9147C72.8697 39.0938 72.928 39.3508 73.0117 39.5649C73.0759 39.7323 73.2335 39.8472 73.4183 39.7965C73.5779 39.7537 73.7141 39.5571 73.6499 39.3897L73.6479 39.3839Z" fill="#181755"/>
<path d="M74.1672 37.8555C74.1556 37.6666 74.1283 37.4759 74.0797 37.2929C74.0563 37.2033 73.9513 37.1391 73.8618 37.1683C73.7723 37.1975 73.712 37.2909 73.7372 37.3863C73.7645 37.4875 73.7839 37.5907 73.7995 37.6959L73.7937 37.6491C73.8034 37.7173 73.8092 37.7873 73.8131 37.8555C73.819 37.9489 73.8909 38.0385 73.9902 38.0326C74.0816 38.0287 74.1731 37.9547 74.1672 37.8555Z" fill="#181755"/>
<path d="M75.7081 37.6351V37.2905C75.7081 37.2458 75.6886 37.1971 75.6556 37.164C75.6225 37.1309 75.5738 37.1095 75.5291 37.1115C75.4843 37.1134 75.4357 37.1289 75.4026 37.164C75.3696 37.199 75.3501 37.2419 75.3501 37.2905V37.6351C75.3501 37.6799 75.3696 37.7285 75.4026 37.7616C75.4357 37.7947 75.4843 37.8161 75.5291 37.8142C75.5738 37.8122 75.6225 37.7967 75.6556 37.7616C75.6886 37.7266 75.7081 37.6838 75.7081 37.6351Z" fill="#181755"/>
<path d="M75.0509 32.113C73.6772 28.6907 72.3989 25.2334 70.9961 21.8227C70.5817 20.8143 70.1556 19.8118 69.7178 18.815C69.5388 18.4082 68.9143 18.2836 68.5602 18.5113C68.1399 18.7839 68.064 19.2355 68.2566 19.6696C68.9765 21.3029 69.6205 22.8798 70.2976 24.5851C70.9689 26.2787 71.6207 27.9782 72.2822 29.6757C72.6577 30.6394 73.0352 31.603 73.4204 32.5627C73.5838 32.9716 73.9924 33.3064 74.4613 33.1546C74.8582 33.0261 75.2299 32.553 75.0528 32.113H75.0509Z" fill="#181755"/>
<path d="M77.2648 30.8982C78.2746 27.328 79.2844 23.7557 80.2962 20.1854C80.5861 19.1615 80.876 18.1356 81.1659 17.1116C81.2865 16.6853 81.018 16.1713 80.5744 16.0701C80.1308 15.9689 79.6619 16.2044 79.5335 16.6619C78.5237 20.2322 77.5139 23.8044 76.5021 27.3747C76.2122 28.3987 75.9223 29.4246 75.6324 30.4485C75.5118 30.8749 75.7803 31.3888 76.2239 31.49C76.6675 31.5913 77.1364 31.3557 77.2648 30.8982Z" fill="#181755"/>
<path d="M91.353 26.4159C92.9835 25.4484 95.1081 26.7176 95.0147 28.8045C94.9136 31.0121 92.5438 32.2385 90.8647 30.6636C89.886 29.7448 89.7868 28.0453 90.6526 27.0213C90.8685 26.7644 91.1059 26.5658 91.355 26.4178L91.353 26.4159Z" fill="#181755"/>
<path d="M91.4427 26.5681C92.2463 26.1028 93.2502 26.1885 93.9682 26.7803C94.7445 27.4188 95.0033 28.4759 94.7367 29.4298C94.4935 30.298 93.793 31.0164 92.8903 31.1682C91.9135 31.3337 90.929 30.7341 90.501 29.8658C89.9231 28.692 90.3298 27.2495 91.4427 26.5681C91.6373 26.4494 91.4583 26.1418 91.2637 26.2606C90.1449 26.9458 89.6449 28.2773 89.999 29.5368C90.3103 30.6465 91.3318 31.5225 92.5031 31.5498C93.5421 31.5731 94.4915 30.9034 94.9157 29.971C95.3885 28.9314 95.2659 27.6563 94.4935 26.792C93.6783 25.877 92.326 25.6473 91.2656 26.2606C91.0672 26.3754 91.2462 26.683 91.4446 26.5681H91.4427Z" fill="#181755"/>
<path d="M101.13 27.4576C102.027 26.9262 103.195 27.6231 103.142 28.7697C103.088 29.9845 101.784 30.658 100.862 29.7918C100.325 29.2876 100.27 28.3531 100.745 27.7886C100.864 27.6484 100.994 27.5375 101.13 27.4576Z" fill="#181755"/>
<path d="M101.222 27.6113C101.632 27.3738 102.144 27.4147 102.512 27.7145C102.918 28.0455 103.053 28.5963 102.913 29.0928C102.786 29.5424 102.422 29.9162 101.953 29.9922C101.449 30.0739 100.949 29.7586 100.731 29.3128C100.434 28.7073 100.648 27.9598 101.222 27.6094C101.416 27.4906 101.237 27.183 101.043 27.3018C100.397 27.697 100.107 28.4659 100.311 29.192C100.492 29.8364 101.086 30.3425 101.765 30.3581C102.362 30.3717 102.916 29.9863 103.16 29.451C103.434 28.8455 103.366 28.1097 102.914 27.6055C102.442 27.076 101.656 26.9475 101.043 27.3018C100.844 27.4166 101.023 27.7242 101.222 27.6094V27.6113Z" fill="#181755"/>
<path d="M95.0269 38.0952V41.9848H99.2664V37.9473L95.0269 38.0952Z" fill="#181755"/>
<path d="M91.0088 42.1753V46.0668H95.2484V42.0293L91.0088 42.1753Z" fill="#181755"/>
<path d="M91.1802 34.147V37.947H95.1221L94.8555 34.0029L91.1802 34.147Z" fill="#181755"/>
<path d="M100.947 33.5489C98.5037 33.615 96.0599 33.6812 93.6162 33.7474C92.8554 33.7688 92.0441 33.7455 91.3067 33.9654C91.0577 34.0394 90.7639 34.1465 90.6802 34.4171C90.651 34.5105 90.6432 34.6118 90.6335 34.7091C90.5518 35.4605 90.5673 36.2295 90.5615 36.9848C90.5518 38.1781 90.5615 39.3695 90.5771 40.5629C90.5926 41.7562 90.614 42.8289 90.6568 43.9618C90.6705 44.3434 90.688 44.7269 90.7152 45.1084C90.7308 45.3109 90.7308 45.5367 90.793 45.7314C90.8825 46.0176 91.2055 46.1655 91.4643 46.257C91.8145 46.3816 92.1998 46.4225 92.5694 46.4517C93.5247 46.5276 94.4976 46.4556 95.4548 46.4361C96.6748 46.4108 97.8928 46.3874 99.1127 46.3621C99.7217 46.3504 100.333 46.3368 100.942 46.3251C101.432 46.3154 101.969 46.3621 102.448 46.2395C103.496 45.9728 103.467 44.8456 103.432 43.9774C103.383 42.7626 103.354 41.5459 103.315 40.3292C103.276 39.1125 103.237 37.9036 103.199 36.6908C103.179 36.0796 103.165 35.4683 103.14 34.857C103.119 34.3295 102.955 33.8447 102.428 33.6384C101.969 33.4574 101.428 33.5333 100.947 33.5469C100.434 33.5605 100.432 34.3606 100.947 34.347C101.204 34.3392 101.463 34.3275 101.722 34.3275C101.874 34.3275 102.111 34.3178 102.232 34.4327C102.352 34.5475 102.337 34.7889 102.342 34.9466C102.352 35.2542 102.362 35.5617 102.372 35.8674C102.409 36.9984 102.444 38.1314 102.481 39.2624C102.518 40.3935 102.555 41.5908 102.593 42.7549C102.609 43.2591 102.625 43.7613 102.646 44.2655C102.66 44.579 102.716 45.0598 102.496 45.3207C102.276 45.5815 101.735 45.5075 101.424 45.5134C100.846 45.5251 100.268 45.5367 99.6905 45.5484C98.5679 45.5718 97.4433 45.5932 96.3207 45.6166C95.2739 45.638 94.2252 45.6866 93.1784 45.675C92.8613 45.6711 92.5383 45.6574 92.225 45.6107C92.0655 45.5874 91.906 45.5542 91.7523 45.5056C91.6919 45.4861 91.6647 45.4783 91.618 45.4569C91.5849 45.4413 91.5557 45.418 91.5227 45.4024C91.5266 45.4024 91.4915 45.3985 91.4954 45.3791C91.4954 45.3791 91.6122 45.5718 91.5557 45.4783C91.5421 45.455 91.546 45.4122 91.5402 45.3869C91.5772 45.5543 91.5421 45.4005 91.5382 45.3518C91.5324 45.2914 91.5266 45.2292 91.5227 45.1688C91.4974 44.8359 91.4818 44.503 91.4682 44.1702C91.4254 43.1384 91.404 42.1047 91.3865 41.0729C91.3534 39.0814 91.3009 37.0743 91.4079 35.0828C91.4137 34.966 91.4234 34.8512 91.4332 34.7344C91.4448 34.5884 91.4118 34.787 91.4351 34.7071C91.4371 34.6994 91.4546 34.6351 91.4526 34.6312C91.439 34.6157 91.3981 34.7441 91.4215 34.7032C91.4507 34.6565 91.3223 34.8337 91.3164 34.8181C91.3164 34.8142 91.4079 34.7694 91.3845 34.7791C91.5129 34.7285 91.6978 34.6838 91.8534 34.6546C92.1998 34.5923 92.5539 34.5748 92.9041 34.5611C95.021 34.4774 97.1417 34.4463 99.2606 34.3879C99.8228 34.3723 100.385 34.3567 100.949 34.3431C101.463 34.3295 101.465 33.5294 100.949 33.543L100.947 33.5489Z" fill="#181755"/>
<path d="M95.4995 45.7886C95.4665 44.4765 95.4334 43.1644 95.4003 41.8524C95.3478 39.7791 95.2952 37.7039 95.2427 35.6306C95.231 35.1479 95.2174 34.667 95.2057 34.1843C95.1999 33.9565 94.8438 33.9545 94.8497 34.1843C94.8828 35.4963 94.9158 36.8084 94.9489 38.1205C95.0014 40.1938 95.054 42.269 95.1065 44.3422C95.1182 44.825 95.1318 45.3058 95.1435 45.7886C95.1493 46.0164 95.5054 46.0183 95.4995 45.7886Z" fill="#181755"/>
<path d="M99.6204 45.5274C99.5017 41.706 99.385 37.8846 99.2663 34.0632C99.2585 33.8354 98.9044 33.8334 98.9102 34.0632C99.0289 37.8846 99.1457 41.706 99.2643 45.5274C99.2721 45.7552 99.6262 45.7571 99.6204 45.5274Z" fill="#181755"/>
<path d="M91.0633 38.184C94.0557 38.149 97.0481 38.1236 100.039 38.0944C100.875 38.0867 101.714 38.0769 102.55 38.0672C102.78 38.0653 102.78 37.709 102.55 37.7109C99.558 37.746 96.5656 37.7713 93.5751 37.8005C92.7385 37.8083 91.8999 37.818 91.0633 37.8278C90.8337 37.8297 90.8337 38.186 91.0633 38.184Z" fill="#181755"/>
<path d="M91.1803 42.3232C92.4994 42.2979 93.8205 42.2707 95.1397 42.2454C97.241 42.2045 99.3423 42.1617 101.442 42.1208C101.92 42.1111 102.399 42.1013 102.878 42.0916C103.105 42.0877 103.107 41.7315 102.878 41.7354C101.558 41.7607 100.237 41.7879 98.9181 41.8132C96.8168 41.8541 94.7155 41.8969 92.6161 41.9378C92.1375 41.9475 91.6589 41.9573 91.1803 41.967C90.9526 41.9709 90.9507 42.3271 91.1803 42.3232Z" fill="#181755"/>
<path d="M79.2787 11.8606H71.6517C70.3617 11.8606 69.3149 10.8152 69.3149 9.52262V8.09766H81.6134V9.52262C81.6134 10.8133 80.5686 11.8606 79.2767 11.8606H79.2787Z" fill="#181755"/>
<path d="M79.2787 11.3079H74.934C74.0527 11.3079 73.1713 11.3079 72.2899 11.3079C72.0895 11.3079 71.891 11.3079 71.6906 11.3079C71.2723 11.3079 70.8618 11.1794 70.5544 10.9341C70.0641 10.5428 69.8695 10.0192 69.8695 9.41379C69.8695 8.97577 69.8695 8.53776 69.8695 8.09975C69.6847 8.28469 69.4998 8.4696 69.315 8.65454H81.6135C81.4286 8.4696 81.2438 8.28469 81.059 8.09975C81.059 8.64483 81.1096 9.21522 81.0473 9.75836C80.9461 10.6246 80.1601 11.2943 79.2767 11.306C78.5646 11.3157 78.5627 12.4253 79.2767 12.4137C80.5803 12.3942 81.7652 11.5104 82.0785 10.2275C82.2458 9.5481 82.166 8.79083 82.166 8.0978C82.166 7.79801 81.9131 7.54297 81.6115 7.54297H69.313C69.0134 7.54297 68.7585 7.79606 68.7585 8.0978C68.7585 9.1101 68.6321 10.2002 69.2196 11.0899C69.6555 11.7479 70.3501 12.2385 71.1342 12.365C71.4007 12.4078 71.6576 12.4137 71.9241 12.4137H79.2748C79.9869 12.4137 79.9889 11.306 79.2748 11.306L79.2787 11.3079Z" fill="#181755"/>
<path d="M44.216 50.3922C43.1868 46.7285 42.4377 42.9752 41.926 39.2044C41.7995 38.2758 41.6906 37.3433 41.6069 36.4089C41.5875 36.1928 41.247 36.1909 41.2664 36.4089C41.6011 40.0726 42.2412 43.7208 43.0759 47.3027C43.3249 48.3676 43.5934 49.4285 43.8892 50.4837C43.9475 50.6939 44.2764 50.6044 44.218 50.3922H44.216Z" fill="#181755"/>
<path d="M41.4941 34.9096L41.4415 34.2887C41.4337 34.1991 41.3676 34.1134 41.2703 34.1173C41.1847 34.1212 41.0913 34.1933 41.0991 34.2887L41.1516 34.9096C41.1594 34.9992 41.2256 35.0848 41.3228 35.0809C41.4084 35.077 41.5018 35.005 41.4941 34.9096Z" fill="#181755"/>
<path d="M45.0427 46.3644C44.1711 43.6955 43.7469 40.9098 43.3928 38.1318C43.3656 37.9177 43.0251 37.9138 43.0523 38.1318C43.4103 40.939 43.8345 43.7578 44.7139 46.456C44.782 46.6643 45.1108 46.5747 45.0427 46.3644Z" fill="#181755"/>
<path d="M36.9313 25.7512C37.0286 27.0126 37.1414 28.2741 37.2776 29.5317C37.301 29.7478 37.6415 29.7497 37.6181 29.5317C37.4819 28.2741 37.3691 27.0126 37.2718 25.7512C37.2543 25.5331 36.9138 25.5312 36.9313 25.7512Z" fill="#181755"/>
<path d="M36.2601 29.1363C36.0597 27.9975 35.9294 26.8509 35.9761 25.6945C35.9838 25.4745 35.6434 25.4765 35.6356 25.6945C35.5889 26.882 35.727 28.0598 35.9313 29.2278C35.9683 29.4439 36.2971 29.3524 36.2601 29.1363Z" fill="#181755"/>
<path d="M36.1023 24.6022L36.1257 24.0337C36.1296 23.9442 36.044 23.8585 35.9545 23.8624C35.8591 23.8663 35.7891 23.9364 35.7832 24.0337L35.7599 24.6022C35.756 24.6917 35.8416 24.7774 35.9311 24.7735C36.0264 24.7696 36.0965 24.6995 36.1023 24.6022Z" fill="#181755"/>
<path d="M67.5364 74.6134C67.3185 72.6842 67.1901 70.7472 67.0461 68.8122C67.0286 68.5844 66.6706 68.5825 66.6881 68.8122C66.8321 70.7472 66.9605 72.6842 67.1784 74.6134C67.2037 74.8392 67.5617 74.8431 67.5364 74.6134Z" fill="#181755"/>
<path d="M67.0033 67.6731L66.9488 66.9995C66.941 66.9061 66.8709 66.8165 66.7698 66.8204C66.6803 66.8243 66.583 66.9002 66.5908 66.9995L66.6452 67.6731C66.653 67.7666 66.7231 67.8561 66.8243 67.8522C66.9138 67.8483 67.011 67.7724 67.0033 67.6731Z" fill="#181755"/>
<path d="M68.5406 71.6601C68.4783 71.0216 68.416 70.3811 68.3518 69.7426C68.3421 69.6472 68.2759 69.5635 68.1728 69.5635C68.0833 69.5635 67.9841 69.6452 67.9938 69.7426C68.0561 70.3811 68.1183 71.0216 68.1826 71.6601C68.1923 71.7555 68.2584 71.8392 68.3615 71.8392C68.451 71.8392 68.5503 71.7574 68.5406 71.6601Z" fill="#181755"/>
<path d="M38.8947 29.6205C38.8947 29.566 38.8986 29.5096 38.9005 29.4551C38.9005 29.6614 38.4569 30.2922 38.3052 30.4323C38.06 30.6582 37.6339 30.8139 37.3207 30.9093C36.5346 31.1487 35.663 31.0378 34.8652 30.9112C35.4606 31.1643 36.1027 31.4505 36.7408 31.542C37.5249 31.6549 38.3168 31.7211 39.1107 31.7425C38.9472 31.0475 38.8733 30.3331 38.8947 29.6186V29.6205Z" fill="#181755"/>
<path d="M60.6685 51.5833C60.6626 51.9688 60.6548 52.4262 60.3338 52.6949C60.1217 52.872 59.826 52.9421 59.5594 52.9849C58.9096 53.0901 58.2325 53.0317 57.5788 52.981C55.816 52.8448 54.0338 52.9188 52.2671 52.9188C51.6815 52.9188 50.9733 52.9694 50.4577 52.6346C49.9109 52.2803 49.8934 51.5639 49.8487 50.9799C49.7241 49.3894 49.6541 47.795 49.6016 46.2006C49.4887 42.7141 49.4731 39.2236 49.4089 35.7351C49.3778 34.0551 49.335 32.375 49.2591 30.695C49.1988 29.344 49.0607 28.0008 48.9867 26.6517C48.9537 26.0346 48.9381 25.3747 49.1385 24.7809C49.2183 24.5454 49.3447 24.3176 49.5549 24.1774C49.9265 23.9302 50.4401 23.9652 50.8682 23.9497C52.9403 23.8737 55.0124 23.7998 57.0826 23.7239C57.8687 23.6947 58.9563 23.4941 59.4174 24.3059C59.6567 24.7303 59.7443 25.252 59.7832 25.7328C59.8124 26.093 59.826 26.4551 59.8455 26.8172C59.9272 28.4232 59.9972 30.0312 60.0653 31.6392C60.1626 33.913 60.2521 36.1848 60.3358 38.4585C60.4214 40.7868 60.5011 43.1151 60.5673 45.4433C60.6179 47.209 60.6665 48.9766 60.6704 50.7443C60.6704 51.0246 60.6704 51.3049 60.6665 51.5833C60.6626 51.813 61.0187 51.813 61.0226 51.5833C61.0479 49.9597 60.9992 48.3323 60.9584 46.7087C60.8981 44.3688 60.8202 42.0288 60.7366 39.6908C60.6529 37.3528 60.5556 34.8727 60.4564 32.4646C60.3824 30.697 60.3066 28.9294 60.219 27.1617C60.1568 25.8866 60.2852 23.7374 58.7247 23.3987C58.2831 23.3033 57.82 23.3423 57.3725 23.3598C56.8433 23.3793 56.3121 23.3987 55.7829 23.4182C54.707 23.4571 53.631 23.4961 52.5551 23.535C52.0259 23.5545 51.4947 23.5739 50.9655 23.5934C50.5219 23.609 50.0432 23.5895 49.623 23.7511C49.0587 23.9672 48.8019 24.5123 48.6988 25.0768C48.4692 26.3227 48.728 27.6387 48.8077 28.8885C48.9147 30.5685 48.9731 32.2524 49.0159 33.9344C49.1074 37.5611 49.1171 41.1917 49.2085 44.8185C49.2513 46.5102 49.3097 48.2038 49.4187 49.8916C49.444 50.2907 49.4712 50.6878 49.5043 51.0849C49.5315 51.4314 49.551 51.7838 49.6619 52.1148C49.8389 52.6365 50.2183 52.9947 50.7456 53.1485C51.4733 53.3607 52.2924 53.2789 53.0395 53.2789C54.1291 53.2789 55.2206 53.2789 56.3102 53.2789C56.9523 53.2789 57.5865 53.3509 58.2286 53.3821C58.8648 53.4132 59.5672 53.4346 60.1704 53.1932C60.8669 52.9149 61.0148 52.2763 61.0265 51.5833C61.0304 51.3536 60.6743 51.3536 60.6704 51.5833H60.6685Z" fill="#181755"/>
<path d="M62.1298 52.9583C62.122 53.3982 62.1181 53.92 61.8068 54.2704C61.6161 54.4826 61.3418 54.5974 61.0733 54.6695C60.404 54.8505 59.6821 54.8252 58.9973 54.7901C58.361 54.757 57.7267 54.6753 57.0886 54.6656C55.999 54.65 54.9094 54.6656 53.8199 54.6636C52.7926 54.6636 51.7555 54.7064 50.7282 54.648C50.1757 54.6169 49.553 54.5273 49.1464 54.1127C48.6172 53.5695 48.6386 52.6994 48.5841 51.9986C48.4985 50.8831 48.4304 49.7657 48.3759 48.6463C48.158 44.1961 48.1502 39.7401 48.0413 35.286C47.9887 33.0745 47.9109 30.863 47.7708 28.6554C47.7202 27.8651 47.656 27.0786 47.586 26.2902C47.5257 25.6069 47.4829 24.9178 47.5335 24.2345C47.5763 23.6699 47.6774 22.9847 48.1055 22.572C48.4226 22.2644 48.8935 22.2079 49.3137 22.1846C49.8429 22.1554 50.3722 22.1437 50.9014 22.1261C53.1486 22.0444 55.3959 21.9627 57.6431 21.8809C58.505 21.8498 59.7697 21.6122 60.4001 22.3695C60.8398 22.899 60.9663 23.6894 61.0285 24.3513C61.0635 24.7173 61.0791 25.0832 61.1005 25.4512C61.2017 27.1662 61.2873 28.8832 61.371 30.5983C61.4916 33.0784 61.6064 35.5585 61.7115 38.0406C61.8204 40.6219 61.9216 43.2033 62.0033 45.7846C62.0695 47.8326 62.1298 49.8805 62.1356 51.9304C62.1356 52.275 62.1356 52.6176 62.1298 52.9622C62.1259 53.1919 62.4819 53.1919 62.4858 52.9622C62.515 51.0641 62.4586 49.1641 62.4041 47.268C62.3302 44.6497 62.2309 42.0314 62.1239 39.415C62.0169 36.7986 61.8982 34.1725 61.7737 31.5502C61.6823 29.6463 61.5889 27.7405 61.4799 25.8386C61.3924 24.3065 61.4741 21.8789 59.5712 21.5441C59.0615 21.4545 58.542 21.4954 58.0283 21.5129C57.4505 21.5344 56.8726 21.5558 56.2947 21.5753C55.139 21.6181 53.9833 21.6589 52.8276 21.7018C51.6835 21.7427 50.5375 21.7738 49.3935 21.8264C48.6444 21.8614 47.9187 22.0386 47.5432 22.7452C47.2416 23.3137 47.1754 23.9931 47.1599 24.6257C47.1424 25.3129 47.2007 25.9982 47.2669 26.6795C47.4634 28.7411 47.5471 30.8163 47.6171 32.8857C47.7767 37.4994 47.7689 42.117 47.9381 46.7307C47.9809 47.8813 48.0335 49.0318 48.1035 50.1823C48.1385 50.7566 48.1775 51.3309 48.2222 51.9051C48.2592 52.3782 48.2709 52.8648 48.374 53.3281C48.5004 53.8927 48.8001 54.4047 49.3215 54.6831C49.8877 54.9848 50.5667 55.016 51.1932 55.0199C52.3276 55.0296 53.4619 55.0199 54.5981 55.0218C55.569 55.0218 56.5516 54.9809 57.5205 55.0432C58.2346 55.0899 58.9447 55.1659 59.6607 55.1678C60.3164 55.1717 61.0363 55.1405 61.6336 54.8388C62.3594 54.4728 62.4761 53.7019 62.4878 52.9602C62.4917 52.7305 62.1356 52.7305 62.1317 52.9602L62.1298 52.9583Z" fill="#181755"/>
<path d="M59.2638 21.9142C60.2366 21.8791 61.4915 21.6806 62.0461 22.6851C62.3398 23.2165 62.4469 23.8648 62.4955 24.4644C62.5364 24.9471 62.5597 25.4319 62.5869 25.9167C62.7056 27.9919 62.8068 30.0671 62.906 32.1423C63.0403 34.9689 63.1648 37.7974 63.2777 40.626C63.3905 43.4546 63.4839 46.0691 63.55 48.7925C63.5753 49.8224 63.5948 50.8541 63.5987 51.8859C63.5987 52.3083 63.6026 52.7307 63.5909 53.1512C63.5773 53.6223 63.5228 54.1577 63.1103 54.4575C62.7601 54.7125 62.2893 54.7884 61.869 54.8254C61.367 54.8702 60.8611 54.8546 60.3592 54.8254C60.1296 54.8118 60.1315 55.168 60.3592 55.1816C61.2658 55.2322 62.3788 55.3082 63.192 54.8254C63.9236 54.3913 63.945 53.5367 63.9528 52.7775C63.9625 51.8333 63.9489 50.8872 63.9314 49.943C63.8808 47.2527 63.7874 44.5643 63.6843 41.8758C63.5714 38.9149 63.443 35.9539 63.3049 32.9949C63.1998 30.7445 63.0909 28.496 62.9644 26.2476C62.9333 25.6869 62.9041 25.1262 62.8632 24.5656C62.8321 24.1393 62.7718 23.711 62.6628 23.2983C62.5539 22.8856 62.3846 22.4612 62.0966 22.1341C61.797 21.7935 61.3709 21.628 60.9292 21.5657C60.3806 21.4879 59.8183 21.5404 59.2677 21.5599C59.04 21.5677 59.0381 21.9239 59.2677 21.9161L59.2638 21.9142Z" fill="#181755"/>
<path d="M50.724 52.5685C51.0723 51.6574 51.5295 50.7795 51.9654 49.9073L51.8116 49.9949C54.2068 50.0027 56.6038 50.0144 58.9989 50.0475C59.5865 50.0553 60.1741 50.0611 60.7617 50.0864C60.9913 50.0962 60.9893 49.7399 60.7617 49.7302C58.0922 49.6192 55.4111 49.6542 52.7397 49.6426C52.4304 49.6426 52.121 49.6406 51.8116 49.6387C51.7513 49.6387 51.6852 49.6718 51.6579 49.7263C51.2085 50.6276 50.7415 51.5328 50.3816 52.4731C50.2999 52.6872 50.6443 52.7807 50.724 52.5685Z" fill="#181755"/>
<path d="M51.8118 27.2337C51.0705 27.2648 50.3272 27.294 49.5859 27.3252L49.7124 27.6288C49.8933 27.4653 50.0431 27.2648 50.193 27.074C50.4323 26.7684 50.6638 26.4569 50.8934 26.1435C51.3428 25.5303 51.7806 24.9073 52.2165 24.2824C52.3118 24.1442 52.4091 24.006 52.5044 23.8678C52.6348 23.679 52.3254 23.4998 52.197 23.6887C51.4907 24.7165 50.7767 25.7464 50.012 26.7314C49.8408 26.9514 49.6696 27.187 49.4614 27.3758C49.3486 27.477 49.4361 27.6853 49.5879 27.6794C50.3292 27.6483 51.0724 27.6191 51.8137 27.588C52.0413 27.5782 52.0433 27.222 51.8137 27.2317L51.8118 27.2337Z" fill="#181755"/>
<path d="M51.8118 30.4225C51.0705 30.4537 50.3272 30.4829 49.5859 30.514L49.7124 30.8177C49.9459 30.6055 50.1424 30.3447 50.337 30.0974C50.6269 29.7315 50.909 29.3596 51.1872 28.9859C51.553 28.4934 51.9149 27.9989 52.2709 27.5005L52.1172 27.5881C54.0823 27.5764 56.0475 27.5687 58.0126 27.5745C58.6741 27.5745 59.3376 27.5803 59.9991 27.5881C60.2287 27.592 60.2287 27.2358 59.9991 27.2319C57.9192 27.2046 55.8373 27.2143 53.7574 27.2221C53.3858 27.2221 53.0142 27.226 52.6426 27.228C52.4752 27.228 52.2962 27.2124 52.1309 27.2299C51.9655 27.2475 51.8915 27.4226 51.804 27.5433C51.5919 27.8392 51.3779 28.1332 51.1619 28.4271C50.8448 28.8593 50.5237 29.2896 50.193 29.71C49.9653 30.0021 49.7377 30.3135 49.4634 30.5627C49.3505 30.6659 49.4381 30.8722 49.5898 30.8664C50.3311 30.8352 51.0744 30.806 51.8157 30.7749C52.0433 30.7652 52.0452 30.4089 51.8157 30.4186L51.8118 30.4225Z" fill="#181755"/>
<path d="M51.8118 36.8435C51.0705 36.8746 50.3272 36.9038 49.5859 36.935L49.7124 37.2387C49.9459 37.0265 50.1424 36.7656 50.3369 36.5184C50.6268 36.1524 50.909 35.7806 51.1872 35.4068C51.553 34.9143 51.9149 34.4198 52.2709 33.9215L52.1172 34.0091C54.1835 33.9974 56.2517 33.9896 58.32 33.9955C58.999 33.9955 59.6761 33.9993 60.3551 34.0091C60.5847 34.013 60.5847 33.6567 60.3551 33.6528C58.2344 33.6236 56.1117 33.6353 53.9909 33.6431C53.3858 33.6451 52.7671 33.612 52.162 33.6509C52.0005 33.6606 51.9441 33.7696 51.8565 33.8903C51.6464 34.1843 51.4343 34.4763 51.2203 34.7664C50.8973 35.2044 50.5724 35.6424 50.2377 36.0726C49.9945 36.3841 49.7552 36.7189 49.4614 36.9837C49.3486 37.0868 49.4361 37.2932 49.5879 37.2874C50.3292 37.2562 51.0724 37.227 51.8137 37.1959C52.0413 37.1861 52.0433 36.8299 51.8137 36.8396L51.8118 36.8435Z" fill="#181755"/>
<path d="M51.8118 33.684C51.0705 33.7152 50.3272 33.7444 49.5859 33.7755L49.7124 34.0792C49.9459 33.867 50.1424 33.6062 50.337 33.3589C50.6269 32.9929 50.909 32.6211 51.1872 32.2474C51.553 31.7548 51.9149 31.2603 52.2709 30.762L52.1172 30.8496C54.1251 30.8379 56.135 30.8301 58.1449 30.836C58.822 30.836 59.4991 30.8418 60.1781 30.8496C60.4077 30.8535 60.4077 30.4973 60.1781 30.4934C58.0768 30.4642 55.9735 30.4758 53.8703 30.4836C53.4831 30.4836 53.0959 30.4875 52.7087 30.4895C52.5239 30.4895 52.3274 30.4739 52.1425 30.4934C51.981 30.5089 51.9149 30.651 51.8273 30.7737C51.6172 31.0676 51.4051 31.3596 51.1911 31.6497C50.8681 32.0877 50.5432 32.5257 50.2085 32.954C49.9751 33.2518 49.7435 33.5711 49.4634 33.8261C49.3505 33.9293 49.4381 34.1357 49.5898 34.1298C50.3311 34.0987 51.0744 34.0695 51.8157 34.0383C52.0433 34.0286 52.0452 33.6723 51.8157 33.6821L51.8118 33.684Z" fill="#181755"/>
<path d="M51.8118 40.0301C51.0705 40.0612 50.3272 40.0904 49.5859 40.1216L49.7124 40.4252C49.9459 40.213 50.1424 39.9522 50.3369 39.7049C50.6268 39.339 50.909 38.9671 51.1872 38.5934C51.553 38.1008 51.9149 37.6064 52.2709 37.108L52.1172 37.1956C54.1835 37.184 56.2517 37.1762 58.32 37.182C58.999 37.182 59.6761 37.1859 60.3551 37.1956C60.5847 37.1995 60.5847 36.8433 60.3551 36.8394C58.2344 36.8102 56.1117 36.8218 53.9909 36.8296C53.3858 36.8316 52.7671 36.7985 52.162 36.8374C52.0005 36.8472 51.9441 36.9562 51.8565 37.0769C51.6464 37.3708 51.4343 37.6628 51.2203 37.9529C50.8973 38.3909 50.5724 38.8289 50.2377 39.2591C49.9945 39.5706 49.7552 39.9055 49.4614 40.1702C49.3486 40.2734 49.4361 40.4797 49.5879 40.4739C50.3292 40.4427 51.0724 40.4135 51.8137 40.3824C52.0413 40.3727 52.0433 40.0164 51.8137 40.0262L51.8118 40.0301Z" fill="#181755"/>
<path d="M51.8117 46.4516C51.0705 46.4828 50.3272 46.512 49.5859 46.5431L49.7124 46.8468C49.9459 46.6346 50.1424 46.3737 50.3369 46.1265C50.6268 45.7605 50.909 45.3887 51.1872 45.0149C51.553 44.5224 51.9149 44.028 52.2709 43.5296L52.1172 43.6172C54.2866 43.6055 56.456 43.5977 58.6254 43.6036C59.32 43.6036 60.0146 43.6075 60.7092 43.6172C60.9388 43.6211 60.9388 43.2648 60.7092 43.2609C58.5554 43.2317 56.4016 43.2434 54.2477 43.2512C53.5667 43.2531 52.8857 43.2473 52.2067 43.259C52.0569 43.2609 51.983 43.3174 51.8974 43.4381C51.697 43.7184 51.4946 43.9987 51.2903 44.2771C50.9537 44.7365 50.6152 45.1921 50.2669 45.6418C50.0159 45.9669 49.7649 46.3154 49.4594 46.5937C49.3466 46.6969 49.4342 46.9032 49.5859 46.8974C50.3272 46.8662 51.0705 46.8371 51.8117 46.8059C52.0394 46.7962 52.0413 46.44 51.8117 46.4497V46.4516Z" fill="#181755"/>
<path d="M51.8118 43.2925C51.0705 43.3236 50.3272 43.3528 49.5859 43.3839L49.7124 43.6876C49.9459 43.4754 50.1424 43.2146 50.3369 42.9673C50.6268 42.6013 50.909 42.2295 51.1872 41.8558C51.553 41.3632 51.9149 40.8688 52.2709 40.3704L52.1172 40.458C54.238 40.4463 56.3588 40.4385 58.4815 40.4444C59.1644 40.4444 59.8493 40.4483 60.5322 40.458C60.7618 40.4619 60.7618 40.1057 60.5322 40.1018C58.39 40.0726 56.2459 40.0842 54.1037 40.092C53.4636 40.094 52.8196 40.0803 52.1814 40.0998C52.0238 40.1057 51.9635 40.1933 51.876 40.312C51.6678 40.6021 51.4596 40.8882 51.2495 41.1764C50.9226 41.6221 50.5938 42.066 50.2533 42.5021C50.0062 42.8194 49.761 43.162 49.4614 43.4326C49.3486 43.5358 49.4361 43.7421 49.5879 43.7363C50.3292 43.7051 51.0724 43.6759 51.8137 43.6448C52.0413 43.635 52.0433 43.2788 51.8137 43.2886L51.8118 43.2925Z" fill="#181755"/>
<path d="M51.8117 49.6391C51.0705 49.6702 50.3272 49.6994 49.5859 49.7306L49.7124 50.0343C49.9459 49.8221 50.1424 49.5612 50.3369 49.314C50.6268 48.948 50.909 48.5762 51.1872 48.2024C51.553 47.7099 51.9149 47.2154 52.2709 46.7171L52.1172 46.8047C54.2866 46.793 56.456 46.7852 58.6254 46.7911C59.32 46.7911 60.0146 46.7949 60.7092 46.8047C60.9388 46.8085 60.9388 46.4523 60.7092 46.4484C58.5554 46.4192 56.4016 46.4309 54.2477 46.4387C53.5667 46.4406 52.8857 46.4348 52.2067 46.4465C52.0569 46.4484 51.983 46.5049 51.8974 46.6256C51.697 46.9059 51.4946 47.1862 51.2903 47.4646C50.9537 47.924 50.6152 48.3796 50.2669 48.8293C50.0159 49.1544 49.7649 49.5028 49.4594 49.7812C49.3466 49.8844 49.4342 50.0907 49.5859 50.0849C50.3272 50.0537 51.0705 50.0246 51.8117 49.9934C52.0394 49.9837 52.0413 49.6274 51.8117 49.6371V49.6391Z" fill="#181755"/>
<path d="M52.1929 23.8349C51.6384 23.755 51.0838 23.7706 50.5293 23.8504C50.1402 23.905 49.8328 23.8582 49.5254 24.1405C48.6518 24.9406 48.8814 26.1632 48.9242 27.2124C48.9767 28.5128 49.0273 29.8133 49.0798 31.1137C49.1207 32.161 49.0818 33.2064 49.0662 34.2537C49.0506 35.301 49.1654 36.2043 49.218 37.1913C49.3328 39.3347 49.4242 41.4799 49.4923 43.6272C49.5098 44.18 49.5837 44.764 49.4884 45.3111C49.3094 46.3273 49.4534 47.4116 49.5409 48.4336C49.6441 49.6133 49.79 50.7911 49.9807 51.961C50.0351 52.2978 50.1519 52.6989 50.4826 52.7806C50.9224 51.7684 51.3621 50.756 51.8018 49.7437C51.3232 49.952 50.8017 50.0591 50.2803 50.0552C50.1811 50.0552 50.0663 50.0436 50.006 49.9618C49.9281 49.8528 50.0021 49.7029 50.0779 49.5899C50.4535 49.0273 50.829 48.4648 51.2025 47.9041C51.5216 47.4272 51.7123 46.9444 52.1909 46.5998C51.4885 46.7127 50.7823 46.7886 50.0721 46.8295C50.0215 46.8334 49.967 46.8353 49.9242 46.81C49.6129 46.6348 50.506 45.6595 50.6169 45.5155C51.1228 44.8594 51.5975 44.1781 52.0353 43.4753C51.5236 43.5415 51.0138 43.6058 50.5021 43.6719C49.432 43.8082 50.543 42.4182 50.7589 42.099C50.9749 41.7797 51.2084 41.4449 51.4282 41.1139C51.5002 41.0049 51.9419 40.1523 52.0275 40.1523C51.399 40.1562 50.7706 40.162 50.1422 40.1659C50.0488 40.1659 49.9417 40.16 49.8853 40.0861C49.8094 39.9868 49.8814 39.8466 49.9515 39.7434C50.578 38.8363 51.2337 37.9466 51.9127 37.0784C51.2979 37.0745 50.685 37.0725 50.0702 37.0686C49.4767 37.0648 49.9807 36.6151 50.1324 36.4302C50.3601 36.1537 50.5566 35.8462 50.7687 35.5561C51.1792 34.9896 51.5917 34.425 52.0022 33.8585C51.471 33.8858 50.9418 33.913 50.4107 33.9403C50.0235 33.9598 49.7122 33.8157 50.0235 33.3874C50.6791 32.4822 51.4827 31.5828 51.9866 30.5822C51.2609 30.662 50.5332 30.7438 49.8075 30.8236C49.7316 30.8314 49.6441 30.8372 49.5857 30.7866C49.4806 30.6951 49.7199 30.4732 49.8017 30.3603C50.5468 29.3304 51.1656 28.3785 51.9808 27.4052C51.2628 27.4441 50.5449 27.483 49.827 27.522C49.7803 27.5239 49.7277 27.5219 49.6985 27.4869C49.6694 27.4499 49.683 27.3935 49.6985 27.3487C50.1986 25.9821 51.8893 25.2579 52.1948 23.8349H52.1929Z" fill="#181755"/>
<path d="M57.8979 24.3822C57.2052 24.3666 56.5145 24.3705 55.8219 24.3977C55.5942 24.4055 55.5923 24.7617 55.8219 24.754C56.5126 24.7287 57.2052 24.7228 57.8979 24.7384C58.1275 24.7443 58.1275 24.388 57.8979 24.3822Z" fill="#181755"/>
<path d="M54.9479 24.4311C54.8857 24.4252 54.8273 24.4311 54.7651 24.4389C54.7184 24.4447 54.6736 24.4583 54.6289 24.4759C54.6055 24.4817 54.5861 24.4915 54.5685 24.507C54.5491 24.5187 54.5335 24.5362 54.5218 24.5576C54.5004 24.5966 54.4907 24.6511 54.5043 24.6939C54.518 24.7367 54.5452 24.7776 54.5861 24.801L54.6289 24.8185C54.66 24.8263 54.6911 24.8263 54.7242 24.8185C54.7689 24.801 54.8156 24.7873 54.8623 24.7815L54.8156 24.7873C54.8604 24.7815 54.9051 24.7815 54.9499 24.7873C54.9752 24.7873 54.9966 24.7834 55.018 24.7718C55.0394 24.764 55.0588 24.7523 55.0744 24.7348C55.1055 24.7036 55.1289 24.653 55.1269 24.6082C55.125 24.5634 55.1094 24.5148 55.0744 24.4817L55.0394 24.4545C55.0122 24.4389 54.981 24.4311 54.9499 24.4311H54.9479Z" fill="#181755"/>
<path d="M103.22 47.0443C102.204 47.163 101.155 47.1319 100.132 47.1572C99.0832 47.1845 98.0345 47.2098 96.9839 47.2312C95.9507 47.2526 94.9176 47.2701 93.8844 47.2876C93.433 47.2954 92.9816 47.2896 92.5322 47.313C92.1917 47.3305 91.8493 47.3577 91.5068 47.346C91.1644 47.3344 90.7986 47.2876 90.5029 47.0949C90.1546 46.8671 89.9931 46.4369 89.8958 46.0495C89.6526 45.0703 89.6195 44.021 89.5962 43.0165C89.5495 40.9803 89.6254 38.9421 89.6293 36.9058C89.6293 36.2595 89.5475 35.6132 89.5826 34.9669C89.6176 34.3206 89.7771 33.6743 90.3686 33.353C90.7655 33.137 91.2247 33.0727 91.6683 33.0435C92.145 33.0104 92.6217 32.991 93.1003 32.9579C94.1315 32.8878 95.1647 32.8177 96.1959 32.7476C97.2271 32.6775 98.2913 32.6055 99.34 32.5354C100.196 32.477 101.058 32.3875 101.918 32.3777C102.55 32.3719 103.309 32.4089 103.817 32.8371C104.506 33.4173 104.422 34.5795 104.463 35.3913C104.568 37.4684 104.599 39.5495 104.572 41.6305C104.558 42.6778 104.531 43.7271 104.49 44.7744C104.467 45.3915 104.479 46.1683 104.031 46.6549C103.803 46.9022 103.494 47.0054 103.169 47.0501C102.936 47.0832 103.035 47.4395 103.266 47.4064C103.955 47.3071 104.455 46.8983 104.673 46.2364C104.934 45.4441 104.87 44.5311 104.895 43.7096C104.961 41.4845 104.971 39.2574 104.899 37.0343C104.881 36.4697 104.858 35.9071 104.829 35.3426C104.803 34.8364 104.792 34.3225 104.702 33.8222C104.562 33.0454 104.152 32.4576 103.395 32.1967C102.741 31.9709 102.019 31.9884 101.338 32.0312C100.27 32.0974 99.2 32.1753 98.1318 32.2473C95.9643 32.3933 93.7969 32.5199 91.6294 32.6756C90.8667 32.7301 90.0165 32.9072 89.5787 33.5983C89.2168 34.1687 89.1934 34.9045 89.209 35.5586C89.2265 36.3549 89.2576 37.1414 89.246 37.9395C89.2304 39.0569 89.2207 40.1744 89.2187 41.2937C89.2168 42.4131 89.2129 43.4643 89.3082 44.5447C89.3841 45.411 89.4269 46.5537 90.0729 47.2176C90.571 47.7296 91.3648 47.7393 92.0283 47.7101C93.0011 47.6673 93.9739 47.6575 94.9487 47.64C97.1765 47.6011 99.4043 47.5504 101.63 47.4862C102.157 47.4706 102.692 47.4745 103.218 47.4142C103.451 47.3869 103.453 47.019 103.218 47.0462L103.22 47.0443Z" fill="#181755"/>
<path d="M112.407 28.3674C112.427 28.2915 112.446 28.2156 112.468 28.1396C112.382 28.9573 112.643 29.808 113.174 30.4348C113.705 31.0636 114.499 31.4608 115.32 31.5114C114.8 31.5854 112.37 32.4341 112.043 31.854C111.97 31.7216 111.979 31.562 111.991 31.4121C112.073 30.3901 112.156 29.3602 112.407 28.3674Z" fill="#181755"/>
<path d="M105.697 11.3023C104.129 10.3406 102.492 9.49381 100.801 8.76574C99.9999 8.42117 99.1905 8.09605 98.4005 7.72423C97.6106 7.3524 96.8362 6.96697 96.0404 6.6185C95.1435 6.22527 94.2251 5.88266 93.2698 5.65878C93.048 5.60622 92.9527 5.94885 93.1745 6.00141C94.8692 6.40049 96.4237 7.17915 97.988 7.92279C99.5893 8.68396 101.249 9.30691 102.833 10.109C103.747 10.5723 104.642 11.0746 105.516 11.6099C105.712 11.7306 105.889 11.423 105.695 11.3023H105.697Z" fill="#181755"/>
<path d="M107.901 12.5632C107.745 12.4075 107.59 12.2518 107.436 12.098C107.37 12.0318 107.249 12.0279 107.185 12.098C107.121 12.1681 107.115 12.279 107.185 12.3491C107.341 12.5048 107.496 12.6606 107.65 12.8144C107.716 12.8806 107.837 12.8844 107.901 12.8144C107.965 12.7443 107.971 12.6333 107.901 12.5632Z" fill="#181755"/>
<path d="M100.876 11.0355C99.0291 10.2159 97.1885 9.37691 95.2662 8.74812C95.0483 8.6761 94.9549 9.02067 95.1709 9.09075C97.0659 9.7098 98.8754 10.5352 100.697 11.3431C100.905 11.4346 101.086 11.129 100.876 11.0355Z" fill="#181755"/>
<path d="M114.238 23.9869C114.182 22.9434 114.219 21.8981 114.176 20.8546C114.133 19.8112 113.979 18.7677 113.647 17.7691C113.575 17.553 113.23 17.6464 113.304 17.8644C113.635 18.8631 113.785 19.891 113.824 20.9383C113.863 21.9857 113.83 22.9726 113.884 23.9888C113.896 24.2166 114.252 24.2185 114.24 23.9888L114.238 23.9869Z" fill="#181755"/>
<path d="M115.635 22.2411C115.635 21.1626 115.538 20.0958 115.318 19.0407C115.271 18.8168 114.929 18.9122 114.976 19.1361C115.19 20.162 115.279 21.1957 115.279 22.2411C115.279 22.4708 115.635 22.4708 115.635 22.2411Z" fill="#181755"/>
<path d="M57.4991 18.734C57.4738 18.15 57.6217 16.7114 57.1605 16.2792C56.6586 15.8081 56.0398 16.2208 55.8161 16.7581C55.5398 17.4258 55.7246 18.8644 56.0146 19.4893C56.1916 19.869 56.6566 20.1493 57.038 19.9741C57.466 19.7794 57.5185 19.2031 57.4991 18.734Z" fill="#181755"/>
<path d="M57.6682 18.7343C57.6449 18.0822 57.7247 17.4222 57.5807 16.7779C57.5126 16.4742 57.3822 16.1939 57.1098 16.0265C56.781 15.824 56.3861 15.8921 56.0903 16.1199C55.4813 16.591 55.4677 17.4378 55.53 18.1367C55.5883 18.783 55.6915 19.6707 56.2946 20.0464C56.6526 20.2703 57.1215 20.2372 57.3978 19.8985C57.6585 19.5792 57.6819 19.1237 57.6682 18.7304C57.6605 18.5124 57.32 18.5105 57.3278 18.7304C57.3375 19.0166 57.3394 19.3436 57.1916 19.6006C57.0281 19.8848 56.7071 19.9121 56.4464 19.7389C56.1993 19.5734 56.1059 19.2989 56.03 19.0244C55.9502 18.7343 55.8996 18.4345 55.8705 18.1347C55.8199 17.5877 55.7848 16.8908 56.2032 16.4684C56.4269 16.2426 56.7479 16.1491 57.0106 16.371C57.1877 16.5209 57.2402 16.772 57.2772 16.9901C57.3744 17.5644 57.3064 18.1503 57.3278 18.7304C57.3355 18.9485 57.676 18.9504 57.6682 18.7304V18.7343Z" fill="#181755"/>
<path d="M54.5901 18.7343C54.5668 18.0822 54.6465 17.4222 54.5026 16.7779C54.4345 16.4742 54.3041 16.1939 54.0317 16.0265C53.7029 15.824 53.3079 15.8921 53.0122 16.1199C52.4032 16.591 52.3896 17.4378 52.4518 18.1367C52.5102 18.783 52.6133 19.6707 53.2165 20.0464C53.5745 20.2703 54.0434 20.2372 54.3197 19.8985C54.5804 19.5792 54.6037 19.1237 54.5901 18.7304C54.5823 18.5124 54.2418 18.5105 54.2496 18.7304C54.2594 19.0166 54.2613 19.3436 54.1134 19.6006C53.95 19.8848 53.629 19.9121 53.3682 19.7389C53.1211 19.5734 53.0278 19.2989 52.9519 19.0244C52.8721 18.7343 52.8215 18.4345 52.7923 18.1347C52.7417 17.5877 52.7067 16.8908 53.125 16.4684C53.3488 16.2426 53.6698 16.1491 53.9325 16.371C54.1095 16.5209 54.1621 16.772 54.199 16.9901C54.2963 17.5644 54.2282 18.1503 54.2496 18.7304C54.2574 18.9485 54.5979 18.9504 54.5901 18.7304V18.7343Z" fill="#181755"/>
<path d="M51.3059 18.7343C51.2826 18.0822 51.3624 17.4222 51.2184 16.7779C51.1503 16.4742 51.0199 16.1939 50.7475 16.0265C50.4187 15.824 50.0238 15.8921 49.728 16.1199C49.119 16.591 49.1054 17.4378 49.1677 18.1367C49.226 18.783 49.3292 19.6707 49.9323 20.0464C50.2903 20.2703 50.7592 20.2372 51.0355 19.8985C51.2962 19.5792 51.3196 19.1237 51.3059 18.7304C51.2982 18.5124 50.9577 18.5105 50.9654 18.7304C50.9752 19.0166 50.9771 19.3436 50.8293 19.6006C50.6658 19.8848 50.3448 19.9121 50.0841 19.7389C49.837 19.5734 49.7436 19.2989 49.6677 19.0244C49.5879 18.7343 49.5373 18.4345 49.5082 18.1347C49.4576 17.5877 49.4225 16.8908 49.8409 16.4684C50.0646 16.2426 50.3856 16.1491 50.6483 16.371C50.8254 16.5209 50.8779 16.772 50.9149 16.9901C51.0121 17.5644 50.944 18.1503 50.9654 18.7304C50.9732 18.9485 51.3137 18.9504 51.3059 18.7304V18.7343Z" fill="#181755"/>
<path d="M92.4468 102.568V108.188C92.4468 111.418 92.4468 114.649 92.4468 117.879C92.4468 118.907 92.4468 119.935 92.4468 120.962C92.4468 121.99 92.476 123.008 92.2075 123.984C92.1102 124.332 92.0285 124.535 91.8223 124.842C91.7542 124.945 91.8067 124.875 91.7347 124.955C91.6822 125.012 91.6297 125.07 91.5732 125.123C91.546 125.148 91.3923 125.271 91.4526 125.228C91.3884 125.274 91.3222 125.317 91.2541 125.358C90.9623 125.531 90.7035 125.617 90.328 125.703C89.898 125.802 89.4933 125.841 89.0497 125.868C88.4699 125.903 87.8901 125.901 87.3103 125.899C85.7226 125.895 84.135 125.893 82.5473 125.89C79.7436 125.884 76.9419 125.878 74.1382 125.872C70.7138 125.864 67.2895 125.858 63.8651 125.851C60.4116 125.843 56.96 125.837 53.5064 125.829C50.6191 125.823 47.7317 125.818 44.8444 125.812C43.1166 125.808 41.3889 125.804 39.6611 125.8C39.5561 125.8 39.4491 125.8 39.344 125.8C39.3031 125.8 39.2623 125.8 39.2234 125.8C39.2059 125.8 39.1903 125.8 39.1728 125.8C39.165 125.8 39.1553 125.8 39.1475 125.8C39.0249 125.804 39.1689 125.816 39.1027 125.8C39.0716 125.792 39.0405 125.783 39.0094 125.775C38.9101 125.747 39.0852 125.821 38.9957 125.769C38.9704 125.753 38.8323 125.662 38.9179 125.728C38.7564 125.601 38.737 125.561 38.6572 125.43C38.486 125.154 38.4101 124.912 38.3362 124.556C38.2681 124.229 38.2447 123.851 38.2719 123.466C38.2914 123.193 38.3828 122.757 38.4957 122.533C38.6455 122.239 38.7603 122.08 39.0385 121.959C38.9588 121.992 39.13 121.936 39.1592 121.928C39.1689 121.926 39.2993 121.909 39.2059 121.918C39.2487 121.914 39.2934 121.912 39.3362 121.912C39.3557 121.912 39.3751 121.912 39.3946 121.912C40.6379 121.903 41.8792 121.912 43.1225 121.912C45.6907 121.912 48.259 121.912 50.8253 121.912C54.1174 121.912 57.4094 121.912 60.7015 121.912C64.1142 121.912 67.5269 121.912 70.9395 121.912C73.8697 121.912 76.7999 121.912 79.73 121.912C81.5745 121.912 83.419 121.912 85.2635 121.912C86.855 121.912 89.0653 122.158 89.6704 120.31C89.9739 119.384 89.8922 118.352 89.8922 117.386C89.8922 116.421 89.8922 114.93 89.8922 113.701C89.8922 112.473 89.8922 107.468 89.8922 104.353V102.562C89.8922 101.998 89.0166 101.998 89.0166 102.562C89.0166 104.7 89.0166 106.837 89.0166 108.977C89.0166 111.116 89.0166 114.68 89.0166 117.532C89.0166 117.743 89.0166 117.953 89.0166 118.161C89.0166 118.889 89.0303 119.789 88.7053 120.351C88.5847 120.561 88.4193 120.705 88.1742 120.809C87.8765 120.935 87.4523 120.992 87.0943 121.015C86.783 121.036 86.4717 121.038 86.1585 121.038C84.9016 121.038 83.6447 121.038 82.3878 121.038C79.7884 121.038 77.187 121.038 74.5876 121.038C71.2703 121.038 67.9549 121.038 64.6376 121.038C61.2113 121.038 57.7869 121.038 54.3606 121.038C51.4265 121.038 48.4905 121.038 45.5565 121.038C43.7587 121.038 41.9609 121.038 40.1631 121.038C39.6592 121.038 39.1027 120.982 38.6338 121.188C37.9392 121.496 37.5812 122.255 37.4587 122.968C37.3244 123.754 37.3692 124.607 37.6571 125.356C37.912 126.02 38.379 126.647 39.1475 126.676C39.3401 126.684 39.5327 126.676 39.7234 126.676C40.4219 126.676 41.1204 126.68 41.8189 126.682C44.2548 126.688 46.6927 126.692 49.1287 126.697C52.4091 126.703 55.6895 126.711 58.9679 126.717C62.4973 126.725 66.0268 126.731 69.5562 126.738C72.7315 126.744 75.9087 126.752 79.0841 126.758C81.3118 126.762 83.5396 126.768 85.7654 126.771C87.0885 126.773 88.4524 126.842 89.7638 126.68C90.5615 126.581 91.365 126.398 92.0091 125.892C92.583 125.44 92.9118 124.774 93.0831 124.075C93.3321 123.053 93.3185 121.988 93.3185 120.943C93.3185 118.321 93.3185 115.699 93.3185 113.074C93.3185 110.45 93.3185 107.08 93.3185 104.084V102.566C93.3185 102.001 92.4429 102.001 92.4429 102.566L92.4468 102.568Z" fill="#181755"/>
<path d="M62.9603 102.568V114.809C62.9603 115.724 63.0518 116.73 62.83 117.626C62.5517 118.747 61.8396 119.738 60.861 120.353C60.357 120.668 59.8045 120.879 59.2208 120.984C58.7966 121.06 58.3627 121.044 57.9347 121.044H57.5008C56.9366 121.044 56.9366 121.92 57.5008 121.92C58.4445 121.92 59.3745 121.936 60.2773 121.605C61.4797 121.165 62.5109 120.31 63.1413 119.193C63.6082 118.366 63.8359 117.433 63.8378 116.485C63.8378 116.14 63.8378 115.796 63.8378 115.449V105.552C63.8378 104.573 63.8709 103.588 63.8378 102.609C63.8378 102.595 63.8378 102.58 63.8378 102.566C63.8378 102.001 62.9623 102.001 62.9623 102.566L62.9603 102.568Z" fill="#181755"/>
<path d="M70.4688 121.38C69.8286 122.966 69.7197 124.983 70.5135 126.534C70.7703 127.037 71.5252 126.593 71.2704 126.093C70.5835 124.747 70.7664 122.972 71.3151 121.613C71.4046 121.393 71.2178 121.132 71.0096 121.074C70.7587 121.006 70.5602 121.16 70.4707 121.38H70.4688Z" fill="#181755"/>
<path d="M89.4542 102.568H63.3979V105.35H89.4542V102.568Z" fill="#181755"/>
<path d="M87.5593 121.496H73.8716V126.341H89.7404C91.4759 126.341 92.8845 124.932 92.8845 123.195V102.108H89.4543V119.6C89.4543 120.647 88.606 121.496 87.5593 121.496Z" fill="#181755"/>
<path d="M73.1087 121.496H71.665V126.314H73.1087V121.496Z" fill="#181755"/>
<path d="M39.1863 31.4373C37.5072 31.5911 35.8008 31.3321 34.3358 30.4639C33.0711 29.7144 32.0963 28.5698 31.4912 27.2343C30.065 24.0865 30.8666 19.8971 33.5361 17.6545C35.149 16.2996 37.4624 15.6844 39.5151 16.2061C40.0132 16.3327 40.2272 15.5618 39.7272 15.4353C37.6842 14.9155 35.4428 15.3846 33.6976 16.5449C31.929 17.7187 30.7519 19.5954 30.2732 21.6472C29.8666 23.3915 29.9055 25.2545 30.5164 26.9462C31.0709 28.486 32.0516 29.8351 33.3804 30.7968C35.0518 32.0057 37.1531 32.4262 39.1824 32.2413C39.6902 32.1946 39.696 31.3944 39.1824 31.4412L39.1863 31.4373Z" fill="#181755"/>
<path d="M128.977 87.5418C125.208 87.6099 121.439 87.534 117.67 87.497C116.614 87.4872 115.557 87.4795 114.501 87.4795C114.271 87.4795 114.271 87.8357 114.501 87.8357C118.268 87.8357 122.034 87.9272 125.801 87.9253C126.86 87.9253 127.918 87.9175 128.977 87.898C129.204 87.8941 129.206 87.5379 128.977 87.5418Z" fill="#181755"/>
<path d="M113.053 87.4639H110.253C110.024 87.4639 110.024 87.8201 110.253 87.8201H113.053C113.283 87.8201 113.283 87.4639 113.053 87.4639Z" fill="#181755"/>
<path d="M125.813 89.5408C124.091 89.5233 122.367 89.5038 120.645 89.4863C120.398 89.4843 120.151 89.4805 119.906 89.4785C119.676 89.4766 119.676 89.8328 119.906 89.8347C121.628 89.8523 123.352 89.8717 125.074 89.8893C125.321 89.8912 125.568 89.8951 125.813 89.897C126.043 89.899 126.043 89.5427 125.813 89.5408Z" fill="#181755"/>
<path d="M18.4556 86.7957C16.0586 86.7685 13.6596 86.7509 11.2625 86.7412C10.2021 86.7373 9.14371 86.7334 8.08332 86.7334C7.85374 86.7334 7.85374 87.0897 8.08332 87.0897C11.2898 87.0897 14.4982 87.113 17.7046 87.1442C17.9556 87.1461 18.2046 87.15 18.4556 87.1519C18.6852 87.1539 18.6852 86.7996 18.4556 86.7957Z" fill="#181755"/>
<path d="M6.63557 86.7158C5.82034 86.7158 5.0051 86.7158 4.18793 86.7158C4.07119 86.7158 3.9525 86.7158 3.83576 86.7158C3.60618 86.7158 3.60618 87.0721 3.83576 87.0721C4.651 87.0721 5.46622 87.0721 6.2834 87.0721C6.40014 87.0721 6.51883 87.0721 6.63557 87.0721C6.86515 87.0721 6.86515 86.7158 6.63557 86.7158Z" fill="#181755"/>
<path d="M9.80479 88.7469C8.08289 88.7294 6.35903 88.7099 4.63713 88.6924C4.39003 88.6904 4.14293 88.6865 3.89778 88.6846C3.66819 88.6826 3.66819 89.0389 3.89778 89.0408C5.61968 89.0584 7.34354 89.0778 9.06544 89.0953C9.31254 89.0973 9.55964 89.1012 9.80479 89.1031C10.0344 89.105 10.0344 88.7488 9.80479 88.7469Z" fill="#181755"/>
<path d="M111.971 32.2375C113.804 32.4049 115.69 32.0837 117.277 31.124C118.661 30.2869 119.76 29.0118 120.404 27.5303C121.922 24.0457 121.1 19.43 118.073 16.9947C116.24 15.5191 113.732 14.8475 111.429 15.4315C110.93 15.558 111.141 16.3309 111.641 16.2024C113.51 15.7274 115.534 16.2024 117.116 17.2711C118.725 18.3613 119.737 20.127 120.145 22.0036C120.795 24.9996 119.861 28.3616 117.275 30.1701C115.721 31.2563 113.839 31.6067 111.973 31.4354C111.462 31.3887 111.464 32.1888 111.973 32.2356L111.971 32.2375Z" fill="#181755"/>
<path d="M116.252 58.8741C116.954 57.3186 117.285 55.4712 116.637 53.836C116.094 52.4674 114.919 51.2974 113.431 51.0541C113.197 51.0152 112.96 51.1145 112.892 51.3597C112.833 51.57 112.964 51.8601 113.197 51.899C114.402 52.0976 115.388 53.0067 115.818 54.1358C116.349 55.5296 116.096 57.1025 115.495 58.4321C115.398 58.6482 115.433 58.9033 115.653 59.0317C115.839 59.1408 116.155 59.0921 116.252 58.8741Z" fill="#181755"/>
<path d="M129.504 57.8984C129.689 56.4092 129.597 54.8693 129.002 53.4774C128.502 52.3094 127.622 51.2796 126.473 50.7151C125.969 50.4678 125.525 51.2231 126.031 51.4723C127.045 51.9707 127.809 52.8623 128.237 53.9019C128.757 55.1633 128.794 56.561 128.628 57.8984C128.599 58.134 128.85 58.3364 129.066 58.3364C129.327 58.3364 129.475 58.134 129.504 57.8984Z" fill="#181755"/>
<path d="M128.556 26.9988C127.971 26.0137 127.729 24.8749 127.817 23.7341C127.86 23.1774 127.994 22.6226 128.204 22.1067C128.401 21.62 128.689 21.0165 129.156 20.7401C129.623 20.4637 129.2 19.6967 128.714 19.9828C128.111 20.3391 127.733 21.001 127.463 21.6259C127.192 22.2508 127.025 22.901 126.955 23.5784C126.819 24.91 127.117 26.2863 127.8 27.4368C128.087 27.9215 128.844 27.4816 128.556 26.9949V26.9988Z" fill="#181755"/>
<path d="M129.375 26.2667C129.002 25.6573 128.83 24.9507 128.877 24.2382C128.893 24.0104 128.537 24.0104 128.521 24.2382C128.469 25.0091 128.663 25.7878 129.068 26.4478C129.187 26.6424 129.496 26.4633 129.375 26.2686V26.2667Z" fill="#181755"/>
<path d="M128.955 23.265C129.01 23.1229 129.066 22.9808 129.12 22.8387C129.136 22.7978 129.124 22.7375 129.103 22.7025C129.082 22.6674 129.039 22.6304 128.996 22.6207C128.951 22.6109 128.899 22.6129 128.86 22.6382L128.825 22.6654C128.803 22.6868 128.788 22.7141 128.778 22.7433C128.724 22.8854 128.667 23.0275 128.613 23.1696C128.597 23.2105 128.609 23.2709 128.63 23.3059C128.652 23.3409 128.694 23.378 128.737 23.3877C128.782 23.3974 128.834 23.3955 128.873 23.3702L128.908 23.3429C128.93 23.3215 128.945 23.2942 128.955 23.265Z" fill="#181755"/>
<path d="M138.64 31.8454C138.65 31.8104 138.662 31.7753 138.674 31.7403C138.679 31.7208 138.691 31.7014 138.695 31.6838C138.693 31.6936 138.681 31.7131 138.691 31.6916C138.695 31.6819 138.699 31.6721 138.705 31.6644C138.736 31.5962 138.773 31.5301 138.816 31.4658C138.825 31.4503 138.837 31.4346 138.847 31.421C138.851 31.4152 138.856 31.4074 138.86 31.4016C138.872 31.3899 138.876 31.3821 138.86 31.4016C138.888 31.3782 138.907 31.3432 138.932 31.3179C138.985 31.2595 139.041 31.2069 139.102 31.1582C139.174 31.0998 139.168 30.9675 139.102 30.9071C139.024 30.837 138.928 30.8448 138.851 30.9071C138.586 31.1212 138.391 31.423 138.298 31.752C138.273 31.8415 138.329 31.9505 138.423 31.97C138.516 31.9895 138.613 31.9408 138.64 31.8454Z" fill="#181755"/>
<path d="M127.69 56.8571C127.607 55.5197 127.336 54.233 126.566 53.1136C126.437 52.9267 126.128 53.1039 126.258 53.2927C126.994 54.3634 127.255 55.5781 127.334 56.8571C127.348 57.0849 127.704 57.0869 127.69 56.8571Z" fill="#181755"/>
<path d="M115.036 57.84C115.341 56.598 115.256 55.2801 114.781 54.0926C114.697 53.8823 114.353 53.9738 114.438 54.188C114.892 55.319 114.985 56.561 114.693 57.7466C114.639 57.9685 114.981 58.0639 115.036 57.842V57.84Z" fill="#181755"/>
<path d="M113.754 57.4138C113.806 57.0964 113.794 56.7733 113.705 56.4638C113.68 56.3742 113.579 56.31 113.487 56.3392C113.396 56.3684 113.335 56.4618 113.363 56.5572C113.382 56.6234 113.398 56.6915 113.409 56.7597C113.411 56.7753 113.415 56.7908 113.417 56.8064C113.421 56.8278 113.421 56.8278 113.417 56.8064C113.417 56.8142 113.417 56.8219 113.419 56.8297C113.423 56.8648 113.425 56.8979 113.427 56.9329C113.431 57.003 113.431 57.0711 113.427 57.1412C113.427 57.1724 113.423 57.2055 113.419 57.2366C113.419 57.2522 113.415 57.2678 113.413 57.2853C113.419 57.2444 113.409 57.3106 113.407 57.3164C113.392 57.4079 113.431 57.5131 113.532 57.5345C113.617 57.5539 113.734 57.5091 113.75 57.4099L113.754 57.4138Z" fill="#181755"/>
</svg>
