<svg width="24" height="24" viewBox="0 0 24 24" fill="none" xmlns="http://www.w3.org/2000/svg">
<g clip-path="url(#clip0_1977_287)">
<path d="M20.9787 4.71279C20.9599 4.59272 20.84 4.52636 20.7409 4.51907C20.642 4.51178 18.5487 4.37579 18.5487 4.37579C18.5487 4.37579 17.095 3.11044 16.9355 2.97042C16.7758 2.8304 16.464 2.87298 16.343 2.90425C16.3251 2.90885 16.0253 2.98998 15.5294 3.12444C15.0437 1.89937 14.1867 0.77346 12.6789 0.77346C12.6373 0.77346 12.5944 0.774994 12.5515 0.777104C12.1227 0.27994 11.5915 0.0639648 11.1328 0.0639648C7.62046 0.0639648 5.94242 3.91334 5.41625 5.86958C4.05151 6.24035 3.08187 6.50389 2.95804 6.53803C2.19625 6.74749 2.17218 6.76858 2.0722 7.3979C1.99672 7.87435 0.00341797 21.3891 0.00341797 21.3891L15.5357 23.9405L23.9517 22.3443C23.9517 22.3443 20.9973 4.83287 20.9787 4.71279ZM14.6709 3.35729C14.2808 3.46317 13.8373 3.58343 13.3567 3.71386C13.3571 3.63273 13.3575 3.55275 13.3575 3.46547C13.3575 2.704 13.237 2.09098 13.0436 1.60494C13.8205 1.69049 14.3379 2.46539 14.6709 3.35729ZM12.0799 1.7559C12.2958 2.23043 12.4363 2.91134 12.4363 3.83029C12.4363 3.87728 12.4358 3.92025 12.4354 3.96379C11.5806 4.19587 10.6519 4.44791 9.72097 4.70071C10.2436 2.93225 11.2233 2.07813 12.0799 1.7559ZM11.0363 0.889886C11.1879 0.889886 11.3406 0.934961 11.4867 1.02319C10.3611 1.48756 9.15455 2.6572 8.64501 4.99283C7.90028 5.195 7.1724 5.39256 6.49943 5.57535C7.09627 3.79385 8.51352 0.889886 11.0363 0.889886Z" fill="#95BF46"/>
<path d="M20.741 4.51888C20.6421 4.51159 18.5488 4.3756 18.5488 4.3756C18.5488 4.3756 17.095 3.11024 16.9355 2.97022C16.8758 2.91805 16.7953 2.89139 16.711 2.87988L15.5366 23.9401L23.9518 22.3441C23.9518 22.3441 20.9974 4.83267 20.9788 4.7126C20.96 4.59253 20.8401 4.52616 20.741 4.51888Z" fill="#5E8E3E"/>
<path d="M12.6787 8.59583L11.641 11.302C11.641 11.302 10.7318 10.8766 9.61729 10.8766C7.98344 10.8766 7.90118 11.7756 7.90118 12.0021C7.90118 13.2381 11.5762 13.7117 11.5762 16.6068C11.5762 18.8846 9.9284 20.3513 7.70647 20.3513C5.04019 20.3513 3.67676 18.8964 3.67676 18.8964L4.39064 16.8286C4.39064 16.8286 5.79214 17.8835 6.97487 17.8835C7.7476 17.8835 8.06198 17.3501 8.06198 16.9603C8.06198 15.348 5.04698 15.2761 5.04698 12.6268C5.04698 10.3971 6.87248 8.23926 10.5574 8.23926C11.9773 8.23926 12.6787 8.59583 12.6787 8.59583Z" fill="white"/>
</g>
<defs>
<clipPath id="clip0_1977_287">
<rect width="24" height="24" fill="white"/>
</clipPath>
</defs>
</svg>
