<svg width="24" height="24" viewBox="0 0 24 24" fill="none" xmlns="http://www.w3.org/2000/svg">
<g clip-path="url(#clip0_1977_1087)">
<path fill-rule="evenodd" clip-rule="evenodd" d="M8.76089 0.059082C8.44679 0.0593737 8.13582 0.121537 7.84575 0.242021C7.55567 0.362505 7.29217 0.538951 7.0703 0.761281C6.84842 0.983611 6.67252 1.24747 6.55263 1.53779C6.43273 1.82811 6.37121 2.1392 6.37156 2.4533C6.37127 2.76737 6.43284 3.07841 6.55275 3.36868C6.67267 3.65895 6.84859 3.92276 7.07046 4.14504C7.29233 4.36732 7.55581 4.54373 7.84585 4.66419C8.1359 4.78464 8.44683 4.84679 8.76089 4.84708H11.1502V2.4533C11.1506 2.1392 11.089 1.82811 10.9692 1.53779C10.8493 1.24747 10.6734 0.983611 10.4515 0.761281C10.2296 0.538951 9.96611 0.362505 9.67603 0.242021C9.38596 0.121537 9.07499 0.0593737 8.76089 0.059082ZM8.76089 6.44353H2.38933C2.07527 6.44382 1.76434 6.50597 1.4743 6.62642C1.18425 6.74688 0.92077 6.92329 0.6989 7.14557C0.47703 7.36785 0.301114 7.63166 0.181197 7.92193C0.0612799 8.2122 -0.000290474 8.52324 1.488e-06 8.83731C-0.000348881 9.15141 0.0611784 9.4625 0.181069 9.75282C0.300961 10.0431 0.476867 10.307 0.698743 10.5293C0.920619 10.7517 1.18412 10.9281 1.47419 11.0486C1.76427 11.1691 2.07523 11.2312 2.38933 11.2315H8.76089C9.07499 11.2312 9.38596 11.1691 9.67603 11.0486C9.96611 10.9281 10.2296 10.7517 10.4515 10.5293C10.6734 10.307 10.8493 10.0431 10.9692 9.75282C11.089 9.4625 11.1506 9.15141 11.1502 8.83731C11.1505 8.52324 11.0889 8.2122 10.969 7.92193C10.8491 7.63166 10.6732 7.36785 10.4513 7.14557C10.2295 6.92329 9.96598 6.74688 9.67593 6.62642C9.38589 6.50597 9.07495 6.44382 8.76089 6.44353Z" fill="#36C5F0"/>
<path fill-rule="evenodd" clip-rule="evenodd" d="M23.8934 8.83731C23.8937 8.52324 23.8321 8.2122 23.7122 7.92193C23.5923 7.63166 23.4164 7.36785 23.1945 7.14557C22.9726 6.92329 22.7091 6.74688 22.4191 6.62642C22.129 6.50597 21.8181 6.44382 21.5041 6.44353C21.19 6.44382 20.8791 6.50597 20.589 6.62642C20.299 6.74688 20.0355 6.92329 19.8136 7.14557C19.5917 7.36785 19.4158 7.63166 19.2959 7.92193C19.176 8.2122 19.1144 8.52324 19.1147 8.83731V11.2315H21.5041C21.8182 11.2312 22.1291 11.1691 22.4192 11.0486C22.7093 10.9281 22.9728 10.7517 23.1946 10.5293C23.4165 10.307 23.5924 10.0431 23.7123 9.75282C23.8322 9.4625 23.8937 9.15141 23.8934 8.83731ZM17.5218 8.83731V2.4533C17.5222 2.1392 17.4607 1.82811 17.3408 1.53779C17.2209 1.24747 17.045 0.983611 16.8231 0.761281C16.6012 0.538951 16.3377 0.362505 16.0476 0.242021C15.7576 0.121537 15.4466 0.0593737 15.1325 0.059082C14.8184 0.0593737 14.5074 0.121537 14.2174 0.242021C13.9273 0.362505 13.6638 0.538951 13.4419 0.761281C13.22 0.983611 13.0441 1.24747 12.9242 1.53779C12.8043 1.82811 12.7428 2.1392 12.7432 2.4533V8.83731C12.7428 9.15141 12.8043 9.4625 12.9242 9.75282C13.0441 10.0431 13.22 10.307 13.4419 10.5293C13.6638 10.7517 13.9273 10.9281 14.2174 11.0486C14.5074 11.1691 14.8184 11.2312 15.1325 11.2315C15.4466 11.2312 15.7576 11.1691 16.0476 11.0486C16.3377 10.9281 16.6012 10.7517 16.8231 10.5293C17.045 10.307 17.2209 10.0431 17.3408 9.75282C17.4607 9.4625 17.5222 9.15141 17.5218 8.83731Z" fill="#2EB67D"/>
<path fill-rule="evenodd" clip-rule="evenodd" d="M15.1325 24.0001C15.4466 23.9998 15.7576 23.9376 16.0476 23.8171C16.3377 23.6967 16.6012 23.5202 16.8231 23.2979C17.045 23.0756 17.2209 22.8117 17.3408 22.5214C17.4607 22.2311 17.5222 21.92 17.5218 21.6059C17.5221 21.2918 17.4606 20.9808 17.3406 20.6905C17.2207 20.4002 17.0448 20.1364 16.8229 19.9141C16.6011 19.6918 16.3376 19.5154 16.0475 19.395C15.7575 19.2745 15.4466 19.2124 15.1325 19.2121H12.7432V21.6059C12.7428 21.92 12.8043 22.2311 12.9242 22.5214C13.0441 22.8117 13.22 23.0756 13.4419 23.2979C13.6638 23.5202 13.9273 23.6967 14.2174 23.8171C14.5074 23.9376 14.8184 23.9998 15.1325 24.0001ZM15.1325 17.6156H21.5041C21.8181 17.6153 22.129 17.5532 22.4191 17.4327C22.7091 17.3123 22.9726 17.1359 23.1945 16.9136C23.4164 16.6913 23.5923 16.4275 23.7122 16.1372C23.8321 15.847 23.8937 15.5359 23.8934 15.2219C23.8937 14.9078 23.8322 14.5967 23.7123 14.3063C23.5924 14.016 23.4165 13.7522 23.1946 13.5298C22.9728 13.3075 22.7093 13.1311 22.4192 13.0106C22.1291 12.8901 21.8182 12.8279 21.5041 12.8276H15.1325C14.8184 12.8279 14.5074 12.8901 14.2174 13.0106C13.9273 13.1311 13.6638 13.3075 13.4419 13.5298C13.22 13.7522 13.0441 14.016 12.9242 14.3063C12.8043 14.5967 12.7428 14.9078 12.7432 15.2219C12.7429 15.5359 12.8044 15.847 12.9244 16.1372C13.0443 16.4275 13.2202 16.6913 13.4421 16.9136C13.6639 17.1359 13.9274 17.3123 14.2175 17.4327C14.5075 17.5532 14.8184 17.6153 15.1325 17.6156Z" fill="#ECB22E"/>
<path fill-rule="evenodd" clip-rule="evenodd" d="M2.02511e-06 15.2219C-0.000289937 15.5359 0.0612804 15.847 0.181198 16.1372C0.301115 16.4275 0.477031 16.6913 0.698901 16.9136C0.920771 17.1359 1.18425 17.3123 1.4743 17.4327C1.76434 17.5532 2.07527 17.6153 2.38934 17.6156C2.7034 17.6153 3.01433 17.5532 3.30438 17.4327C3.59442 17.3123 3.8579 17.1359 4.07977 16.9136C4.30164 16.6913 4.47756 16.4275 4.59747 16.1372C4.71739 15.847 4.77896 15.5359 4.77867 15.2219V12.8276H2.38934C2.0752 12.8279 1.76419 12.8901 1.47409 13.0106C1.18399 13.1311 0.920468 13.3076 0.698586 13.53C0.476704 13.7524 0.300807 14.0163 0.180942 14.3067C0.0610774 14.597 -0.000406765 14.9082 2.02511e-06 15.2223V15.2219ZM6.37156 15.2219V21.6059C6.37121 21.92 6.43273 22.2311 6.55263 22.5214C6.67252 22.8117 6.84842 23.0756 7.0703 23.2979C7.29218 23.5202 7.55567 23.6967 7.84575 23.8171C8.13582 23.9376 8.44679 23.9998 8.76089 24.0001C9.07499 23.9998 9.38596 23.9376 9.67603 23.8171C9.96611 23.6967 10.2296 23.5202 10.4515 23.2979C10.6734 23.0756 10.8493 22.8117 10.9692 22.5214C11.089 22.2311 11.1506 21.92 11.1502 21.6059V15.2223C11.1506 14.9082 11.089 14.5971 10.9692 14.3068C10.8493 14.0165 10.6734 13.7526 10.4515 13.5303C10.2296 13.308 9.96611 13.1315 9.67603 13.011C9.38596 12.8905 9.07499 12.8284 8.76089 12.8281C8.44679 12.8284 8.13582 12.8905 7.84575 13.011C7.55567 13.1315 7.29218 13.308 7.0703 13.5303C6.84842 13.7526 6.67252 14.0165 6.55263 14.3068C6.43273 14.5971 6.37121 14.9082 6.37156 15.2223" fill="#E01E5A"/>
</g>
<defs>
<clipPath id="clip0_1977_1087">
<rect width="24" height="24" fill="white"/>
</clipPath>
</defs>
</svg>
