<svg width="24" height="24" viewBox="0 0 24 24" fill="none" xmlns="http://www.w3.org/2000/svg">
<g clip-path="url(#clip0_1977_182)">
<path d="M23.9134 17.4726C23.747 17.0179 23.4282 16.7765 23.0673 16.5749C22.9993 16.5351 22.936 16.5022 22.8845 16.4788C22.7767 16.4226 22.6665 16.3687 22.5564 16.3124C21.429 15.7147 20.5478 14.9601 19.9384 14.0671C19.7321 13.7647 19.5892 13.4929 19.4884 13.2702C19.4368 13.1202 19.4392 13.0358 19.4767 12.9585C19.5048 12.8999 19.5798 12.839 19.622 12.8085C19.8165 12.6796 20.0157 12.5507 20.1517 12.464C20.3931 12.3069 20.5853 12.1827 20.7071 12.0983C21.1712 11.7749 21.4946 11.4304 21.6962 11.046C21.9821 10.5046 22.0173 9.88584 21.797 9.30459C21.4923 8.49834 20.7282 7.99678 19.8048 7.99678C19.6126 7.99678 19.4181 8.01787 19.2259 8.06006C19.1743 8.07178 19.1251 8.0835 19.0759 8.09521C19.0853 7.54678 19.0712 6.96084 19.022 6.38897C18.8485 4.37334 18.1431 3.31631 17.4071 2.4749C17.1001 2.12334 16.5657 1.61006 15.7642 1.15068C14.6462 0.508496 13.3806 0.185059 12.0001 0.185059C10.6243 0.185059 9.3587 0.508496 8.24073 1.14834C7.43448 1.60771 6.9001 2.12334 6.59542 2.47256C5.85948 3.31396 5.15401 4.371 4.98057 6.38662C4.93135 6.9585 4.91963 7.54443 4.92667 8.09287C4.87745 8.08115 4.82588 8.06943 4.77667 8.05771C4.58448 8.01553 4.3876 7.99443 4.19776 7.99443C3.27432 7.99443 2.51026 8.496 2.20557 9.30225C1.98526 9.8835 2.02042 10.5022 2.30635 11.0437C2.50792 11.428 2.8337 11.7726 3.29542 12.096C3.41964 12.1827 3.60948 12.3069 3.85088 12.4616C3.98214 12.546 4.17198 12.6702 4.35948 12.7944C4.3876 12.8132 4.48838 12.8882 4.52354 12.9585C4.56339 13.0382 4.56338 13.1249 4.50479 13.2843C4.40635 13.5022 4.26338 13.7694 4.06182 14.0647C3.46417 14.939 2.6087 15.6796 1.51885 16.2702C0.939948 16.5772 0.339948 16.7812 0.0868229 17.4702C-0.105365 17.9905 0.0211979 18.5835 0.506354 19.0827C0.665729 19.2538 0.867292 19.4062 1.12042 19.5468C1.71573 19.8749 2.22198 20.0366 2.62042 20.1468C2.69073 20.1679 2.85245 20.2194 2.92276 20.2827C3.10088 20.4374 3.0751 20.6718 3.31182 21.014C3.45479 21.2272 3.61885 21.3726 3.75479 21.4663C4.24932 21.8085 4.80713 21.8296 5.39776 21.853C5.92979 21.8741 6.53448 21.8976 7.22354 22.1249C7.50948 22.2187 7.80713 22.4015 8.14932 22.6124C8.97432 23.121 10.1064 23.8147 11.9978 23.8147C13.8915 23.8147 15.0282 23.1163 15.8603 22.6077C16.2024 22.3991 16.4978 22.2163 16.7743 22.1249C17.4634 21.8976 18.0681 21.8741 18.6001 21.853C19.1907 21.8296 19.7462 21.8085 20.2431 21.4663C20.3978 21.3585 20.5946 21.1827 20.7493 20.9155C20.9181 20.6272 20.9157 20.4233 21.0751 20.2851C21.1407 20.2288 21.2837 20.1796 21.361 20.1562C21.7618 20.046 22.2751 19.8843 22.8821 19.5491C23.1517 19.4015 23.3603 19.2397 23.5267 19.0546L23.5337 19.0476C23.986 18.5554 24.1009 17.9812 23.9134 17.4726ZM22.2329 18.3749C21.2064 18.9421 20.5243 18.8812 19.9946 19.221C19.5446 19.5116 19.8095 20.1374 19.4837 20.3624C19.0806 20.6413 17.8923 20.3437 16.3571 20.8499C15.0915 21.2694 14.2829 22.4718 12.0024 22.4718C9.71729 22.4718 8.93213 21.2741 7.64776 20.8499C6.1126 20.3437 4.92198 20.6413 4.5212 20.3624C4.19542 20.1374 4.46026 19.5116 4.01026 19.221C3.48057 18.8788 2.79854 18.9397 1.77198 18.3749C1.11807 18.014 1.48839 17.7913 1.70635 17.6858C5.42354 15.8882 6.01417 13.1085 6.04229 12.8999C6.0751 12.6515 6.11026 12.4546 5.83604 12.1991C5.5712 11.953 4.39229 11.2241 4.06651 10.9968C3.5251 10.6194 3.28839 10.2421 3.46417 9.77803C3.58604 9.45693 3.88604 9.3374 4.20245 9.3374C4.30088 9.3374 4.40167 9.34912 4.49776 9.37021C5.09073 9.49912 5.66729 9.79678 6.0001 9.87646C6.04698 9.88818 6.08682 9.89287 6.12198 9.89287C6.3001 9.89287 6.36104 9.80381 6.34932 9.5999C6.31182 8.95068 6.21807 7.68506 6.3212 6.50146C6.46182 4.8749 6.98682 4.06865 7.61026 3.35381C7.91026 3.01162 9.31651 1.52568 12.0048 1.52568C14.7001 1.52568 16.0993 3.01162 16.3993 3.35381C17.0228 4.06631 17.5478 4.87256 17.6884 6.50146C17.7915 7.68506 17.7024 8.95068 17.6603 9.5999C17.6462 9.81318 17.7118 9.89287 17.8876 9.89287C17.9228 9.89287 17.9649 9.88818 18.0095 9.87646C18.3423 9.79678 18.9189 9.49912 19.5118 9.37021C19.6079 9.34912 19.7087 9.3374 19.8071 9.3374C20.1235 9.3374 20.4235 9.45928 20.5454 9.77803C20.7212 10.2421 20.4821 10.6194 19.9431 10.9968C19.6173 11.2241 18.4384 11.953 18.1735 12.1991C17.8993 12.4522 17.9345 12.6491 17.9673 12.8999C17.9931 13.1085 18.586 15.8882 22.3032 17.6858C22.5142 17.7913 22.8868 18.014 22.2329 18.3749Z" fill="black"/>
</g>
<defs>
<clipPath id="clip0_1977_182">
<rect width="24" height="24" fill="white"/>
</clipPath>
</defs>
</svg>
