<svg width="22" height="24" viewBox="0 0 22 24" fill="none" xmlns="http://www.w3.org/2000/svg">
<path d="M18.7321 20.2814H15.4746V14.7581C15.4746 13.441 15.4529 11.7456 13.7804 11.7456C12.0838 11.7456 11.8243 13.1806 11.8243 14.6622V20.2811H8.56678V8.92291H11.6939V10.4751H11.7377C12.0507 9.89577 12.5029 9.41916 13.0463 9.09607C13.5896 8.77297 14.2037 8.61549 14.8232 8.64039C18.1247 8.64039 18.7335 10.9917 18.7335 14.0505L18.7321 20.2814ZM4.89128 7.37033C4.5174 7.3704 4.1519 7.25043 3.84099 7.0256C3.53009 6.80076 3.28776 6.48115 3.14463 6.10719C3.00149 5.73323 2.96398 5.32171 3.03685 4.92467C3.10972 4.52763 3.28971 4.16291 3.55403 3.87662C3.81835 3.59033 4.15515 3.39533 4.52183 3.31629C4.88851 3.23724 5.26859 3.2777 5.61403 3.43254C5.95947 3.58739 6.25475 3.84966 6.46252 4.1862C6.67029 4.52274 6.78122 4.91844 6.78129 5.32324C6.78134 5.59202 6.73248 5.85817 6.63752 6.10651C6.54256 6.35485 6.40337 6.58051 6.22787 6.7706C6.05236 6.96069 5.84398 7.11149 5.61465 7.21439C5.38532 7.31729 5.13952 7.37028 4.89128 7.37033ZM6.52001 20.2814H3.25916V8.92291H6.52001V20.2814ZM20.3561 0.00162171H1.62229C1.19708 -0.00357365 0.787348 0.174219 0.483153 0.49593C0.178958 0.817642 0.00518939 1.25695 0 1.71732V22.085C0.00501178 22.5456 0.178679 22.9852 0.482863 23.3072C0.787047 23.6293 1.19687 23.8074 1.62229 23.8025H20.3561C20.7824 23.8083 21.1933 23.6307 21.4987 23.3086C21.8041 22.9866 21.9789 22.5465 21.9848 22.085V1.71586C21.9787 1.25457 21.8038 0.814759 21.4984 0.493056C21.193 0.171352 20.7821 -0.00593224 20.3561 0.000151565" fill="white"/>
</svg>
