<svg width="24" height="24" viewBox="0 0 24 24" fill="none" xmlns="http://www.w3.org/2000/svg">
<rect width="24" height="24" rx="12" fill="white"/>
<rect width="24" height="24" rx="12" fill="white" fill-opacity="0.2"/>
<g clip-path="url(#clip0_2182_2274)">
<path d="M19.9997 12.1837C19.9997 11.6399 19.9547 11.0931 19.8588 10.5581H12.1602V13.6388H16.5688C16.3858 14.6323 15.798 15.5113 14.9373 16.0698V18.0687H17.5675C19.112 16.6753 19.9997 14.6176 19.9997 12.1837Z" fill="#4285F4"/>
<path d="M12.1609 20.0002C14.3622 20.0002 16.2186 19.2918 17.5712 18.0689L14.941 16.07C14.2093 16.558 13.2646 16.8343 12.1639 16.8343C10.0346 16.8343 8.22914 15.4263 7.58134 13.5332H4.86719V15.5938C6.25275 18.2953 9.07487 20.0002 12.1609 20.0002Z" fill="#34A853"/>
<path d="M7.57743 13.5328C7.23554 12.5393 7.23554 11.4634 7.57743 10.4698V8.40918H4.86628C3.70864 10.6697 3.70864 13.3329 4.86628 15.5935L7.57743 13.5328Z" fill="#FBBC04"/>
<path d="M12.1609 7.16595C13.3245 7.14831 14.4492 7.57749 15.2919 8.36529L17.6222 6.08126C16.1467 4.72318 14.1883 3.97653 12.1609 4.00005C9.07487 4.00005 6.25275 5.70499 4.86719 8.40938L7.57834 10.47C8.22314 8.574 10.0316 7.16595 12.1609 7.16595Z" fill="#EA4335"/>
</g>
<defs>
<clipPath id="clip0_2182_2274">
<rect width="16" height="16" fill="white" transform="translate(4 4)"/>
</clipPath>
</defs>
</svg>
