<svg width="24" height="24" viewBox="0 0 24 24" fill="none" xmlns="http://www.w3.org/2000/svg">
<g clip-path="url(#clip0_1977_797)">
<path d="M11.9994 0.0395508C5.39242 0.0395508 0.0361328 5.39569 0.0361328 12.0027C0.0361328 18.61 5.39242 23.9657 11.9994 23.9657C18.6071 23.9657 23.9628 18.61 23.9628 12.0027C23.9628 5.39612 18.6071 0.0401222 11.9993 0.0401222L11.9994 0.0395508ZM17.4857 17.2938C17.2714 17.6453 16.8114 17.7567 16.46 17.541C13.6511 15.8253 10.1151 15.4367 5.95085 16.3881C5.54956 16.4795 5.14956 16.2281 5.05813 15.8267C4.96628 15.4253 5.2167 15.0253 5.61899 14.9338C10.1761 13.8923 14.0851 14.341 17.2386 16.2681C17.59 16.4838 17.7014 16.9424 17.4857 17.2938ZM18.95 14.036C18.68 14.4753 18.1057 14.6138 17.6671 14.3438C14.4514 12.3668 9.54956 11.7944 5.74599 12.949C5.2527 13.098 4.7317 12.82 4.58199 12.3275C4.43342 11.8343 4.71156 11.3143 5.20399 11.1643C9.54871 9.84598 14.95 10.4846 18.6428 12.7538C19.0814 13.0238 19.22 13.5981 18.95 14.0361V14.036ZM19.0757 10.644C15.22 8.35384 8.85856 8.14326 5.17728 9.26055C4.58613 9.43984 3.96099 9.10612 3.78185 8.51498C3.6027 7.92355 3.93613 7.29884 4.5277 7.11912C8.75356 5.83626 15.7786 6.08412 20.2177 8.71941C20.7506 9.03498 20.9248 9.72169 20.6091 10.2527C20.2948 10.7844 19.6063 10.9597 19.0763 10.644H19.0757Z" fill="#1ED760"/>
</g>
<defs>
<clipPath id="clip0_1977_797">
<rect width="24" height="24" fill="white"/>
</clipPath>
</defs>
</svg>
