<svg width="24" height="24" viewBox="0 0 24 24" fill="none" xmlns="http://www.w3.org/2000/svg">
<g clip-path="url(#clip0_1977_218)">
<path d="M19.9995 0H4.00053C1.80087 0 0 1.80003 0 4.00068V20.0007C0 22.1995 1.80087 24 4.00053 24H19.9999C22.1996 24 24.0005 22.2 24.0005 20.0007V4.00068C24 1.80003 22.1991 0 19.9995 0ZM19.6359 18.3649C19.6359 19.0641 19.0634 19.6348 18.3637 19.6348H5.63538C4.93615 19.6348 4.36323 19.0637 4.36323 18.3649V5.6365C4.36323 4.93724 4.93615 4.36429 5.63538 4.36429H18.3637C19.0634 4.36429 19.6359 4.93724 19.6359 5.6365V18.3649ZM15.2735 14.5455C15.2735 14.9466 14.946 15.2728 14.5472 15.2728H9.45636C9.05622 15.2728 8.73006 14.9461 8.73006 14.5455V9.45491C8.73006 9.05476 9.05622 8.72813 9.45636 8.72813H14.5468C14.946 8.72813 15.2731 9.05521 15.2731 9.45491V14.5455H15.2735Z" fill="black"/>
</g>
<defs>
<clipPath id="clip0_1977_218">
<rect width="24" height="24" fill="white"/>
</clipPath>
</defs>
</svg>
