<svg width="24" height="24" viewBox="0 0 24 24" fill="none" xmlns="http://www.w3.org/2000/svg">
<g clip-path="url(#clip0_1977_1719)">
<path d="M12.0523 24.0837L15.401 5.11965C18.5929 5.11965 19.5997 5.47209 19.7451 6.91065C19.7451 6.91065 21.8863 6.10673 22.9663 4.47398C18.752 2.50761 14.5176 2.41893 14.5176 2.41893L12.0468 5.44928L12.0523 5.4489L9.5815 2.41846C9.5815 2.41846 5.34701 2.50723 1.1333 4.4736C2.21231 6.10635 4.35438 6.91027 4.35438 6.91027C4.50059 5.47161 5.50616 5.11917 8.67664 5.11689L12.0523 24.0837Z" fill="#E82127"/>
<path d="M12.0508 1.54344C15.4575 1.51721 19.3568 2.0741 23.3485 3.82595C23.882 2.85901 24.0191 2.43168 24.0191 2.43168C19.6556 0.693329 15.5692 0.0984187 12.0504 0.0834961C8.53166 0.0984187 4.44547 0.693424 0.0825195 2.43168C0.0825195 2.43168 0.277158 2.95806 0.752711 3.82595C4.74366 2.0741 8.64361 1.51721 12.0504 1.54344H12.0508Z" fill="#E82127"/>
</g>
<defs>
<clipPath id="clip0_1977_1719">
<rect width="24" height="24" fill="white"/>
</clipPath>
</defs>
</svg>
