<svg width="24" height="24" viewBox="0 0 24 24" fill="none" xmlns="http://www.w3.org/2000/svg">
<path d="M9.3526 9.45168V8.51642C8.98554 8.46502 8.6148 8.43685 8.2432 8.43215C4.64561 8.42535 1.46058 10.4873 0.380225 13.5224C-0.700132 16.5574 0.575104 19.8613 3.52806 21.6785C2.4452 20.6535 1.72092 19.3732 1.44263 17.9921C1.16434 16.6111 1.34395 15.1883 1.95977 13.8956C2.57559 12.6028 3.60129 11.4953 4.91308 10.7068C6.22487 9.91824 7.76666 9.48238 9.35236 9.45178L9.3526 9.45168Z" fill="#25F4EE"/>
<path d="M9.55215 20.0459C11.5636 20.0434 13.2169 18.6419 13.305 16.8646V1.00425H16.581C16.5142 0.672829 16.4823 0.336636 16.4857 0L12.0048 0V15.8451C11.9303 17.6314 10.273 19.0464 8.25195 19.0493C7.64799 19.0447 7.05388 18.9134 6.51855 18.666C6.86551 19.0912 7.32115 19.4378 7.84834 19.6776C8.37553 19.9174 8.95933 20.0436 9.55215 20.0459ZM22.7 6.38549V5.50393C21.4943 5.50435 20.3154 5.18969 19.3112 4.59945C20.1915 5.50456 21.3811 6.13152 22.7 6.38549Z" fill="#25F4EE"/>
<path d="M19.3113 4.59953C18.322 3.60326 17.7767 2.32252 17.7772 0.996582H16.5811C16.7355 1.72968 17.0573 2.42724 17.5267 3.04669C17.9961 3.66615 18.6033 4.19451 19.3113 4.59953ZM8.24336 12.3956C7.40444 12.3993 6.59102 12.651 5.93243 13.1107C5.27384 13.5703 4.80788 14.2115 4.60862 14.9322C4.40936 15.653 4.48825 16.412 4.83274 17.0885C5.17723 17.7651 5.76754 18.3204 6.50984 18.6661C6.10399 18.1705 5.86096 17.5853 5.80757 16.9751C5.75419 16.365 5.89255 15.7537 6.20736 15.2088C6.52217 14.6638 7.00117 14.2065 7.59145 13.8872C8.18172 13.5679 8.8603 13.3992 9.55219 13.3997C9.92834 13.404 10.3019 13.4558 10.6615 13.5535V9.52089C10.2942 9.4722 9.92353 9.44659 9.55219 9.44426H9.35275V12.5105C8.99123 12.4247 8.6175 12.386 8.24336 12.3956Z" fill="#FE2C55"/>
<path d="M22.6997 6.38525V9.45159C20.4677 9.44775 18.2936 8.82286 16.4854 7.66545V15.7221C16.4758 19.7423 12.7883 22.9969 8.24298 22.9969C6.55486 22.9996 4.90739 22.5389 3.52783 21.6784C4.65278 22.7486 6.11603 23.4943 7.72699 23.8185C9.33795 24.1427 11.022 24.0302 12.5596 23.4959C14.0973 22.9615 15.4174 22.0299 16.348 20.8225C17.2786 19.6151 17.7765 18.1878 17.7768 16.7266V8.69273C19.5911 9.84251 21.7678 10.4592 23.9998 10.4558V6.50763C23.5628 6.50648 23.1271 6.46547 22.6997 6.38525Z" fill="#FE2C55"/>
<path d="M16.4856 15.7224V7.66577C18.2992 8.81659 20.4764 9.43343 22.7085 9.42887V6.36264C21.3898 6.11634 20.1974 5.49753 19.3111 4.59954C18.6031 4.19451 17.9959 3.66615 17.5265 3.04669C17.0571 2.42724 16.7353 1.72968 16.5808 0.996582H13.3049V16.8649C13.273 17.5556 12.9986 18.2204 12.5199 18.7668C12.0411 19.3133 11.3818 19.7143 10.6336 19.914C9.88533 20.1138 9.0853 20.1025 8.34466 19.8816C7.60403 19.6608 6.95958 19.2413 6.50087 18.6816C5.75845 18.3359 5.16801 17.7806 4.82343 17.104C4.47885 16.4274 4.39992 15.6684 4.5992 14.9475C4.79847 14.2267 5.2645 13.5855 5.92318 13.1258C6.58187 12.6662 7.39539 12.4145 8.23439 12.4108C8.61067 12.4138 8.98443 12.4655 9.34379 12.5642V9.49786C7.74956 9.52177 6.19765 9.95543 4.87726 10.7459C3.55687 11.5365 2.52506 12.6497 1.90764 13.9499C1.29021 15.2501 1.11385 16.6811 1.40006 18.0684C1.68626 19.4557 2.42267 20.7394 3.51948 21.763C4.91259 22.5951 6.56241 23.0262 8.24315 22.9972C12.7885 22.9972 16.476 19.7426 16.4856 15.7224Z" fill="black"/>
</svg>
