<svg width="24" height="24" viewBox="0 0 24 24" fill="none" xmlns="http://www.w3.org/2000/svg">
<g clip-path="url(#clip0_1977_65)">
<path d="M21.4789 6.03422C21.4935 6.28952 21.4935 6.54481 21.4935 6.80246C21.4935 14.653 16.5773 23.7072 7.58797 23.7072V23.7025C4.93249 23.7072 2.33216 22.7825 0.0966797 21.0389C0.482809 21.0954 0.870873 21.1236 1.25991 21.1248C3.46055 21.1272 5.59829 20.2295 7.32958 18.5766C5.23829 18.5283 3.40442 16.8707 2.76378 14.4507C3.49636 14.6225 4.2512 14.5872 4.97023 14.3483C2.69023 13.7883 1.04991 11.353 1.04991 8.52481C1.04991 8.49893 1.04991 8.47423 1.04991 8.44952C1.72926 8.90952 2.48991 9.16481 3.26797 9.19305C1.12055 7.44834 0.458615 3.9754 1.75539 1.26011C4.23668 4.97187 7.89765 7.22834 11.8276 7.46717C11.4338 5.40364 11.9718 3.24128 13.2415 1.7907C15.2099 -0.458716 18.3057 -0.343422 20.156 2.04834C21.2505 1.78599 22.2996 1.29775 23.2596 0.60599C22.8947 1.98128 22.1312 3.14952 21.1112 3.89187C22.0799 3.75305 23.0264 3.43775 23.9176 2.95658C23.2615 4.15187 22.4351 5.19305 21.4789 6.03422Z" fill="#1D9BF0"/>
</g>
<defs>
<clipPath id="clip0_1977_65">
<rect width="24" height="24" fill="white"/>
</clipPath>
</defs>
</svg>
