<svg width="24" height="24" viewBox="0 0 24 24" fill="none" xmlns="http://www.w3.org/2000/svg">
<path fill-rule="evenodd" clip-rule="evenodd" d="M1.99585 17.5023V17.0961C1.99915 15.9405 2.93512 15.0045 4.09072 15.0013H6.90389C8.05949 15.0045 8.99547 15.9405 8.99877 17.0961V17.5023C8.99877 17.7786 8.77482 18.0025 8.49856 18.0025H2.49606C2.2198 18.0025 1.99585 17.7786 1.99585 17.5023Z" stroke="#005382" stroke-width="1.5" stroke-linecap="round" stroke-linejoin="round"/>
<path fill-rule="evenodd" clip-rule="evenodd" d="M12.8678 8.99881V10.4984C12.8678 10.6915 12.9789 10.8673 13.1533 10.9502C13.3277 11.0331 13.5342 11.0082 13.6839 10.8863L16.0018 8.99881H18.3701C19.4752 8.99881 20.371 8.103 20.371 6.99797V3.99665C20.371 2.89162 19.4752 1.99582 18.3701 1.99582H12.0001C10.8951 1.99582 9.99927 2.89162 9.99927 3.99665V6.9979C9.99927 8.10293 10.8951 8.99874 12.0001 8.99874L12.8678 8.99881Z" stroke="#005382" stroke-width="1.5" stroke-linecap="round" stroke-linejoin="round"/>
<circle cx="5.49742" cy="10.4994" r="2.00083" stroke="#005382" stroke-width="1.5" stroke-linecap="round" stroke-linejoin="round"/>
<path fill-rule="evenodd" clip-rule="evenodd" d="M15.0015 21.5039V21.0978C15.0048 19.9422 15.9407 19.0062 17.0963 19.0029H19.9095C21.0651 19.0062 22.0011 19.9422 22.0044 21.0978V21.5039C22.0044 21.7802 21.7804 22.0041 21.5042 22.0041H15.5017C15.2254 22.0041 15.0015 21.7802 15.0015 21.5039Z" stroke="#005382" stroke-width="1.5" stroke-linecap="round" stroke-linejoin="round"/>
<circle cx="18.5028" cy="14.501" r="2.00083" stroke="#005382" stroke-width="1.5" stroke-linecap="round" stroke-linejoin="round"/>
</svg>
