<svg width="20" height="20" viewBox="0 0 20 20" fill="none" xmlns="http://www.w3.org/2000/svg">
<path fill-rule="evenodd" clip-rule="evenodd" d="M8.8559 11.1439C7.6859 9.97387 6.8039 8.66387 6.2179 7.33487C6.0939 7.05387 6.1669 6.72487 6.3839 6.50787L7.2029 5.68987C7.8739 5.01887 7.8739 4.06987 7.2879 3.48387L6.1139 2.30987C5.3329 1.52887 4.0669 1.52887 3.2859 2.30987L2.6339 2.96187C1.8929 3.70287 1.5839 4.77187 1.7839 5.83187C2.2779 8.44487 3.7959 11.3059 6.2449 13.7549C8.6939 16.2039 11.5549 17.7219 14.1679 18.2159C15.2279 18.4159 16.2969 18.1069 17.0379 17.3659L17.6889 16.7149C18.4699 15.9339 18.4699 14.6679 17.6889 13.8869L16.5159 12.7139C15.9299 12.1279 14.9799 12.1279 14.3949 12.7139L13.4919 13.6179C13.2749 13.8349 12.9459 13.9079 12.6649 13.7839C11.3359 13.1969 10.0259 12.3139 8.8559 11.1439Z" stroke="#2F2F2F" stroke-width="1.5" stroke-linecap="round" stroke-linejoin="round"/>
</svg>
