<svg width="24" height="24" viewBox="0 0 24 24" fill="none" xmlns="http://www.w3.org/2000/svg">
<path d="M12.5317 23.9686L7.60784 23.8384C6.0136 23.793 4.41539 23.8836 2.85241 23.4136C0.474754 22.7114 0.306312 19.2684 0.130056 16.3804C-0.112807 12.3203 -0.0187875 8.18645 0.439526 4.16018C0.69826 1.90103 1.71648 0.552974 3.29112 0.406281C8.6067 -0.126093 13.9576 -0.0630013 19.2614 0.18537C19.8216 0.208139 20.3856 0.332586 20.9379 0.474239C23.6643 1.16513 23.7308 5.06677 23.9076 8.35122C24.0838 11.6696 24.0094 15.0049 23.6725 18.3007C23.4022 21.0295 22.8851 23.3178 20.7028 23.5387C17.9686 23.8276 15.2971 24.0602 12.5552 23.9861C12.5553 23.9686 12.5395 23.9686 12.5317 23.9686ZM9.63694 17.06C11.6974 15.3498 13.7186 13.668 15.7673 11.9692C13.703 10.2589 11.6857 8.57717 9.63694 6.87837V17.06Z" fill="#FF0000"/>
</svg>
